<?xml version="1.0" encoding="UTF-8" standalone="no"?>
<!DOCTYPE svg PUBLIC "-//W3C//DTD SVG 1.1//EN"
 "http://www.w3.org/Graphics/SVG/1.1/DTD/svg11.dtd">
<!-- Generated by graphviz version 2.43.0 (0)
 -->
<!-- Title: classes_WorkflowAnalyzer Pages: 1 -->
<svg width="959pt" height="153pt"
 viewBox="0.00 0.00 958.50 153.00" xmlns="http://www.w3.org/2000/svg" xmlns:xlink="http://www.w3.org/1999/xlink">
<g id="graph0" class="graph" transform="scale(1 1) rotate(0) translate(4 149)">
<title>classes_WorkflowAnalyzer</title>
<polygon fill="white" stroke="transparent" points="-4,4 -4,-149 954.5,-149 954.5,4 -4,4"/>
<!-- src.round_trip_engineering.workflow_analyzer.WorkflowAnalyzer -->
<g id="node1" class="node">
<title>src.round_trip_engineering.workflow_analyzer.WorkflowAnalyzer</title>
<polygon fill="none" stroke="black" points="0,-23 0,-122 556,-122 556,-23 0,-23"/>
<text text-anchor="start" x="213.5" y="-106.8" font-family="Times,serif" font-size="14.00">WorkflowAnalyzer</text>
<polyline fill="none" stroke="black" points="0,-99 556,-99 "/>
<text text-anchor="start" x="162" y="-83.8" font-family="Times,serif" font-size="14.00">parser : EnhancedArtifactParser</text>
<polyline fill="none" stroke="black" points="0,-76 556,-76 "/>
<text text-anchor="start" x="8" y="-60.8" font-family="Times,serif" font-size="14.00">analyze_workflow(source_path: str): Dict[str, Any]</text>
<text text-anchor="start" x="8" y="-45.8" font-family="Times,serif" font-size="14.00">generate_mermaid_activity_diagram(workflow_data: Dict[str, Any]): str</text>
<text text-anchor="start" x="8" y="-30.8" font-family="Times,serif" font-size="14.00">save_mermaid_diagram(workflow_data: Dict[str, Any], output_path: str): str</text>
</g>
<!-- src.round_trip_engineering.workflow_analyzer.WorkflowEdge -->
<g id="node2" class="node">
<title>src.round_trip_engineering.workflow_analyzer.WorkflowEdge</title>
<polygon fill="none" stroke="black" points="574.5,-15.5 574.5,-129.5 699.5,-129.5 699.5,-15.5 574.5,-15.5"/>
<text text-anchor="start" x="585.5" y="-114.3" font-family="Times,serif" font-size="14.00">WorkflowEdge</text>
<polyline fill="none" stroke="black" points="574.5,-106.5 699.5,-106.5 "/>
<text text-anchor="start" x="582.5" y="-91.3" font-family="Times,serif" font-size="14.00">condition : str</text>
<text text-anchor="start" x="582.5" y="-76.3" font-family="Times,serif" font-size="14.00">from_node : str</text>
<text text-anchor="start" x="582.5" y="-61.3" font-family="Times,serif" font-size="14.00">label : str</text>
<text text-anchor="start" x="582.5" y="-46.3" font-family="Times,serif" font-size="14.00">to_node : str</text>
<polyline fill="none" stroke="black" points="574.5,-38.5 699.5,-38.5 "/>
<text text-anchor="start" x="634.5" y="-23.3" font-family="Times,serif" font-size="14.00"> </text>
</g>
<!-- src.round_trip_engineering.workflow_analyzer.WorkflowNode -->
<g id="node3" class="node">
<title>src.round_trip_engineering.workflow_analyzer.WorkflowNode</title>
<polygon fill="none" stroke="black" points="717.5,-0.5 717.5,-144.5 950.5,-144.5 950.5,-0.5 717.5,-0.5"/>
<text text-anchor="start" x="782" y="-129.3" font-family="Times,serif" font-size="14.00">WorkflowNode</text>
<polyline fill="none" stroke="black" points="717.5,-121.5 950.5,-121.5 "/>
<text text-anchor="start" x="725.5" y="-106.3" font-family="Times,serif" font-size="14.00">branches : Optional[List[str]]</text>
<text text-anchor="start" x="725.5" y="-91.3" font-family="Times,serif" font-size="14.00">conditions : Optional[List[str]]</text>
<text text-anchor="start" x="725.5" y="-76.3" font-family="Times,serif" font-size="14.00">content : str</text>
<text text-anchor="start" x="725.5" y="-61.3" font-family="Times,serif" font-size="14.00">line_number : int</text>
<text text-anchor="start" x="725.5" y="-46.3" font-family="Times,serif" font-size="14.00">name : str</text>
<text text-anchor="start" x="725.5" y="-31.3" font-family="Times,serif" font-size="14.00">node_type : str</text>
<polyline fill="none" stroke="black" points="717.5,-23.5 950.5,-23.5 "/>
<text text-anchor="start" x="831.5" y="-8.3" font-family="Times,serif" font-size="14.00"> </text>
</g>
</g>
</svg>
