<?xml version="1.0" encoding="UTF-8" standalone="no"?>
<!DOCTYPE svg PUBLIC "-//W3C//DTD SVG 1.1//EN"
 "http://www.w3.org/Graphics/SVG/1.1/DTD/svg11.dtd">
<!-- Generated by graphviz version 2.43.0 (0)
 -->
<!-- Title: G Pages: 1 -->
<svg width="629pt" height="783pt"
 viewBox="0.00 0.00 628.52 783.11" xmlns="http://www.w3.org/2000/svg" xmlns:xlink="http://www.w3.org/1999/xlink">
<g id="graph0" class="graph" transform="scale(1 1) rotate(0) translate(4 779.11)">
<title>G</title><style>.edge>path:hover{stroke-width:8}</style>
<polygon fill="white" stroke="transparent" points="-4,4 -4,-779.11 624.52,-779.11 624.52,4 -4,4"/>
<!-- chardet -->
<g id="node1" class="node">
<title>chardet</title><style>.edge>path:hover{stroke-width:8}</style>
<ellipse fill="#b65353" stroke="black" cx="83.68" cy="-208.64" rx="31.4" ry="18"/>
<text text-anchor="middle" x="83.68" y="-206.14" font-family="Helvetica,sans-Serif" font-size="10.00" fill="#ffffff">chardet</text>
</g>
<!-- requests -->
<g id="node5" class="node">
<title>requests</title><style>.edge>path:hover{stroke-width:8}</style>
<polygon fill="blue" stroke="black" points="353.18,-151.43 294.18,-151.43 294.18,-115.43 353.18,-115.43 353.18,-151.43"/>
<text text-anchor="middle" x="323.68" y="-130.93" font-family="Helvetica,sans-Serif" font-size="10.00" fill="white">requests</text>
</g>
<!-- chardet&#45;&gt;requests -->
<g id="edge1" class="edge">
<title>chardet&#45;&gt;requests</title><style>.edge>path:hover{stroke-width:8}</style>
<path fill="none" stroke="black" d="M105.73,-195.46C111.47,-192.58 117.72,-189.69 123.68,-187.43 177.85,-166.82 243.17,-151.14 284.08,-142.36"/>
<polygon fill="#b65353" stroke="black" points="284.87,-145.77 293.93,-140.27 283.42,-138.92 284.87,-145.77"/>
</g>
<!-- charset_normalizer -->
<g id="node2" class="node">
<title>charset_normalizer</title><style>.edge>path:hover{stroke-width:8}</style>
<ellipse fill="#b6b653" stroke="black" cx="197.68" cy="-208.64" rx="64.51" ry="18"/>
<text text-anchor="middle" x="197.68" y="-206.14" font-family="Helvetica,sans-Serif" font-size="10.00" fill="#000000">charset_normalizer</text>
</g>
<!-- charset_normalizer&#45;&gt;requests -->
<g id="edge2" class="edge">
<title>charset_normalizer&#45;&gt;requests</title><style>.edge>path:hover{stroke-width:8}</style>
<path fill="none" stroke="black" d="M224.4,-192.11C242.19,-181.78 265.84,-168.04 285.59,-156.56"/>
<polygon fill="#b6b653" stroke="black" points="287.47,-159.51 294.36,-151.46 283.95,-153.46 287.47,-159.51"/>
</g>
<!-- cryptography -->
<g id="node3" class="node">
<title>cryptography</title><style>.edge>path:hover{stroke-width:8}</style>
<ellipse fill="#33cc33" stroke="black" cx="47.68" cy="-606.69" rx="47.86" ry="18"/>
<text text-anchor="middle" x="47.68" y="-604.19" font-family="Helvetica,sans-Serif" font-size="10.00" fill="#000000">cryptography</text>
</g>
<!-- cryptography&#45;&gt;requests -->
<g id="edge3" class="edge">
<title>cryptography&#45;&gt;requests</title><style>.edge>path:hover{stroke-width:8}</style>
<path fill="none" stroke="black" d="M59.72,-589.04C78.21,-562.23 112.64,-507.1 123.68,-454.05"/>
<path fill="none" stroke="black" d="M123.68,-452.05C142.87,-404.31 109.7,-377.34 142.68,-337.85 187.47,-284.23 275.39,-353.03 290.68,-284.85"/>
<path fill="none" stroke="black" d="M290.68,-282.85C297.42,-251.02 290.04,-242.17 290.68,-209.64"/>
<path fill="none" stroke="black" d="M290.68,-207.64C291.01,-190.88 298.32,-173.71 305.97,-160.21"/>
<polygon fill="#33cc33" stroke="black" points="309.05,-161.88 311.24,-151.51 303.06,-158.25 309.05,-161.88"/>
</g>
<!-- urllib3_contrib_pyopenssl -->
<g id="node16" class="node">
<title>urllib3_contrib_pyopenssl</title><style>.edge>path:hover{stroke-width:8}</style>
<ellipse fill="#ac49ac" stroke="black" cx="198.68" cy="-366.84" rx="46.84" ry="28.98"/>
<text text-anchor="middle" x="198.68" y="-375.34" font-family="Helvetica,sans-Serif" font-size="10.00" fill="#ffffff">urllib3.</text>
<text text-anchor="middle" x="198.68" y="-364.34" font-family="Helvetica,sans-Serif" font-size="10.00" fill="#ffffff">contrib.</text>
<text text-anchor="middle" x="198.68" y="-353.34" font-family="Helvetica,sans-Serif" font-size="10.00" fill="#ffffff">pyopenssl</text>
</g>
<!-- cryptography&#45;&gt;urllib3_contrib_pyopenssl -->
<g id="edge4" class="edge">
<title>cryptography&#45;&gt;urllib3_contrib_pyopenssl</title><style>.edge>path:hover{stroke-width:8}</style>
<path fill="none" stroke="black" d="M123.68,-452.05C128.31,-429.81 144.15,-410.44 160.08,-395.9"/>
<polygon fill="#33cc33" stroke="black" points="162.6,-398.35 167.86,-389.15 158.01,-393.06 162.6,-398.35"/>
</g>
<!-- enhanced_activity_generator_py -->
<g id="node4" class="node">
<title>enhanced_activity_generator_py</title><style>.edge>path:hover{stroke-width:8}</style>
<ellipse fill="#59a6a6" stroke="black" cx="323.68" cy="-21.21" rx="113.69" ry="21.43"/>
<text text-anchor="middle" x="323.68" y="-24.21" font-family="Helvetica,sans-Serif" font-size="10.00" fill="#000000">enhanced_activity_generator.</text>
<text text-anchor="middle" x="323.68" y="-13.21" font-family="Helvetica,sans-Serif" font-size="10.00" fill="#000000">py</text>
</g>
<!-- requests&#45;&gt;enhanced_activity_generator_py -->
<g id="edge5" class="edge">
<title>requests&#45;&gt;enhanced_activity_generator_py</title><style>.edge>path:hover{stroke-width:8}</style>
<path fill="none" stroke="black" d="M323.68,-115.21C323.68,-98.58 323.68,-73.03 323.68,-52.92"/>
<polygon fill="blue" stroke="black" points="327.18,-52.69 323.68,-42.69 320.18,-52.69 327.18,-52.69"/>
</g>
<!-- requests___version__ -->
<g id="node6" class="node">
<title>requests___version__</title><style>.edge>path:hover{stroke-width:8}</style>
<ellipse fill="#4747c2" stroke="black" cx="241.68" cy="-531.48" rx="52.15" ry="21.43"/>
<text text-anchor="middle" x="241.68" y="-534.48" font-family="Helvetica,sans-Serif" font-size="10.00" fill="#ffffff">requests.</text>
<text text-anchor="middle" x="241.68" y="-523.48" font-family="Helvetica,sans-Serif" font-size="10.00" fill="#ffffff">__version__</text>
</g>
<!-- requests___version__&#45;&gt;requests -->
<g id="edge6" class="edge">
<title>requests___version__&#45;&gt;requests</title><style>.edge>path:hover{stroke-width:8}</style>
<path fill="none" stroke="black" d="M237.37,-510.09C234.99,-494.15 233.9,-471.79 241.68,-454.05"/>
</g>
<!-- requests_utils -->
<g id="node13" class="node">
<title>requests_utils</title><style>.edge>path:hover{stroke-width:8}</style>
<polygon fill="blue" stroke="black" points="353.18,-471.05 270.18,-471.05 270.18,-435.05 353.18,-435.05 353.18,-471.05"/>
<text text-anchor="middle" x="311.68" y="-450.55" font-family="Helvetica,sans-Serif" font-size="10.00" fill="white">requests.utils</text>
</g>
<!-- requests___version__&#45;&gt;requests_utils -->
<g id="edge7" class="edge">
<title>requests___version__&#45;&gt;requests_utils</title><style>.edge>path:hover{stroke-width:8}</style>
<path fill="none" stroke="black" d="M259.35,-511.19C268.32,-501.39 279.32,-489.38 288.92,-478.9"/>
<polygon fill="#4747c2" stroke="black" points="291.76,-480.98 295.93,-471.24 286.6,-476.25 291.76,-480.98"/>
</g>
<!-- requests_api -->
<g id="node7" class="node">
<title>requests_api</title><style>.edge>path:hover{stroke-width:8}</style>
<polygon fill="blue" stroke="black" points="396.18,-226.64 319.18,-226.64 319.18,-190.64 396.18,-190.64 396.18,-226.64"/>
<text text-anchor="middle" x="357.68" y="-206.14" font-family="Helvetica,sans-Serif" font-size="10.00" fill="white">requests.api</text>
</g>
<!-- requests_api&#45;&gt;requests -->
<g id="edge8" class="edge">
<title>requests_api&#45;&gt;requests</title><style>.edge>path:hover{stroke-width:8}</style>
<path fill="none" stroke="black" d="M349.62,-190.29C345.56,-181.54 340.54,-170.73 336,-160.96"/>
<polygon fill="blue" stroke="black" points="339.07,-159.25 331.68,-151.65 332.72,-162.2 339.07,-159.25"/>
</g>
<!-- requests_exceptions -->
<g id="node8" class="node">
<title>requests_exceptions</title><style>.edge>path:hover{stroke-width:8}</style>
<ellipse fill="#2424d0" stroke="black" cx="398.68" cy="-531.48" rx="49.49" ry="21.43"/>
<text text-anchor="middle" x="398.68" y="-534.48" font-family="Helvetica,sans-Serif" font-size="10.00" fill="#ffffff">requests.</text>
<text text-anchor="middle" x="398.68" y="-523.48" font-family="Helvetica,sans-Serif" font-size="10.00" fill="#ffffff">exceptions</text>
</g>
<!-- requests_exceptions&#45;&gt;requests -->
<g id="edge9" class="edge">
<title>requests_exceptions&#45;&gt;requests</title><style>.edge>path:hover{stroke-width:8}</style>
<path fill="none" stroke="black" d="M393.04,-510.23C389.06,-494.93 384.03,-473.34 381.68,-454.05"/>
<path fill="none" stroke="black" d="M381.68,-452.05C376.84,-412.31 363.35,-405.47 349.68,-367.84"/>
<path fill="none" stroke="black" d="M349.68,-365.84C334.47,-323.99 280.94,-328.31 290.68,-284.85"/>
</g>
<!-- requests_models -->
<g id="node9" class="node">
<title>requests_models</title><style>.edge>path:hover{stroke-width:8}</style>
<polygon fill="blue" stroke="black" points="439.68,-384.84 377.68,-384.84 377.68,-348.84 439.68,-348.84 439.68,-384.84"/>
<text text-anchor="middle" x="408.68" y="-369.84" font-family="Helvetica,sans-Serif" font-size="10.00" fill="white">requests.</text>
<text text-anchor="middle" x="408.68" y="-358.84" font-family="Helvetica,sans-Serif" font-size="10.00" fill="white">models</text>
</g>
<!-- requests_exceptions&#45;&gt;requests_models -->
<g id="edge10" class="edge">
<title>requests_exceptions&#45;&gt;requests_models</title><style>.edge>path:hover{stroke-width:8}</style>
<path fill="none" stroke="black" d="M381.68,-452.05C379.27,-432.24 386.27,-410.83 393.75,-394.56"/>
<polygon fill="#2424d0" stroke="black" points="397.1,-395.67 398.38,-385.15 390.82,-392.57 397.1,-395.67"/>
</g>
<!-- requests_sessions -->
<g id="node11" class="node">
<title>requests_sessions</title><style>.edge>path:hover{stroke-width:8}</style>
<polygon fill="blue" stroke="black" points="380.68,-301.85 318.68,-301.85 318.68,-265.85 380.68,-265.85 380.68,-301.85"/>
<text text-anchor="middle" x="349.68" y="-286.85" font-family="Helvetica,sans-Serif" font-size="10.00" fill="white">requests.</text>
<text text-anchor="middle" x="349.68" y="-275.85" font-family="Helvetica,sans-Serif" font-size="10.00" fill="white">sessions</text>
</g>
<!-- requests_exceptions&#45;&gt;requests_sessions -->
<g id="edge11" class="edge">
<title>requests_exceptions&#45;&gt;requests_sessions</title><style>.edge>path:hover{stroke-width:8}</style>
<path fill="none" stroke="black" d="M349.68,-365.84C343.48,-348.77 343.54,-328.3 345.12,-312.22"/>
<polygon fill="#2424d0" stroke="black" points="348.64,-312.23 346.39,-301.87 341.69,-311.37 348.64,-312.23"/>
</g>
<!-- requests_exceptions&#45;&gt;requests_utils -->
<g id="edge12" class="edge">
<title>requests_exceptions&#45;&gt;requests_utils</title><style>.edge>path:hover{stroke-width:8}</style>
<path fill="none" stroke="black" d="M377.62,-511.97C365.99,-501.76 351.41,-488.95 338.92,-477.97"/>
<polygon fill="#2424d0" stroke="black" points="340.88,-475.04 331.06,-471.07 336.26,-480.3 340.88,-475.04"/>
</g>
<!-- requests_models&#45;&gt;requests -->
<g id="edge13" class="edge">
<title>requests_models&#45;&gt;requests</title><style>.edge>path:hover{stroke-width:8}</style>
<path fill="none" stroke="black" d="M439.92,-353.65C466.44,-341.04 500.82,-318.43 504.68,-284.85"/>
<path fill="none" stroke="black" d="M504.68,-282.85C513.11,-209.54 418.5,-165.55 362.8,-146.17"/>
<polygon fill="blue" stroke="black" points="363.81,-142.82 353.22,-142.95 361.58,-149.45 363.81,-142.82"/>
</g>
<!-- requests_models&#45;&gt;requests_sessions -->
<g id="edge14" class="edge">
<title>requests_models&#45;&gt;requests_sessions</title><style>.edge>path:hover{stroke-width:8}</style>
<path fill="none" stroke="black" d="M396.17,-348.67C388.03,-337.5 377.28,-322.74 368.17,-310.23"/>
<polygon fill="blue" stroke="black" points="370.89,-308.03 362.18,-302 365.24,-312.15 370.89,-308.03"/>
</g>
<!-- requests_packages -->
<g id="node10" class="node">
<title>requests_packages</title><style>.edge>path:hover{stroke-width:8}</style>
<ellipse fill="#5353b6" stroke="black" cx="576.68" cy="-208.64" rx="43.68" ry="21.43"/>
<text text-anchor="middle" x="576.68" y="-211.64" font-family="Helvetica,sans-Serif" font-size="10.00" fill="#ffffff">requests.</text>
<text text-anchor="middle" x="576.68" y="-200.64" font-family="Helvetica,sans-Serif" font-size="10.00" fill="#ffffff">packages</text>
</g>
<!-- requests_packages&#45;&gt;requests -->
<g id="edge15" class="edge">
<title>requests_packages&#45;&gt;requests</title><style>.edge>path:hover{stroke-width:8}</style>
<path fill="none" stroke="black" d="M542.46,-195.27C534.68,-192.58 526.42,-189.82 518.68,-187.43 465.19,-170.86 402.6,-154.35 363.05,-144.26"/>
<polygon fill="#5353b6" stroke="black" points="363.82,-140.85 353.27,-141.78 362.1,-147.63 363.82,-140.85"/>
</g>
<!-- requests_sessions&#45;&gt;requests -->
<g id="edge16" class="edge">
<title>requests_sessions&#45;&gt;requests</title><style>.edge>path:hover{stroke-width:8}</style>
<path fill="none" stroke="black" d="M324.38,-265.74C308.17,-252.52 290.23,-232.65 290.68,-209.64"/>
</g>
<!-- requests_sessions&#45;&gt;requests_api -->
<g id="edge17" class="edge">
<title>requests_sessions&#45;&gt;requests_api</title><style>.edge>path:hover{stroke-width:8}</style>
<path fill="none" stroke="black" d="M351.58,-265.5C352.5,-257.02 353.64,-246.62 354.68,-237.09"/>
<polygon fill="blue" stroke="black" points="358.19,-237.19 355.8,-226.87 351.23,-236.43 358.19,-237.19"/>
</g>
<!-- requests_status_codes -->
<g id="node12" class="node">
<title>requests_status_codes</title><style>.edge>path:hover{stroke-width:8}</style>
<ellipse fill="#3b3bce" stroke="black" cx="504.68" cy="-453.05" rx="56.64" ry="21.43"/>
<text text-anchor="middle" x="504.68" y="-456.05" font-family="Helvetica,sans-Serif" font-size="10.00" fill="#ffffff">requests.</text>
<text text-anchor="middle" x="504.68" y="-445.05" font-family="Helvetica,sans-Serif" font-size="10.00" fill="#ffffff">status_codes</text>
</g>
<!-- requests_status_codes&#45;&gt;requests -->
<g id="edge18" class="edge">
<title>requests_status_codes&#45;&gt;requests</title><style>.edge>path:hover{stroke-width:8}</style>
<path fill="none" stroke="black" d="M504.68,-365.84C491.48,-332.36 508,-320.7 504.68,-284.85"/>
</g>
<!-- requests_status_codes&#45;&gt;requests_models -->
<g id="edge19" class="edge">
<title>requests_status_codes&#45;&gt;requests_models</title><style>.edge>path:hover{stroke-width:8}</style>
<path fill="none" stroke="black" d="M483.38,-433.36C469.36,-421.07 450.89,-404.86 435.82,-391.65"/>
<polygon fill="#3b3bce" stroke="black" points="438.12,-389.01 428.29,-385.05 433.5,-394.27 438.12,-389.01"/>
</g>
<!-- requests_status_codes&#45;&gt;requests_sessions -->
<g id="edge20" class="edge">
<title>requests_status_codes&#45;&gt;requests_sessions</title><style>.edge>path:hover{stroke-width:8}</style>
<path fill="none" stroke="black" d="M508.72,-431.88C511.3,-414.33 512.83,-388.52 504.68,-367.84"/>
<path fill="none" stroke="black" d="M504.68,-365.84C486.8,-320.5 430.4,-300.18 390.82,-291.33"/>
<polygon fill="#3b3bce" stroke="black" points="391.4,-287.87 380.9,-289.27 389.98,-294.73 391.4,-287.87"/>
</g>
<!-- requests_utils&#45;&gt;requests -->
<g id="edge21" class="edge">
<title>requests_utils&#45;&gt;requests</title><style>.edge>path:hover{stroke-width:8}</style>
<path fill="none" stroke="black" d="M311.17,-434.94C310.78,-417.92 310.5,-391.06 311.68,-367.84"/>
<path fill="none" stroke="black" d="M311.68,-365.84C313.58,-328.71 282.54,-321.14 290.68,-284.85"/>
</g>
<!-- requests_utils&#45;&gt;requests_models -->
<g id="edge22" class="edge">
<title>requests_utils&#45;&gt;requests_models</title><style>.edge>path:hover{stroke-width:8}</style>
<path fill="none" stroke="black" d="M331.31,-435.01C345.64,-422.57 365.26,-405.54 381.16,-391.74"/>
<polygon fill="blue" stroke="black" points="383.82,-394.06 389.08,-384.86 379.24,-388.77 383.82,-394.06"/>
</g>
<!-- requests_utils&#45;&gt;requests_sessions -->
<g id="edge23" class="edge">
<title>requests_utils&#45;&gt;requests_sessions</title><style>.edge>path:hover{stroke-width:8}</style>
<path fill="none" stroke="black" d="M311.68,-365.84C312.69,-346.19 322,-326.15 331.16,-310.92"/>
<polygon fill="blue" stroke="black" points="334.35,-312.43 336.77,-302.11 328.45,-308.67 334.35,-312.43"/>
</g>
<!-- urllib3 -->
<g id="node14" class="node">
<title>urllib3</title><style>.edge>path:hover{stroke-width:8}</style>
<ellipse fill="#df0bdf" stroke="black" cx="179.68" cy="-678.69" rx="27.84" ry="18"/>
<text text-anchor="middle" x="179.68" y="-676.19" font-family="Helvetica,sans-Serif" font-size="10.00" fill="#ffffff">urllib3</text>
</g>
<!-- urllib3&#45;&gt;requests -->
<g id="edge24" class="edge">
<title>urllib3&#45;&gt;requests</title><style>.edge>path:hover{stroke-width:8}</style>
<path fill="none" stroke="black" d="M169.48,-661.75C161.51,-647.13 153.11,-625.15 161.68,-607.69"/>
<path fill="none" stroke="black" d="M161.68,-605.69C176.03,-576.48 145.47,-560.69 161.68,-532.48"/>
</g>
<!-- urllib3&#45;&gt;requests_exceptions -->
<g id="edge25" class="edge">
<title>urllib3&#45;&gt;requests_exceptions</title><style>.edge>path:hover{stroke-width:8}</style>
<path fill="none" stroke="black" d="M161.68,-605.69C197.77,-533.35 258.52,-576.82 335.68,-552.69 340.49,-551.18 345.5,-549.6 350.51,-548.01"/>
<polygon fill="#df0bdf" stroke="black" points="351.6,-551.34 360.06,-544.97 349.47,-544.67 351.6,-551.34"/>
</g>
<!-- urllib3&#45;&gt;requests_models -->
<g id="edge26" class="edge">
<title>urllib3&#45;&gt;requests_models</title><style>.edge>path:hover{stroke-width:8}</style>
<path fill="none" stroke="black" d="M161.68,-605.69C220.81,-486.32 371.22,-654.87 456.68,-552.69 486.72,-516.77 443.98,-494.08 419.68,-454.05"/>
<path fill="none" stroke="black" d="M419.68,-452.05C409.6,-434.89 407.09,-412.42 406.97,-395"/>
<polygon fill="#df0bdf" stroke="black" points="410.47,-394.97 407.16,-384.91 403.47,-394.84 410.47,-394.97"/>
</g>
<!-- urllib3&#45;&gt;requests_utils -->
<g id="edge27" class="edge">
<title>urllib3&#45;&gt;requests_utils</title><style>.edge>path:hover{stroke-width:8}</style>
<path fill="none" stroke="black" d="M161.68,-605.69C191.57,-545.78 262.11,-605.94 302.68,-552.69 318.02,-532.56 318.7,-502.99 316.5,-481.47"/>
<polygon fill="#df0bdf" stroke="black" points="319.95,-480.81 315.2,-471.34 313,-481.71 319.95,-480.81"/>
</g>
<!-- urllib3_contrib -->
<g id="node15" class="node">
<title>urllib3_contrib</title><style>.edge>path:hover{stroke-width:8}</style>
<ellipse fill="#c247c2" stroke="black" cx="151.68" cy="-753.9" rx="35.21" ry="21.43"/>
<text text-anchor="middle" x="151.68" y="-756.9" font-family="Helvetica,sans-Serif" font-size="10.00" fill="#ffffff">urllib3.</text>
<text text-anchor="middle" x="151.68" y="-745.9" font-family="Helvetica,sans-Serif" font-size="10.00" fill="#ffffff">contrib</text>
</g>
<!-- urllib3_contrib&#45;&gt;requests -->
<g id="edge28" class="edge">
<title>urllib3_contrib&#45;&gt;requests</title><style>.edge>path:hover{stroke-width:8}</style>
<path fill="none" stroke="black" d="M146.84,-732.67C138.22,-691.72 124.38,-597.42 161.68,-532.48"/>
<path fill="none" stroke="black" d="M161.68,-530.48C183.96,-486.64 221.92,-499.08 241.68,-454.05"/>
<path fill="none" stroke="black" d="M241.68,-452.05C272.8,-381.14 274.64,-360.61 290.68,-284.85"/>
</g>
<!-- urllib3_contrib&#45;&gt;urllib3 -->
<g id="edge29" class="edge">
<title>urllib3_contrib&#45;&gt;urllib3</title><style>.edge>path:hover{stroke-width:8}</style>
<path fill="none" stroke="black" d="M159.33,-732.9C162.49,-724.65 166.18,-714.98 169.56,-706.16"/>
<polygon fill="#c247c2" stroke="black" points="172.88,-707.28 173.18,-696.69 166.34,-704.78 172.88,-707.28"/>
</g>
<!-- urllib3_contrib_pyopenssl&#45;&gt;requests -->
<g id="edge30" class="edge">
<title>urllib3_contrib_pyopenssl&#45;&gt;requests</title><style>.edge>path:hover{stroke-width:8}</style>
<path fill="none" stroke="black" d="M235.21,-348.35C258.02,-334.8 284.25,-313.51 290.68,-284.85"/>
</g>
<!-- urllib3_exceptions -->
<g id="node17" class="node">
<title>urllib3_exceptions</title><style>.edge>path:hover{stroke-width:8}</style>
<ellipse fill="#db2fdb" stroke="black" cx="421.68" cy="-753.9" rx="49.49" ry="21.43"/>
<text text-anchor="middle" x="421.68" y="-756.9" font-family="Helvetica,sans-Serif" font-size="10.00" fill="#ffffff">urllib3.</text>
<text text-anchor="middle" x="421.68" y="-745.9" font-family="Helvetica,sans-Serif" font-size="10.00" fill="#ffffff">exceptions</text>
</g>
<!-- urllib3_exceptions&#45;&gt;requests -->
<g id="edge31" class="edge">
<title>urllib3_exceptions&#45;&gt;requests</title><style>.edge>path:hover{stroke-width:8}</style>
<path fill="none" stroke="black" d="M589.68,-530.48C571.77,-489.58 584.14,-474.41 570.68,-431.84 549.1,-363.56 511.28,-356.16 504.68,-284.85"/>
</g>
<!-- urllib3_exceptions&#45;&gt;requests_exceptions -->
<g id="edge32" class="edge">
<title>urllib3_exceptions&#45;&gt;requests_exceptions</title><style>.edge>path:hover{stroke-width:8}</style>
<path fill="none" stroke="black" d="M460.47,-740.39C519.22,-719.11 620.82,-671.85 589.68,-607.69"/>
<path fill="none" stroke="black" d="M589.68,-605.69C572.45,-554.17 507.62,-538.08 458.22,-533.47"/>
<polygon fill="#db2fdb" stroke="black" points="458.5,-529.98 448.26,-532.68 457.95,-536.96 458.5,-529.98"/>
</g>
<!-- urllib3_exceptions&#45;&gt;requests_models -->
<g id="edge33" class="edge">
<title>urllib3_exceptions&#45;&gt;requests_models</title><style>.edge>path:hover{stroke-width:8}</style>
<path fill="none" stroke="black" d="M589.68,-605.69C579.36,-574.83 602.74,-562.28 589.68,-532.48"/>
<path fill="none" stroke="black" d="M589.68,-530.48C556.45,-454.59 461.67,-525.46 419.68,-454.05"/>
</g>
<!-- urllib3_exceptions&#45;&gt;urllib3 -->
<g id="edge34" class="edge">
<title>urllib3_exceptions&#45;&gt;urllib3</title><style>.edge>path:hover{stroke-width:8}</style>
<path fill="none" stroke="black" d="M382.26,-740.98C335.54,-726.84 258.45,-703.52 214.06,-690.09"/>
<polygon fill="#db2fdb" stroke="black" points="214.89,-686.68 204.31,-687.14 212.87,-693.38 214.89,-686.68"/>
</g>
</g>
</svg>
