<?xml version="1.0" encoding="UTF-8" standalone="no"?>
<!DOCTYPE svg PUBLIC "-//W3C//DTD SVG 1.1//EN"
 "http://www.w3.org/Graphics/SVG/1.1/DTD/svg11.dtd">
<!-- Generated by graphviz version 2.43.0 (0)
 -->
<!-- Title: G Pages: 1 -->
<svg width="182pt" height="238pt"
 viewBox="0.00 0.00 181.95 237.85" xmlns="http://www.w3.org/2000/svg" xmlns:xlink="http://www.w3.org/1999/xlink">
<g id="graph0" class="graph" transform="scale(1 1) rotate(0) translate(4 233.85)">
<title>G</title><style>.edge>path:hover{stroke-width:8}</style>
<polygon fill="white" stroke="transparent" points="-4,4 -4,-233.85 177.95,-233.85 177.95,4 -4,4"/>
<!-- ast2json -->
<g id="node1" class="node">
<title>ast2json</title><style>.edge>path:hover{stroke-width:8}</style>
<ellipse fill="#b34c4c" stroke="black" cx="86.97" cy="-133.43" rx="34.29" ry="18"/>
<text text-anchor="middle" x="86.97" y="-130.93" font-family="Helvetica,sans-Serif" font-size="10.00" fill="#ffffff">ast2json</text>
</g>
<!-- round_trip_validation_py -->
<g id="node3" class="node">
<title>round_trip_validation_py</title><style>.edge>path:hover{stroke-width:8}</style>
<ellipse fill="#59a6a6" stroke="black" cx="86.97" cy="-21.21" rx="86.95" ry="21.43"/>
<text text-anchor="middle" x="86.97" y="-24.21" font-family="Helvetica,sans-Serif" font-size="10.00" fill="#000000">round_trip_validation.</text>
<text text-anchor="middle" x="86.97" y="-13.21" font-family="Helvetica,sans-Serif" font-size="10.00" fill="#000000">py</text>
</g>
<!-- ast2json&#45;&gt;round_trip_validation_py -->
<g id="edge1" class="edge">
<title>ast2json&#45;&gt;round_trip_validation_py</title><style>.edge>path:hover{stroke-width:8}</style>
<path fill="none" stroke="black" d="M86.97,-115.21C86.97,-98.58 86.97,-73.03 86.97,-52.92"/>
<polygon fill="#b34c4c" stroke="black" points="90.47,-52.69 86.97,-42.69 83.47,-52.69 90.47,-52.69"/>
</g>
<!-- ast2json_ast2json -->
<g id="node2" class="node">
<title>ast2json_ast2json</title><style>.edge>path:hover{stroke-width:8}</style>
<ellipse fill="#b65353" stroke="black" cx="86.97" cy="-208.64" rx="43.27" ry="21.43"/>
<text text-anchor="middle" x="86.97" y="-211.64" font-family="Helvetica,sans-Serif" font-size="10.00" fill="#ffffff">ast2json.</text>
<text text-anchor="middle" x="86.97" y="-200.64" font-family="Helvetica,sans-Serif" font-size="10.00" fill="#ffffff">ast2json</text>
</g>
<!-- ast2json_ast2json&#45;&gt;ast2json -->
<g id="edge2" class="edge">
<title>ast2json_ast2json&#45;&gt;ast2json</title><style>.edge>path:hover{stroke-width:8}</style>
<path fill="none" stroke="black" d="M86.97,-187.25C86.97,-179.39 86.97,-170.29 86.97,-161.88"/>
<polygon fill="#b65353" stroke="black" points="90.47,-161.74 86.97,-151.74 83.47,-161.74 90.47,-161.74"/>
</g>
</g>
</svg>
