<?xml version="1.0" encoding="UTF-8" standalone="no"?>
<!DOCTYPE svg PUBLIC "-//W3C//DTD SVG 1.1//EN"
 "http://www.w3.org/Graphics/SVG/1.1/DTD/svg11.dtd">
<!-- Generated by graphviz version 2.43.0 (0)
 -->
<!-- Title: G Pages: 1 -->
<svg width="325pt" height="552pt"
 viewBox="0.00 0.00 324.99 552.37" xmlns="http://www.w3.org/2000/svg" xmlns:xlink="http://www.w3.org/1999/xlink">
<g id="graph0" class="graph" transform="scale(1 1) rotate(0) translate(4 548.37)">
<title>G</title><style>.edge>path:hover{stroke-width:8}</style>
<polygon fill="white" stroke="transparent" points="-4,4 -4,-548.37 320.99,-548.37 320.99,4 -4,4"/>
<!-- src -->
<g id="node1" class="node">
<title>src</title><style>.edge>path:hover{stroke-width:8}</style>
<ellipse fill="#b65353" stroke="black" cx="27" cy="-136.64" rx="27" ry="18"/>
<text text-anchor="middle" x="27" y="-134.14" font-family="Helvetica,sans-Serif" font-size="10.00" fill="#ffffff">src</text>
</g>
<!-- workflow_analyzer_py -->
<g id="node5" class="node">
<title>workflow_analyzer_py</title><style>.edge>path:hover{stroke-width:8}</style>
<ellipse fill="#4e924e" stroke="black" cx="174" cy="-21.21" rx="77.56" ry="21.43"/>
<text text-anchor="middle" x="174" y="-24.21" font-family="Helvetica,sans-Serif" font-size="10.00" fill="#ffffff">workflow_analyzer.</text>
<text text-anchor="middle" x="174" y="-13.21" font-family="Helvetica,sans-Serif" font-size="10.00" fill="#ffffff">py</text>
</g>
<!-- src&#45;&gt;workflow_analyzer_py -->
<g id="edge1" class="edge">
<title>src&#45;&gt;workflow_analyzer_py</title><style>.edge>path:hover{stroke-width:8}</style>
<path fill="none" stroke="black" d="M46.45,-123.8C51.71,-120.85 57.48,-117.84 63,-115.43 110.51,-94.63 156.2,-128.14 174,-79.43"/>
<path fill="none" stroke="black" d="M174,-78.43C176.95,-70.35 177.87,-61.16 177.81,-52.6"/>
<polygon fill="#b65353" stroke="black" points="181.3,-52.39 177.31,-42.57 174.31,-52.73 181.3,-52.39"/>
</g>
<!-- src_artifact_forge -->
<g id="node2" class="node">
<title>src_artifact_forge</title><style>.edge>path:hover{stroke-width:8}</style>
<ellipse fill="#b65353" stroke="black" cx="131" cy="-136.64" rx="58.88" ry="21.43"/>
<text text-anchor="middle" x="131" y="-139.64" font-family="Helvetica,sans-Serif" font-size="10.00" fill="#ffffff">src.</text>
<text text-anchor="middle" x="131" y="-128.64" font-family="Helvetica,sans-Serif" font-size="10.00" fill="#ffffff">artifact_forge</text>
</g>
<!-- src_artifact_forge&#45;&gt;workflow_analyzer_py -->
<g id="edge2" class="edge">
<title>src_artifact_forge&#45;&gt;workflow_analyzer_py</title><style>.edge>path:hover{stroke-width:8}</style>
<path fill="none" stroke="black" d="M150.45,-116.37C159.34,-106.27 168.98,-93.16 174,-79.43"/>
</g>
<!-- src_artifact_forge_agents -->
<g id="node3" class="node">
<title>src_artifact_forge_agents</title><style>.edge>path:hover{stroke-width:8}</style>
<ellipse fill="#b65353" stroke="black" cx="129" cy="-222.84" rx="60.62" ry="28.98"/>
<text text-anchor="middle" x="129" y="-231.34" font-family="Helvetica,sans-Serif" font-size="10.00" fill="#ffffff">src.</text>
<text text-anchor="middle" x="129" y="-220.34" font-family="Helvetica,sans-Serif" font-size="10.00" fill="#ffffff">artifact_forge.</text>
<text text-anchor="middle" x="129" y="-209.34" font-family="Helvetica,sans-Serif" font-size="10.00" fill="#ffffff">agents</text>
</g>
<!-- src_artifact_forge_agents&#45;&gt;workflow_analyzer_py -->
<g id="edge3" class="edge">
<title>src_artifact_forge_agents&#45;&gt;workflow_analyzer_py</title><style>.edge>path:hover{stroke-width:8}</style>
<path fill="none" stroke="black" d="M171.8,-202.21C195.8,-187.94 220.5,-166.14 218,-137.64"/>
<path fill="none" stroke="black" d="M218,-135.64C215.23,-104.03 163.11,-109.23 174,-79.43"/>
</g>
<!-- src_artifact_forge_agents_artifact_parser_enhanced -->
<g id="node4" class="node">
<title>src_artifact_forge_agents_artifact_parser_enhanced</title><style>.edge>path:hover{stroke-width:8}</style>
<ellipse fill="#b34c4c" stroke="black" cx="218" cy="-324.61" rx="98.99" ry="36.54"/>
<text text-anchor="middle" x="218" y="-338.61" font-family="Helvetica,sans-Serif" font-size="10.00" fill="#ffffff">src.</text>
<text text-anchor="middle" x="218" y="-327.61" font-family="Helvetica,sans-Serif" font-size="10.00" fill="#ffffff">artifact_forge.</text>
<text text-anchor="middle" x="218" y="-316.61" font-family="Helvetica,sans-Serif" font-size="10.00" fill="#ffffff">agents.</text>
<text text-anchor="middle" x="218" y="-305.61" font-family="Helvetica,sans-Serif" font-size="10.00" fill="#ffffff">artifact_parser_enhanced</text>
</g>
<!-- src_artifact_forge_agents_artifact_parser_enhanced&#45;&gt;workflow_analyzer_py -->
<g id="edge4" class="edge">
<title>src_artifact_forge_agents_artifact_parser_enhanced&#45;&gt;workflow_analyzer_py</title><style>.edge>path:hover{stroke-width:8}</style>
<path fill="none" stroke="black" d="M219.86,-287.53C221.36,-250 222.55,-189.58 218,-137.64"/>
</g>
<!-- yaml -->
<g id="node6" class="node">
<title>yaml</title><style>.edge>path:hover{stroke-width:8}</style>
<ellipse fill="#5353b6" stroke="black" cx="218" cy="-526.37" rx="27" ry="18"/>
<text text-anchor="middle" x="218" y="-523.87" font-family="Helvetica,sans-Serif" font-size="10.00" fill="#ffffff">yaml</text>
</g>
<!-- yaml&#45;&gt;src_artifact_forge_agents_artifact_parser_enhanced -->
<g id="edge5" class="edge">
<title>yaml&#45;&gt;src_artifact_forge_agents_artifact_parser_enhanced</title><style>.edge>path:hover{stroke-width:8}</style>
<path fill="none" stroke="black" d="M218,-508.34C218,-478.38 218,-415.29 218,-371.69"/>
<polygon fill="#5353b6" stroke="black" points="221.5,-371.61 218,-361.61 214.5,-371.61 221.5,-371.61"/>
</g>
</g>
</svg>
