<?xml version="1.0" encoding="UTF-8" standalone="no"?>
<!DOCTYPE svg PUBLIC "-//W3C//DTD SVG 1.1//EN"
 "http://www.w3.org/Graphics/SVG/1.1/DTD/svg11.dtd">
<!-- Generated by graphviz version 2.43.0 (0)
 -->
<!-- Title: G Pages: 1 -->
<svg width="3479pt" height="2852pt"
 viewBox="0.00 0.00 3479.45 2852.00" xmlns="http://www.w3.org/2000/svg" xmlns:xlink="http://www.w3.org/1999/xlink">
<g id="graph0" class="graph" transform="scale(1 1) rotate(0) translate(4 2848)">
<title>G</title>
<polygon fill="white" stroke="transparent" points="-4,4 -4,-2848 3475.45,-2848 3475.45,4 -4,4"/>
<!-- start_1 -->
<g id="node1" class="node">
<title>start_1</title>
<ellipse fill="lightgreen" stroke="black" cx="34.45" cy="-2826" rx="34.39" ry="18"/>
<text text-anchor="middle" x="34.45" y="-2822.3" font-family="Times,serif" font-size="14.00">Start</text>
</g>
<!-- stop_2 -->
<g id="node2" class="node">
<title>stop_2</title>
<ellipse fill="lightcoral" stroke="black" cx="119.45" cy="-2826" rx="32.49" ry="18"/>
<text text-anchor="middle" x="119.45" y="-2822.3" font-family="Times,serif" font-size="14.00">Stop</text>
</g>
<!-- start_3 -->
<g id="node3" class="node">
<title>start_3</title>
<ellipse fill="lightgreen" stroke="black" cx="204.45" cy="-2826" rx="34.39" ry="18"/>
<text text-anchor="middle" x="204.45" y="-2822.3" font-family="Times,serif" font-size="14.00">Start</text>
</g>
<!-- stop_4 -->
<g id="node4" class="node">
<title>stop_4</title>
<ellipse fill="lightcoral" stroke="black" cx="289.45" cy="-2826" rx="32.49" ry="18"/>
<text text-anchor="middle" x="289.45" y="-2822.3" font-family="Times,serif" font-size="14.00">Stop</text>
</g>
<!-- start_5 -->
<g id="node5" class="node">
<title>start_5</title>
<ellipse fill="lightgreen" stroke="black" cx="374.45" cy="-2826" rx="34.39" ry="18"/>
<text text-anchor="middle" x="374.45" y="-2822.3" font-family="Times,serif" font-size="14.00">Start</text>
</g>
<!-- stop_6 -->
<g id="node6" class="node">
<title>stop_6</title>
<ellipse fill="lightcoral" stroke="black" cx="459.45" cy="-2826" rx="32.49" ry="18"/>
<text text-anchor="middle" x="459.45" y="-2822.3" font-family="Times,serif" font-size="14.00">Stop</text>
</g>
<!-- start_7 -->
<g id="node7" class="node">
<title>start_7</title>
<ellipse fill="lightgreen" stroke="black" cx="544.45" cy="-2826" rx="34.39" ry="18"/>
<text text-anchor="middle" x="544.45" y="-2822.3" font-family="Times,serif" font-size="14.00">Start</text>
</g>
<!-- stop_8 -->
<g id="node8" class="node">
<title>stop_8</title>
<ellipse fill="lightcoral" stroke="black" cx="629.45" cy="-2826" rx="32.49" ry="18"/>
<text text-anchor="middle" x="629.45" y="-2822.3" font-family="Times,serif" font-size="14.00">Stop</text>
</g>
<!-- start_9 -->
<g id="node9" class="node">
<title>start_9</title>
<ellipse fill="lightgreen" stroke="black" cx="714.45" cy="-2826" rx="34.39" ry="18"/>
<text text-anchor="middle" x="714.45" y="-2822.3" font-family="Times,serif" font-size="14.00">Start</text>
</g>
<!-- stop_10 -->
<g id="node10" class="node">
<title>stop_10</title>
<ellipse fill="lightcoral" stroke="black" cx="799.45" cy="-2826" rx="32.49" ry="18"/>
<text text-anchor="middle" x="799.45" y="-2822.3" font-family="Times,serif" font-size="14.00">Stop</text>
</g>
<!-- start_11 -->
<g id="node11" class="node">
<title>start_11</title>
<ellipse fill="lightgreen" stroke="black" cx="884.45" cy="-2826" rx="34.39" ry="18"/>
<text text-anchor="middle" x="884.45" y="-2822.3" font-family="Times,serif" font-size="14.00">Start</text>
</g>
<!-- stop_12 -->
<g id="node12" class="node">
<title>stop_12</title>
<ellipse fill="lightcoral" stroke="black" cx="969.45" cy="-2826" rx="32.49" ry="18"/>
<text text-anchor="middle" x="969.45" y="-2822.3" font-family="Times,serif" font-size="14.00">Stop</text>
</g>
<!-- start_13 -->
<g id="node13" class="node">
<title>start_13</title>
<ellipse fill="lightgreen" stroke="black" cx="1054.45" cy="-2826" rx="34.39" ry="18"/>
<text text-anchor="middle" x="1054.45" y="-2822.3" font-family="Times,serif" font-size="14.00">Start</text>
</g>
<!-- stop_14 -->
<g id="node14" class="node">
<title>stop_14</title>
<ellipse fill="lightcoral" stroke="black" cx="1139.45" cy="-2826" rx="32.49" ry="18"/>
<text text-anchor="middle" x="1139.45" y="-2822.3" font-family="Times,serif" font-size="14.00">Stop</text>
</g>
<!-- start_15 -->
<g id="node15" class="node">
<title>start_15</title>
<ellipse fill="lightgreen" stroke="black" cx="1224.45" cy="-2826" rx="34.39" ry="18"/>
<text text-anchor="middle" x="1224.45" y="-2822.3" font-family="Times,serif" font-size="14.00">Start</text>
</g>
<!-- stop_16 -->
<g id="node16" class="node">
<title>stop_16</title>
<ellipse fill="lightcoral" stroke="black" cx="1309.45" cy="-2826" rx="32.49" ry="18"/>
<text text-anchor="middle" x="1309.45" y="-2822.3" font-family="Times,serif" font-size="14.00">Stop</text>
</g>
<!-- start_17 -->
<g id="node17" class="node">
<title>start_17</title>
<ellipse fill="lightgreen" stroke="black" cx="1394.45" cy="-2826" rx="34.39" ry="18"/>
<text text-anchor="middle" x="1394.45" y="-2822.3" font-family="Times,serif" font-size="14.00">Start</text>
</g>
<!-- stop_18 -->
<g id="node18" class="node">
<title>stop_18</title>
<ellipse fill="lightcoral" stroke="black" cx="1479.45" cy="-2826" rx="32.49" ry="18"/>
<text text-anchor="middle" x="1479.45" y="-2822.3" font-family="Times,serif" font-size="14.00">Stop</text>
</g>
<!-- start_19 -->
<g id="node19" class="node">
<title>start_19</title>
<ellipse fill="lightgreen" stroke="black" cx="1564.45" cy="-2826" rx="34.39" ry="18"/>
<text text-anchor="middle" x="1564.45" y="-2822.3" font-family="Times,serif" font-size="14.00">Start</text>
</g>
<!-- stop_20 -->
<g id="node20" class="node">
<title>stop_20</title>
<ellipse fill="lightcoral" stroke="black" cx="1649.45" cy="-2826" rx="32.49" ry="18"/>
<text text-anchor="middle" x="1649.45" y="-2822.3" font-family="Times,serif" font-size="14.00">Stop</text>
</g>
<!-- start_21 -->
<g id="node21" class="node">
<title>start_21</title>
<ellipse fill="lightgreen" stroke="black" cx="1734.45" cy="-2826" rx="34.39" ry="18"/>
<text text-anchor="middle" x="1734.45" y="-2822.3" font-family="Times,serif" font-size="14.00">Start</text>
</g>
<!-- stop_22 -->
<g id="node22" class="node">
<title>stop_22</title>
<ellipse fill="lightcoral" stroke="black" cx="1819.45" cy="-2826" rx="32.49" ry="18"/>
<text text-anchor="middle" x="1819.45" y="-2822.3" font-family="Times,serif" font-size="14.00">Stop</text>
</g>
<!-- start_23 -->
<g id="node23" class="node">
<title>start_23</title>
<ellipse fill="lightgreen" stroke="black" cx="1904.45" cy="-2826" rx="34.39" ry="18"/>
<text text-anchor="middle" x="1904.45" y="-2822.3" font-family="Times,serif" font-size="14.00">Start</text>
</g>
<!-- stop_24 -->
<g id="node24" class="node">
<title>stop_24</title>
<ellipse fill="lightcoral" stroke="black" cx="1989.45" cy="-2826" rx="32.49" ry="18"/>
<text text-anchor="middle" x="1989.45" y="-2822.3" font-family="Times,serif" font-size="14.00">Stop</text>
</g>
<!-- start_25 -->
<g id="node25" class="node">
<title>start_25</title>
<ellipse fill="lightgreen" stroke="black" cx="2074.45" cy="-2826" rx="34.39" ry="18"/>
<text text-anchor="middle" x="2074.45" y="-2822.3" font-family="Times,serif" font-size="14.00">Start</text>
</g>
<!-- stop_26 -->
<g id="node26" class="node">
<title>stop_26</title>
<ellipse fill="lightcoral" stroke="black" cx="2159.45" cy="-2826" rx="32.49" ry="18"/>
<text text-anchor="middle" x="2159.45" y="-2822.3" font-family="Times,serif" font-size="14.00">Stop</text>
</g>
<!-- start_27 -->
<g id="node27" class="node">
<title>start_27</title>
<ellipse fill="lightgreen" stroke="black" cx="2244.45" cy="-2826" rx="34.39" ry="18"/>
<text text-anchor="middle" x="2244.45" y="-2822.3" font-family="Times,serif" font-size="14.00">Start</text>
</g>
<!-- stop_28 -->
<g id="node28" class="node">
<title>stop_28</title>
<ellipse fill="lightcoral" stroke="black" cx="2329.45" cy="-2826" rx="32.49" ry="18"/>
<text text-anchor="middle" x="2329.45" y="-2822.3" font-family="Times,serif" font-size="14.00">Stop</text>
</g>
<!-- start_29 -->
<g id="node29" class="node">
<title>start_29</title>
<ellipse fill="lightgreen" stroke="black" cx="2414.45" cy="-2826" rx="34.39" ry="18"/>
<text text-anchor="middle" x="2414.45" y="-2822.3" font-family="Times,serif" font-size="14.00">Start</text>
</g>
<!-- stop_30 -->
<g id="node30" class="node">
<title>stop_30</title>
<ellipse fill="lightcoral" stroke="black" cx="2499.45" cy="-2826" rx="32.49" ry="18"/>
<text text-anchor="middle" x="2499.45" y="-2822.3" font-family="Times,serif" font-size="14.00">Stop</text>
</g>
<!-- start_31 -->
<g id="node31" class="node">
<title>start_31</title>
<ellipse fill="lightgreen" stroke="black" cx="2584.45" cy="-2826" rx="34.39" ry="18"/>
<text text-anchor="middle" x="2584.45" y="-2822.3" font-family="Times,serif" font-size="14.00">Start</text>
</g>
<!-- stop_32 -->
<g id="node32" class="node">
<title>stop_32</title>
<ellipse fill="lightcoral" stroke="black" cx="2669.45" cy="-2826" rx="32.49" ry="18"/>
<text text-anchor="middle" x="2669.45" y="-2822.3" font-family="Times,serif" font-size="14.00">Stop</text>
</g>
<!-- start_33 -->
<g id="node33" class="node">
<title>start_33</title>
<ellipse fill="lightgreen" stroke="black" cx="2754.45" cy="-2826" rx="34.39" ry="18"/>
<text text-anchor="middle" x="2754.45" y="-2822.3" font-family="Times,serif" font-size="14.00">Start</text>
</g>
<!-- stop_34 -->
<g id="node34" class="node">
<title>stop_34</title>
<ellipse fill="lightcoral" stroke="black" cx="2839.45" cy="-2826" rx="32.49" ry="18"/>
<text text-anchor="middle" x="2839.45" y="-2822.3" font-family="Times,serif" font-size="14.00">Stop</text>
</g>
<!-- start_35 -->
<g id="node35" class="node">
<title>start_35</title>
<ellipse fill="lightgreen" stroke="black" cx="2924.45" cy="-2826" rx="34.39" ry="18"/>
<text text-anchor="middle" x="2924.45" y="-2822.3" font-family="Times,serif" font-size="14.00">Start</text>
</g>
<!-- stop_36 -->
<g id="node36" class="node">
<title>stop_36</title>
<ellipse fill="lightcoral" stroke="black" cx="3009.45" cy="-2826" rx="32.49" ry="18"/>
<text text-anchor="middle" x="3009.45" y="-2822.3" font-family="Times,serif" font-size="14.00">Stop</text>
</g>
<!-- start_37 -->
<g id="node37" class="node">
<title>start_37</title>
<ellipse fill="lightgreen" stroke="black" cx="3094.45" cy="-2826" rx="34.39" ry="18"/>
<text text-anchor="middle" x="3094.45" y="-2822.3" font-family="Times,serif" font-size="14.00">Start</text>
</g>
<!-- stop_38 -->
<g id="node38" class="node">
<title>stop_38</title>
<ellipse fill="lightcoral" stroke="black" cx="3179.45" cy="-2826" rx="32.49" ry="18"/>
<text text-anchor="middle" x="3179.45" y="-2822.3" font-family="Times,serif" font-size="14.00">Stop</text>
</g>
<!-- start_39 -->
<g id="node39" class="node">
<title>start_39</title>
<ellipse fill="lightgreen" stroke="black" cx="3264.45" cy="-2826" rx="34.39" ry="18"/>
<text text-anchor="middle" x="3264.45" y="-2822.3" font-family="Times,serif" font-size="14.00">Start</text>
</g>
<!-- stop_40 -->
<g id="node40" class="node">
<title>stop_40</title>
<ellipse fill="lightcoral" stroke="black" cx="3349.45" cy="-2826" rx="32.49" ry="18"/>
<text text-anchor="middle" x="3349.45" y="-2822.3" font-family="Times,serif" font-size="14.00">Stop</text>
</g>
<!-- node_1 -->
<g id="node41" class="node">
<title>node_1</title>
<polygon fill="lightblue" stroke="black" points="3466.95,-2844 3399.95,-2844 3399.95,-2808 3466.95,-2808 3466.95,-2844"/>
<text text-anchor="middle" x="3433.45" y="-2822.3" font-family="Times,serif" font-size="14.00">node_1</text>
</g>
<!-- node_2 -->
<g id="node42" class="node">
<title>node_2</title>
<polygon fill="lightblue" stroke="black" points="3466.95,-2772 3399.95,-2772 3399.95,-2736 3466.95,-2736 3466.95,-2772"/>
<text text-anchor="middle" x="3433.45" y="-2750.3" font-family="Times,serif" font-size="14.00">node_2</text>
</g>
<!-- node_1&#45;&gt;node_2 -->
<g id="edge1" class="edge">
<title>node_1&#45;&gt;node_2</title>
<path fill="none" stroke="black" d="M3433.45,-2807.7C3433.45,-2799.98 3433.45,-2790.71 3433.45,-2782.11"/>
<polygon fill="black" stroke="black" points="3436.95,-2782.1 3433.45,-2772.1 3429.95,-2782.1 3436.95,-2782.1"/>
</g>
<!-- node_3 -->
<g id="node43" class="node">
<title>node_3</title>
<polygon fill="lightblue" stroke="black" points="3466.95,-2700 3399.95,-2700 3399.95,-2664 3466.95,-2664 3466.95,-2700"/>
<text text-anchor="middle" x="3433.45" y="-2678.3" font-family="Times,serif" font-size="14.00">node_3</text>
</g>
<!-- node_2&#45;&gt;node_3 -->
<g id="edge2" class="edge">
<title>node_2&#45;&gt;node_3</title>
<path fill="none" stroke="black" d="M3433.45,-2735.7C3433.45,-2727.98 3433.45,-2718.71 3433.45,-2710.11"/>
<polygon fill="black" stroke="black" points="3436.95,-2710.1 3433.45,-2700.1 3429.95,-2710.1 3436.95,-2710.1"/>
</g>
<!-- node_4 -->
<g id="node44" class="node">
<title>node_4</title>
<polygon fill="lightblue" stroke="black" points="3466.95,-2628 3399.95,-2628 3399.95,-2592 3466.95,-2592 3466.95,-2628"/>
<text text-anchor="middle" x="3433.45" y="-2606.3" font-family="Times,serif" font-size="14.00">node_4</text>
</g>
<!-- node_3&#45;&gt;node_4 -->
<g id="edge3" class="edge">
<title>node_3&#45;&gt;node_4</title>
<path fill="none" stroke="black" d="M3433.45,-2663.7C3433.45,-2655.98 3433.45,-2646.71 3433.45,-2638.11"/>
<polygon fill="black" stroke="black" points="3436.95,-2638.1 3433.45,-2628.1 3429.95,-2638.1 3436.95,-2638.1"/>
</g>
<!-- node_5 -->
<g id="node45" class="node">
<title>node_5</title>
<polygon fill="lightblue" stroke="black" points="3466.95,-2556 3399.95,-2556 3399.95,-2520 3466.95,-2520 3466.95,-2556"/>
<text text-anchor="middle" x="3433.45" y="-2534.3" font-family="Times,serif" font-size="14.00">node_5</text>
</g>
<!-- node_4&#45;&gt;node_5 -->
<g id="edge4" class="edge">
<title>node_4&#45;&gt;node_5</title>
<path fill="none" stroke="black" d="M3433.45,-2591.7C3433.45,-2583.98 3433.45,-2574.71 3433.45,-2566.11"/>
<polygon fill="black" stroke="black" points="3436.95,-2566.1 3433.45,-2556.1 3429.95,-2566.1 3436.95,-2566.1"/>
</g>
<!-- node_6 -->
<g id="node46" class="node">
<title>node_6</title>
<polygon fill="lightblue" stroke="black" points="3466.95,-2484 3399.95,-2484 3399.95,-2448 3466.95,-2448 3466.95,-2484"/>
<text text-anchor="middle" x="3433.45" y="-2462.3" font-family="Times,serif" font-size="14.00">node_6</text>
</g>
<!-- node_5&#45;&gt;node_6 -->
<g id="edge5" class="edge">
<title>node_5&#45;&gt;node_6</title>
<path fill="none" stroke="black" d="M3433.45,-2519.7C3433.45,-2511.98 3433.45,-2502.71 3433.45,-2494.11"/>
<polygon fill="black" stroke="black" points="3436.95,-2494.1 3433.45,-2484.1 3429.95,-2494.1 3436.95,-2494.1"/>
</g>
<!-- node_7 -->
<g id="node47" class="node">
<title>node_7</title>
<polygon fill="lightblue" stroke="black" points="3466.95,-2412 3399.95,-2412 3399.95,-2376 3466.95,-2376 3466.95,-2412"/>
<text text-anchor="middle" x="3433.45" y="-2390.3" font-family="Times,serif" font-size="14.00">node_7</text>
</g>
<!-- node_6&#45;&gt;node_7 -->
<g id="edge6" class="edge">
<title>node_6&#45;&gt;node_7</title>
<path fill="none" stroke="black" d="M3433.45,-2447.7C3433.45,-2439.98 3433.45,-2430.71 3433.45,-2422.11"/>
<polygon fill="black" stroke="black" points="3436.95,-2422.1 3433.45,-2412.1 3429.95,-2422.1 3436.95,-2422.1"/>
</g>
<!-- node_8 -->
<g id="node48" class="node">
<title>node_8</title>
<polygon fill="lightblue" stroke="black" points="3466.95,-2340 3399.95,-2340 3399.95,-2304 3466.95,-2304 3466.95,-2340"/>
<text text-anchor="middle" x="3433.45" y="-2318.3" font-family="Times,serif" font-size="14.00">node_8</text>
</g>
<!-- node_7&#45;&gt;node_8 -->
<g id="edge7" class="edge">
<title>node_7&#45;&gt;node_8</title>
<path fill="none" stroke="black" d="M3433.45,-2375.7C3433.45,-2367.98 3433.45,-2358.71 3433.45,-2350.11"/>
<polygon fill="black" stroke="black" points="3436.95,-2350.1 3433.45,-2340.1 3429.95,-2350.1 3436.95,-2350.1"/>
</g>
<!-- node_9 -->
<g id="node49" class="node">
<title>node_9</title>
<polygon fill="lightblue" stroke="black" points="3466.95,-2268 3399.95,-2268 3399.95,-2232 3466.95,-2232 3466.95,-2268"/>
<text text-anchor="middle" x="3433.45" y="-2246.3" font-family="Times,serif" font-size="14.00">node_9</text>
</g>
<!-- node_8&#45;&gt;node_9 -->
<g id="edge8" class="edge">
<title>node_8&#45;&gt;node_9</title>
<path fill="none" stroke="black" d="M3433.45,-2303.7C3433.45,-2295.98 3433.45,-2286.71 3433.45,-2278.11"/>
<polygon fill="black" stroke="black" points="3436.95,-2278.1 3433.45,-2268.1 3429.95,-2278.1 3436.95,-2278.1"/>
</g>
<!-- node_10 -->
<g id="node50" class="node">
<title>node_10</title>
<polygon fill="lightblue" stroke="black" points="3471.45,-2196 3395.45,-2196 3395.45,-2160 3471.45,-2160 3471.45,-2196"/>
<text text-anchor="middle" x="3433.45" y="-2174.3" font-family="Times,serif" font-size="14.00">node_10</text>
</g>
<!-- node_9&#45;&gt;node_10 -->
<g id="edge9" class="edge">
<title>node_9&#45;&gt;node_10</title>
<path fill="none" stroke="black" d="M3433.45,-2231.7C3433.45,-2223.98 3433.45,-2214.71 3433.45,-2206.11"/>
<polygon fill="black" stroke="black" points="3436.95,-2206.1 3433.45,-2196.1 3429.95,-2206.1 3436.95,-2206.1"/>
</g>
<!-- node_11 -->
<g id="node51" class="node">
<title>node_11</title>
<polygon fill="lightblue" stroke="black" points="3471.45,-2124 3395.45,-2124 3395.45,-2088 3471.45,-2088 3471.45,-2124"/>
<text text-anchor="middle" x="3433.45" y="-2102.3" font-family="Times,serif" font-size="14.00">node_11</text>
</g>
<!-- node_10&#45;&gt;node_11 -->
<g id="edge10" class="edge">
<title>node_10&#45;&gt;node_11</title>
<path fill="none" stroke="black" d="M3433.45,-2159.7C3433.45,-2151.98 3433.45,-2142.71 3433.45,-2134.11"/>
<polygon fill="black" stroke="black" points="3436.95,-2134.1 3433.45,-2124.1 3429.95,-2134.1 3436.95,-2134.1"/>
</g>
<!-- node_12 -->
<g id="node52" class="node">
<title>node_12</title>
<polygon fill="lightblue" stroke="black" points="3471.45,-2052 3395.45,-2052 3395.45,-2016 3471.45,-2016 3471.45,-2052"/>
<text text-anchor="middle" x="3433.45" y="-2030.3" font-family="Times,serif" font-size="14.00">node_12</text>
</g>
<!-- node_11&#45;&gt;node_12 -->
<g id="edge11" class="edge">
<title>node_11&#45;&gt;node_12</title>
<path fill="none" stroke="black" d="M3433.45,-2087.7C3433.45,-2079.98 3433.45,-2070.71 3433.45,-2062.11"/>
<polygon fill="black" stroke="black" points="3436.95,-2062.1 3433.45,-2052.1 3429.95,-2062.1 3436.95,-2062.1"/>
</g>
<!-- node_13 -->
<g id="node53" class="node">
<title>node_13</title>
<polygon fill="lightblue" stroke="black" points="3471.45,-1980 3395.45,-1980 3395.45,-1944 3471.45,-1944 3471.45,-1980"/>
<text text-anchor="middle" x="3433.45" y="-1958.3" font-family="Times,serif" font-size="14.00">node_13</text>
</g>
<!-- node_12&#45;&gt;node_13 -->
<g id="edge12" class="edge">
<title>node_12&#45;&gt;node_13</title>
<path fill="none" stroke="black" d="M3433.45,-2015.7C3433.45,-2007.98 3433.45,-1998.71 3433.45,-1990.11"/>
<polygon fill="black" stroke="black" points="3436.95,-1990.1 3433.45,-1980.1 3429.95,-1990.1 3436.95,-1990.1"/>
</g>
<!-- node_14 -->
<g id="node54" class="node">
<title>node_14</title>
<polygon fill="lightblue" stroke="black" points="3471.45,-1908 3395.45,-1908 3395.45,-1872 3471.45,-1872 3471.45,-1908"/>
<text text-anchor="middle" x="3433.45" y="-1886.3" font-family="Times,serif" font-size="14.00">node_14</text>
</g>
<!-- node_13&#45;&gt;node_14 -->
<g id="edge13" class="edge">
<title>node_13&#45;&gt;node_14</title>
<path fill="none" stroke="black" d="M3433.45,-1943.7C3433.45,-1935.98 3433.45,-1926.71 3433.45,-1918.11"/>
<polygon fill="black" stroke="black" points="3436.95,-1918.1 3433.45,-1908.1 3429.95,-1918.1 3436.95,-1918.1"/>
</g>
<!-- node_15 -->
<g id="node55" class="node">
<title>node_15</title>
<polygon fill="lightblue" stroke="black" points="3471.45,-1836 3395.45,-1836 3395.45,-1800 3471.45,-1800 3471.45,-1836"/>
<text text-anchor="middle" x="3433.45" y="-1814.3" font-family="Times,serif" font-size="14.00">node_15</text>
</g>
<!-- node_14&#45;&gt;node_15 -->
<g id="edge14" class="edge">
<title>node_14&#45;&gt;node_15</title>
<path fill="none" stroke="black" d="M3433.45,-1871.7C3433.45,-1863.98 3433.45,-1854.71 3433.45,-1846.11"/>
<polygon fill="black" stroke="black" points="3436.95,-1846.1 3433.45,-1836.1 3429.95,-1846.1 3436.95,-1846.1"/>
</g>
<!-- node_16 -->
<g id="node56" class="node">
<title>node_16</title>
<polygon fill="lightblue" stroke="black" points="3471.45,-1764 3395.45,-1764 3395.45,-1728 3471.45,-1728 3471.45,-1764"/>
<text text-anchor="middle" x="3433.45" y="-1742.3" font-family="Times,serif" font-size="14.00">node_16</text>
</g>
<!-- node_15&#45;&gt;node_16 -->
<g id="edge15" class="edge">
<title>node_15&#45;&gt;node_16</title>
<path fill="none" stroke="black" d="M3433.45,-1799.7C3433.45,-1791.98 3433.45,-1782.71 3433.45,-1774.11"/>
<polygon fill="black" stroke="black" points="3436.95,-1774.1 3433.45,-1764.1 3429.95,-1774.1 3436.95,-1774.1"/>
</g>
<!-- node_17 -->
<g id="node57" class="node">
<title>node_17</title>
<polygon fill="lightblue" stroke="black" points="3471.45,-1692 3395.45,-1692 3395.45,-1656 3471.45,-1656 3471.45,-1692"/>
<text text-anchor="middle" x="3433.45" y="-1670.3" font-family="Times,serif" font-size="14.00">node_17</text>
</g>
<!-- node_16&#45;&gt;node_17 -->
<g id="edge16" class="edge">
<title>node_16&#45;&gt;node_17</title>
<path fill="none" stroke="black" d="M3433.45,-1727.7C3433.45,-1719.98 3433.45,-1710.71 3433.45,-1702.11"/>
<polygon fill="black" stroke="black" points="3436.95,-1702.1 3433.45,-1692.1 3429.95,-1702.1 3436.95,-1702.1"/>
</g>
<!-- node_18 -->
<g id="node58" class="node">
<title>node_18</title>
<polygon fill="lightblue" stroke="black" points="3471.45,-1620 3395.45,-1620 3395.45,-1584 3471.45,-1584 3471.45,-1620"/>
<text text-anchor="middle" x="3433.45" y="-1598.3" font-family="Times,serif" font-size="14.00">node_18</text>
</g>
<!-- node_17&#45;&gt;node_18 -->
<g id="edge17" class="edge">
<title>node_17&#45;&gt;node_18</title>
<path fill="none" stroke="black" d="M3433.45,-1655.7C3433.45,-1647.98 3433.45,-1638.71 3433.45,-1630.11"/>
<polygon fill="black" stroke="black" points="3436.95,-1630.1 3433.45,-1620.1 3429.95,-1630.1 3436.95,-1630.1"/>
</g>
<!-- node_19 -->
<g id="node59" class="node">
<title>node_19</title>
<polygon fill="lightblue" stroke="black" points="3471.45,-1548 3395.45,-1548 3395.45,-1512 3471.45,-1512 3471.45,-1548"/>
<text text-anchor="middle" x="3433.45" y="-1526.3" font-family="Times,serif" font-size="14.00">node_19</text>
</g>
<!-- node_18&#45;&gt;node_19 -->
<g id="edge18" class="edge">
<title>node_18&#45;&gt;node_19</title>
<path fill="none" stroke="black" d="M3433.45,-1583.7C3433.45,-1575.98 3433.45,-1566.71 3433.45,-1558.11"/>
<polygon fill="black" stroke="black" points="3436.95,-1558.1 3433.45,-1548.1 3429.95,-1558.1 3436.95,-1558.1"/>
</g>
<!-- node_20 -->
<g id="node60" class="node">
<title>node_20</title>
<polygon fill="lightblue" stroke="black" points="3471.45,-1476 3395.45,-1476 3395.45,-1440 3471.45,-1440 3471.45,-1476"/>
<text text-anchor="middle" x="3433.45" y="-1454.3" font-family="Times,serif" font-size="14.00">node_20</text>
</g>
<!-- node_19&#45;&gt;node_20 -->
<g id="edge19" class="edge">
<title>node_19&#45;&gt;node_20</title>
<path fill="none" stroke="black" d="M3433.45,-1511.7C3433.45,-1503.98 3433.45,-1494.71 3433.45,-1486.11"/>
<polygon fill="black" stroke="black" points="3436.95,-1486.1 3433.45,-1476.1 3429.95,-1486.1 3436.95,-1486.1"/>
</g>
<!-- node_21 -->
<g id="node61" class="node">
<title>node_21</title>
<polygon fill="lightblue" stroke="black" points="3471.45,-1404 3395.45,-1404 3395.45,-1368 3471.45,-1368 3471.45,-1404"/>
<text text-anchor="middle" x="3433.45" y="-1382.3" font-family="Times,serif" font-size="14.00">node_21</text>
</g>
<!-- node_20&#45;&gt;node_21 -->
<g id="edge20" class="edge">
<title>node_20&#45;&gt;node_21</title>
<path fill="none" stroke="black" d="M3433.45,-1439.7C3433.45,-1431.98 3433.45,-1422.71 3433.45,-1414.11"/>
<polygon fill="black" stroke="black" points="3436.95,-1414.1 3433.45,-1404.1 3429.95,-1414.1 3436.95,-1414.1"/>
</g>
<!-- node_22 -->
<g id="node62" class="node">
<title>node_22</title>
<polygon fill="lightblue" stroke="black" points="3471.45,-1332 3395.45,-1332 3395.45,-1296 3471.45,-1296 3471.45,-1332"/>
<text text-anchor="middle" x="3433.45" y="-1310.3" font-family="Times,serif" font-size="14.00">node_22</text>
</g>
<!-- node_21&#45;&gt;node_22 -->
<g id="edge21" class="edge">
<title>node_21&#45;&gt;node_22</title>
<path fill="none" stroke="black" d="M3433.45,-1367.7C3433.45,-1359.98 3433.45,-1350.71 3433.45,-1342.11"/>
<polygon fill="black" stroke="black" points="3436.95,-1342.1 3433.45,-1332.1 3429.95,-1342.1 3436.95,-1342.1"/>
</g>
<!-- node_23 -->
<g id="node63" class="node">
<title>node_23</title>
<polygon fill="lightblue" stroke="black" points="3471.45,-1260 3395.45,-1260 3395.45,-1224 3471.45,-1224 3471.45,-1260"/>
<text text-anchor="middle" x="3433.45" y="-1238.3" font-family="Times,serif" font-size="14.00">node_23</text>
</g>
<!-- node_22&#45;&gt;node_23 -->
<g id="edge22" class="edge">
<title>node_22&#45;&gt;node_23</title>
<path fill="none" stroke="black" d="M3433.45,-1295.7C3433.45,-1287.98 3433.45,-1278.71 3433.45,-1270.11"/>
<polygon fill="black" stroke="black" points="3436.95,-1270.1 3433.45,-1260.1 3429.95,-1270.1 3436.95,-1270.1"/>
</g>
<!-- node_24 -->
<g id="node64" class="node">
<title>node_24</title>
<polygon fill="lightblue" stroke="black" points="3471.45,-1188 3395.45,-1188 3395.45,-1152 3471.45,-1152 3471.45,-1188"/>
<text text-anchor="middle" x="3433.45" y="-1166.3" font-family="Times,serif" font-size="14.00">node_24</text>
</g>
<!-- node_23&#45;&gt;node_24 -->
<g id="edge23" class="edge">
<title>node_23&#45;&gt;node_24</title>
<path fill="none" stroke="black" d="M3433.45,-1223.7C3433.45,-1215.98 3433.45,-1206.71 3433.45,-1198.11"/>
<polygon fill="black" stroke="black" points="3436.95,-1198.1 3433.45,-1188.1 3429.95,-1198.1 3436.95,-1198.1"/>
</g>
<!-- node_25 -->
<g id="node65" class="node">
<title>node_25</title>
<polygon fill="lightblue" stroke="black" points="3471.45,-1116 3395.45,-1116 3395.45,-1080 3471.45,-1080 3471.45,-1116"/>
<text text-anchor="middle" x="3433.45" y="-1094.3" font-family="Times,serif" font-size="14.00">node_25</text>
</g>
<!-- node_24&#45;&gt;node_25 -->
<g id="edge24" class="edge">
<title>node_24&#45;&gt;node_25</title>
<path fill="none" stroke="black" d="M3433.45,-1151.7C3433.45,-1143.98 3433.45,-1134.71 3433.45,-1126.11"/>
<polygon fill="black" stroke="black" points="3436.95,-1126.1 3433.45,-1116.1 3429.95,-1126.1 3436.95,-1126.1"/>
</g>
<!-- node_26 -->
<g id="node66" class="node">
<title>node_26</title>
<polygon fill="lightblue" stroke="black" points="3471.45,-1044 3395.45,-1044 3395.45,-1008 3471.45,-1008 3471.45,-1044"/>
<text text-anchor="middle" x="3433.45" y="-1022.3" font-family="Times,serif" font-size="14.00">node_26</text>
</g>
<!-- node_25&#45;&gt;node_26 -->
<g id="edge25" class="edge">
<title>node_25&#45;&gt;node_26</title>
<path fill="none" stroke="black" d="M3433.45,-1079.7C3433.45,-1071.98 3433.45,-1062.71 3433.45,-1054.11"/>
<polygon fill="black" stroke="black" points="3436.95,-1054.1 3433.45,-1044.1 3429.95,-1054.1 3436.95,-1054.1"/>
</g>
<!-- node_27 -->
<g id="node67" class="node">
<title>node_27</title>
<polygon fill="lightblue" stroke="black" points="3471.45,-972 3395.45,-972 3395.45,-936 3471.45,-936 3471.45,-972"/>
<text text-anchor="middle" x="3433.45" y="-950.3" font-family="Times,serif" font-size="14.00">node_27</text>
</g>
<!-- node_26&#45;&gt;node_27 -->
<g id="edge26" class="edge">
<title>node_26&#45;&gt;node_27</title>
<path fill="none" stroke="black" d="M3433.45,-1007.7C3433.45,-999.98 3433.45,-990.71 3433.45,-982.11"/>
<polygon fill="black" stroke="black" points="3436.95,-982.1 3433.45,-972.1 3429.95,-982.1 3436.95,-982.1"/>
</g>
<!-- node_28 -->
<g id="node68" class="node">
<title>node_28</title>
<polygon fill="lightblue" stroke="black" points="3471.45,-900 3395.45,-900 3395.45,-864 3471.45,-864 3471.45,-900"/>
<text text-anchor="middle" x="3433.45" y="-878.3" font-family="Times,serif" font-size="14.00">node_28</text>
</g>
<!-- node_27&#45;&gt;node_28 -->
<g id="edge27" class="edge">
<title>node_27&#45;&gt;node_28</title>
<path fill="none" stroke="black" d="M3433.45,-935.7C3433.45,-927.98 3433.45,-918.71 3433.45,-910.11"/>
<polygon fill="black" stroke="black" points="3436.95,-910.1 3433.45,-900.1 3429.95,-910.1 3436.95,-910.1"/>
</g>
<!-- node_29 -->
<g id="node69" class="node">
<title>node_29</title>
<polygon fill="lightblue" stroke="black" points="3471.45,-828 3395.45,-828 3395.45,-792 3471.45,-792 3471.45,-828"/>
<text text-anchor="middle" x="3433.45" y="-806.3" font-family="Times,serif" font-size="14.00">node_29</text>
</g>
<!-- node_28&#45;&gt;node_29 -->
<g id="edge28" class="edge">
<title>node_28&#45;&gt;node_29</title>
<path fill="none" stroke="black" d="M3433.45,-863.7C3433.45,-855.98 3433.45,-846.71 3433.45,-838.11"/>
<polygon fill="black" stroke="black" points="3436.95,-838.1 3433.45,-828.1 3429.95,-838.1 3436.95,-838.1"/>
</g>
<!-- node_30 -->
<g id="node70" class="node">
<title>node_30</title>
<polygon fill="lightblue" stroke="black" points="3471.45,-756 3395.45,-756 3395.45,-720 3471.45,-720 3471.45,-756"/>
<text text-anchor="middle" x="3433.45" y="-734.3" font-family="Times,serif" font-size="14.00">node_30</text>
</g>
<!-- node_29&#45;&gt;node_30 -->
<g id="edge29" class="edge">
<title>node_29&#45;&gt;node_30</title>
<path fill="none" stroke="black" d="M3433.45,-791.7C3433.45,-783.98 3433.45,-774.71 3433.45,-766.11"/>
<polygon fill="black" stroke="black" points="3436.95,-766.1 3433.45,-756.1 3429.95,-766.1 3436.95,-766.1"/>
</g>
<!-- node_31 -->
<g id="node71" class="node">
<title>node_31</title>
<polygon fill="lightblue" stroke="black" points="3471.45,-684 3395.45,-684 3395.45,-648 3471.45,-648 3471.45,-684"/>
<text text-anchor="middle" x="3433.45" y="-662.3" font-family="Times,serif" font-size="14.00">node_31</text>
</g>
<!-- node_30&#45;&gt;node_31 -->
<g id="edge30" class="edge">
<title>node_30&#45;&gt;node_31</title>
<path fill="none" stroke="black" d="M3433.45,-719.7C3433.45,-711.98 3433.45,-702.71 3433.45,-694.11"/>
<polygon fill="black" stroke="black" points="3436.95,-694.1 3433.45,-684.1 3429.95,-694.1 3436.95,-694.1"/>
</g>
<!-- node_32 -->
<g id="node72" class="node">
<title>node_32</title>
<polygon fill="lightblue" stroke="black" points="3471.45,-612 3395.45,-612 3395.45,-576 3471.45,-576 3471.45,-612"/>
<text text-anchor="middle" x="3433.45" y="-590.3" font-family="Times,serif" font-size="14.00">node_32</text>
</g>
<!-- node_31&#45;&gt;node_32 -->
<g id="edge31" class="edge">
<title>node_31&#45;&gt;node_32</title>
<path fill="none" stroke="black" d="M3433.45,-647.7C3433.45,-639.98 3433.45,-630.71 3433.45,-622.11"/>
<polygon fill="black" stroke="black" points="3436.95,-622.1 3433.45,-612.1 3429.95,-622.1 3436.95,-622.1"/>
</g>
<!-- node_33 -->
<g id="node73" class="node">
<title>node_33</title>
<polygon fill="lightblue" stroke="black" points="3471.45,-540 3395.45,-540 3395.45,-504 3471.45,-504 3471.45,-540"/>
<text text-anchor="middle" x="3433.45" y="-518.3" font-family="Times,serif" font-size="14.00">node_33</text>
</g>
<!-- node_32&#45;&gt;node_33 -->
<g id="edge32" class="edge">
<title>node_32&#45;&gt;node_33</title>
<path fill="none" stroke="black" d="M3433.45,-575.7C3433.45,-567.98 3433.45,-558.71 3433.45,-550.11"/>
<polygon fill="black" stroke="black" points="3436.95,-550.1 3433.45,-540.1 3429.95,-550.1 3436.95,-550.1"/>
</g>
<!-- node_34 -->
<g id="node74" class="node">
<title>node_34</title>
<polygon fill="lightblue" stroke="black" points="3471.45,-468 3395.45,-468 3395.45,-432 3471.45,-432 3471.45,-468"/>
<text text-anchor="middle" x="3433.45" y="-446.3" font-family="Times,serif" font-size="14.00">node_34</text>
</g>
<!-- node_33&#45;&gt;node_34 -->
<g id="edge33" class="edge">
<title>node_33&#45;&gt;node_34</title>
<path fill="none" stroke="black" d="M3433.45,-503.7C3433.45,-495.98 3433.45,-486.71 3433.45,-478.11"/>
<polygon fill="black" stroke="black" points="3436.95,-478.1 3433.45,-468.1 3429.95,-478.1 3436.95,-478.1"/>
</g>
<!-- node_35 -->
<g id="node75" class="node">
<title>node_35</title>
<polygon fill="lightblue" stroke="black" points="3471.45,-396 3395.45,-396 3395.45,-360 3471.45,-360 3471.45,-396"/>
<text text-anchor="middle" x="3433.45" y="-374.3" font-family="Times,serif" font-size="14.00">node_35</text>
</g>
<!-- node_34&#45;&gt;node_35 -->
<g id="edge34" class="edge">
<title>node_34&#45;&gt;node_35</title>
<path fill="none" stroke="black" d="M3433.45,-431.7C3433.45,-423.98 3433.45,-414.71 3433.45,-406.11"/>
<polygon fill="black" stroke="black" points="3436.95,-406.1 3433.45,-396.1 3429.95,-406.1 3436.95,-406.1"/>
</g>
<!-- node_36 -->
<g id="node76" class="node">
<title>node_36</title>
<polygon fill="lightblue" stroke="black" points="3471.45,-324 3395.45,-324 3395.45,-288 3471.45,-288 3471.45,-324"/>
<text text-anchor="middle" x="3433.45" y="-302.3" font-family="Times,serif" font-size="14.00">node_36</text>
</g>
<!-- node_35&#45;&gt;node_36 -->
<g id="edge35" class="edge">
<title>node_35&#45;&gt;node_36</title>
<path fill="none" stroke="black" d="M3433.45,-359.7C3433.45,-351.98 3433.45,-342.71 3433.45,-334.11"/>
<polygon fill="black" stroke="black" points="3436.95,-334.1 3433.45,-324.1 3429.95,-334.1 3436.95,-334.1"/>
</g>
<!-- node_37 -->
<g id="node77" class="node">
<title>node_37</title>
<polygon fill="lightblue" stroke="black" points="3471.45,-252 3395.45,-252 3395.45,-216 3471.45,-216 3471.45,-252"/>
<text text-anchor="middle" x="3433.45" y="-230.3" font-family="Times,serif" font-size="14.00">node_37</text>
</g>
<!-- node_36&#45;&gt;node_37 -->
<g id="edge36" class="edge">
<title>node_36&#45;&gt;node_37</title>
<path fill="none" stroke="black" d="M3433.45,-287.7C3433.45,-279.98 3433.45,-270.71 3433.45,-262.11"/>
<polygon fill="black" stroke="black" points="3436.95,-262.1 3433.45,-252.1 3429.95,-262.1 3436.95,-262.1"/>
</g>
<!-- node_38 -->
<g id="node78" class="node">
<title>node_38</title>
<polygon fill="lightblue" stroke="black" points="3471.45,-180 3395.45,-180 3395.45,-144 3471.45,-144 3471.45,-180"/>
<text text-anchor="middle" x="3433.45" y="-158.3" font-family="Times,serif" font-size="14.00">node_38</text>
</g>
<!-- node_37&#45;&gt;node_38 -->
<g id="edge37" class="edge">
<title>node_37&#45;&gt;node_38</title>
<path fill="none" stroke="black" d="M3433.45,-215.7C3433.45,-207.98 3433.45,-198.71 3433.45,-190.11"/>
<polygon fill="black" stroke="black" points="3436.95,-190.1 3433.45,-180.1 3429.95,-190.1 3436.95,-190.1"/>
</g>
<!-- node_39 -->
<g id="node79" class="node">
<title>node_39</title>
<polygon fill="lightblue" stroke="black" points="3471.45,-108 3395.45,-108 3395.45,-72 3471.45,-72 3471.45,-108"/>
<text text-anchor="middle" x="3433.45" y="-86.3" font-family="Times,serif" font-size="14.00">node_39</text>
</g>
<!-- node_38&#45;&gt;node_39 -->
<g id="edge38" class="edge">
<title>node_38&#45;&gt;node_39</title>
<path fill="none" stroke="black" d="M3433.45,-143.7C3433.45,-135.98 3433.45,-126.71 3433.45,-118.11"/>
<polygon fill="black" stroke="black" points="3436.95,-118.1 3433.45,-108.1 3429.95,-118.1 3436.95,-118.1"/>
</g>
<!-- node_40 -->
<g id="node80" class="node">
<title>node_40</title>
<polygon fill="lightblue" stroke="black" points="3471.45,-36 3395.45,-36 3395.45,0 3471.45,0 3471.45,-36"/>
<text text-anchor="middle" x="3433.45" y="-14.3" font-family="Times,serif" font-size="14.00">node_40</text>
</g>
<!-- node_39&#45;&gt;node_40 -->
<g id="edge39" class="edge">
<title>node_39&#45;&gt;node_40</title>
<path fill="none" stroke="black" d="M3433.45,-71.7C3433.45,-63.98 3433.45,-54.71 3433.45,-46.11"/>
<polygon fill="black" stroke="black" points="3436.95,-46.1 3433.45,-36.1 3429.95,-46.1 3436.95,-46.1"/>
</g>
</g>
</svg>
