<?xml version="1.0" encoding="UTF-8" standalone="no"?>
<!DOCTYPE svg PUBLIC "-//W3C//DTD SVG 1.1//EN"
 "http://www.w3.org/Graphics/SVG/1.1/DTD/svg11.dtd">
<!-- Generated by graphviz version 2.43.0 (0)
 -->
<!-- Title: G Pages: 1 -->
<svg width="423pt" height="1772pt"
 viewBox="0.00 0.00 423.50 1772.00" xmlns="http://www.w3.org/2000/svg" xmlns:xlink="http://www.w3.org/1999/xlink">
<g id="graph0" class="graph" transform="scale(1 1) rotate(0) translate(4 1768)">
<title>G</title>
<polygon fill="white" stroke="transparent" points="-4,4 -4,-1768 419.5,-1768 419.5,4 -4,4"/>
<!-- start_1 -->
<g id="node1" class="node">
<title>start_1</title>
<ellipse fill="lightgreen" stroke="black" cx="40" cy="-1746" rx="34.39" ry="18"/>
<text text-anchor="middle" x="40" y="-1742.3" font-family="Times,serif" font-size="14.00">Start</text>
</g>
<!-- node_2 -->
<g id="node2" class="node">
<title>node_2</title>
<polygon fill="lightblue" stroke="black" points="165,-1692 87,-1692 87,-1656 165,-1656 165,-1692"/>
<text text-anchor="middle" x="126" y="-1670.3" font-family="Times,serif" font-size="14.00">__init__()</text>
</g>
<!-- node_3 -->
<g id="node3" class="node">
<title>node_3</title>
<polygon fill="lightblue" stroke="black" points="205,-1620 47,-1620 47,-1584 205,-1584 205,-1620"/>
<text text-anchor="middle" x="126" y="-1598.3" font-family="Times,serif" font-size="14.00">_find_plantuml_jar()</text>
</g>
<!-- node_2&#45;&gt;node_3 -->
<g id="edge2" class="edge">
<title>node_2&#45;&gt;node_3</title>
<path fill="none" stroke="black" d="M126,-1655.7C126,-1647.98 126,-1638.71 126,-1630.11"/>
<polygon fill="black" stroke="black" points="129.5,-1630.1 126,-1620.1 122.5,-1630.1 129.5,-1630.1"/>
</g>
<!-- node_4 -->
<g id="node4" class="node">
<title>node_4</title>
<polygon fill="lightblue" stroke="black" points="181,-1548 71,-1548 71,-1512 181,-1512 181,-1548"/>
<text text-anchor="middle" x="126" y="-1526.3" font-family="Times,serif" font-size="14.00">_check_java()</text>
</g>
<!-- node_3&#45;&gt;node_4 -->
<g id="edge3" class="edge">
<title>node_3&#45;&gt;node_4</title>
<path fill="none" stroke="black" d="M126,-1583.7C126,-1575.98 126,-1566.71 126,-1558.11"/>
<polygon fill="black" stroke="black" points="129.5,-1558.1 126,-1548.1 122.5,-1558.1 129.5,-1558.1"/>
</g>
<!-- node_5 -->
<g id="node5" class="node">
<title>node_5</title>
<polygon fill="lightblue" stroke="black" points="209,-1476 43,-1476 43,-1440 209,-1440 209,-1476"/>
<text text-anchor="middle" x="126" y="-1454.3" font-family="Times,serif" font-size="14.00">analyze_python_file()</text>
</g>
<!-- node_4&#45;&gt;node_5 -->
<g id="edge4" class="edge">
<title>node_4&#45;&gt;node_5</title>
<path fill="none" stroke="black" d="M126,-1511.7C126,-1503.98 126,-1494.71 126,-1486.11"/>
<polygon fill="black" stroke="black" points="129.5,-1486.1 126,-1476.1 122.5,-1486.1 129.5,-1486.1"/>
</g>
<!-- node_6 -->
<g id="node6" class="node">
<title>node_6</title>
<polygon fill="lightblue" stroke="black" points="236.5,-1404 15.5,-1404 15.5,-1368 236.5,-1368 236.5,-1404"/>
<text text-anchor="middle" x="126" y="-1382.3" font-family="Times,serif" font-size="14.00">generate_plantuml_activity()</text>
</g>
<!-- node_5&#45;&gt;node_6 -->
<g id="edge5" class="edge">
<title>node_5&#45;&gt;node_6</title>
<path fill="none" stroke="black" d="M126,-1439.7C126,-1431.98 126,-1422.71 126,-1414.11"/>
<polygon fill="black" stroke="black" points="129.5,-1414.1 126,-1404.1 122.5,-1414.1 129.5,-1414.1"/>
</g>
<!-- node_7 -->
<g id="node7" class="node">
<title>node_7</title>
<polygon fill="lightblue" stroke="black" points="187,-1332 65,-1332 65,-1296 187,-1296 187,-1332"/>
<text text-anchor="middle" x="126" y="-1310.3" font-family="Times,serif" font-size="14.00">generate_svg()</text>
</g>
<!-- node_6&#45;&gt;node_7 -->
<g id="edge6" class="edge">
<title>node_6&#45;&gt;node_7</title>
<path fill="none" stroke="black" d="M126,-1367.7C126,-1359.98 126,-1350.71 126,-1342.11"/>
<polygon fill="black" stroke="black" points="129.5,-1342.1 126,-1332.1 122.5,-1342.1 129.5,-1342.1"/>
</g>
<!-- node_8 -->
<g id="node8" class="node">
<title>node_8</title>
<polygon fill="lightblue" stroke="black" points="239,-1260 13,-1260 13,-1224 239,-1224 239,-1260"/>
<text text-anchor="middle" x="126" y="-1238.3" font-family="Times,serif" font-size="14.00">_generate_svg_plantuml_jar()</text>
</g>
<!-- node_7&#45;&gt;node_8 -->
<g id="edge7" class="edge">
<title>node_7&#45;&gt;node_8</title>
<path fill="none" stroke="black" d="M126,-1295.7C126,-1287.98 126,-1278.71 126,-1270.11"/>
<polygon fill="black" stroke="black" points="129.5,-1270.1 126,-1260.1 122.5,-1270.1 129.5,-1270.1"/>
</g>
<!-- node_9 -->
<g id="node9" class="node">
<title>node_9</title>
<polygon fill="lightblue" stroke="black" points="252,-1188 0,-1188 0,-1152 252,-1152 252,-1188"/>
<text text-anchor="middle" x="126" y="-1166.3" font-family="Times,serif" font-size="14.00">_generate_svg_plantuml_server()</text>
</g>
<!-- node_8&#45;&gt;node_9 -->
<g id="edge8" class="edge">
<title>node_8&#45;&gt;node_9</title>
<path fill="none" stroke="black" d="M126,-1223.7C126,-1215.98 126,-1206.71 126,-1198.11"/>
<polygon fill="black" stroke="black" points="129.5,-1198.1 126,-1188.1 122.5,-1198.1 129.5,-1198.1"/>
</g>
<!-- node_10 -->
<g id="node10" class="node">
<title>node_10</title>
<polygon fill="lightblue" stroke="black" points="225,-1116 27,-1116 27,-1080 225,-1080 225,-1116"/>
<text text-anchor="middle" x="126" y="-1094.3" font-family="Times,serif" font-size="14.00">_generate_svg_graphviz()</text>
</g>
<!-- node_9&#45;&gt;node_10 -->
<g id="edge9" class="edge">
<title>node_9&#45;&gt;node_10</title>
<path fill="none" stroke="black" d="M126,-1151.7C126,-1143.98 126,-1134.71 126,-1126.11"/>
<polygon fill="black" stroke="black" points="129.5,-1126.1 126,-1116.1 122.5,-1126.1 129.5,-1126.1"/>
</g>
<!-- node_11 -->
<g id="node11" class="node">
<title>node_11</title>
<polygon fill="lightblue" stroke="black" points="200.5,-1044 51.5,-1044 51.5,-1008 200.5,-1008 200.5,-1044"/>
<text text-anchor="middle" x="126" y="-1022.3" font-family="Times,serif" font-size="14.00">_plantuml_to_dot()</text>
</g>
<!-- node_10&#45;&gt;node_11 -->
<g id="edge10" class="edge">
<title>node_10&#45;&gt;node_11</title>
<path fill="none" stroke="black" d="M126,-1079.7C126,-1071.98 126,-1062.71 126,-1054.11"/>
<polygon fill="black" stroke="black" points="129.5,-1054.1 126,-1044.1 122.5,-1054.1 129.5,-1054.1"/>
</g>
<!-- node_12 -->
<g id="node12" class="node">
<title>node_12</title>
<polygon fill="lightblue" stroke="black" points="234.5,-972 17.5,-972 17.5,-936 234.5,-936 234.5,-972"/>
<text text-anchor="middle" x="126" y="-950.3" font-family="Times,serif" font-size="14.00">generate_activity_diagram()</text>
</g>
<!-- node_11&#45;&gt;node_12 -->
<g id="edge11" class="edge">
<title>node_11&#45;&gt;node_12</title>
<path fill="none" stroke="black" d="M126,-1007.7C126,-999.98 126,-990.71 126,-982.11"/>
<polygon fill="black" stroke="black" points="129.5,-982.1 126,-972.1 122.5,-982.1 129.5,-982.1"/>
</g>
<!-- node_13 -->
<g id="node13" class="node">
<title>node_13</title>
<polygon fill="lightblue" stroke="black" points="202,-900 50,-900 50,-864 202,-864 202,-900"/>
<text text-anchor="middle" x="126" y="-878.3" font-family="Times,serif" font-size="14.00">analyze_workflow()</text>
</g>
<!-- node_12&#45;&gt;node_13 -->
<g id="edge12" class="edge">
<title>node_12&#45;&gt;node_13</title>
<path fill="none" stroke="black" d="M126,-935.7C126,-927.98 126,-918.71 126,-910.11"/>
<polygon fill="black" stroke="black" points="129.5,-910.1 126,-900.1 122.5,-910.1 129.5,-910.1"/>
</g>
<!-- node_14 -->
<g id="node14" class="node">
<title>node_14</title>
<polygon fill="lightblue" stroke="black" points="165,-828 87,-828 87,-792 165,-792 165,-828"/>
<text text-anchor="middle" x="126" y="-806.3" font-family="Times,serif" font-size="14.00">__init__()</text>
</g>
<!-- node_13&#45;&gt;node_14 -->
<g id="edge13" class="edge">
<title>node_13&#45;&gt;node_14</title>
<path fill="none" stroke="black" d="M126,-863.7C126,-855.98 126,-846.71 126,-838.11"/>
<polygon fill="black" stroke="black" points="129.5,-838.1 126,-828.1 122.5,-838.1 129.5,-838.1"/>
</g>
<!-- node_15 -->
<g id="node15" class="node">
<title>node_15</title>
<polygon fill="lightblue" stroke="black" points="176.5,-756 75.5,-756 75.5,-720 176.5,-720 176.5,-756"/>
<text text-anchor="middle" x="126" y="-734.3" font-family="Times,serif" font-size="14.00">_add_node()</text>
</g>
<!-- node_14&#45;&gt;node_15 -->
<g id="edge14" class="edge">
<title>node_14&#45;&gt;node_15</title>
<path fill="none" stroke="black" d="M126,-791.7C126,-783.98 126,-774.71 126,-766.11"/>
<polygon fill="black" stroke="black" points="129.5,-766.1 126,-756.1 122.5,-766.1 129.5,-766.1"/>
</g>
<!-- node_16 -->
<g id="node16" class="node">
<title>node_16</title>
<polygon fill="lightblue" stroke="black" points="202,-684 50,-684 50,-648 202,-648 202,-684"/>
<text text-anchor="middle" x="126" y="-662.3" font-family="Times,serif" font-size="14.00">visit_FunctionDef()</text>
</g>
<!-- node_15&#45;&gt;node_16 -->
<g id="edge15" class="edge">
<title>node_15&#45;&gt;node_16</title>
<path fill="none" stroke="black" d="M126,-719.7C126,-711.98 126,-702.71 126,-694.11"/>
<polygon fill="black" stroke="black" points="129.5,-694.1 126,-684.1 122.5,-694.1 129.5,-694.1"/>
</g>
<!-- node_17 -->
<g id="node17" class="node">
<title>node_17</title>
<polygon fill="lightblue" stroke="black" points="163.5,-612 88.5,-612 88.5,-576 163.5,-576 163.5,-612"/>
<text text-anchor="middle" x="126" y="-590.3" font-family="Times,serif" font-size="14.00">visit_If()</text>
</g>
<!-- node_16&#45;&gt;node_17 -->
<g id="edge16" class="edge">
<title>node_16&#45;&gt;node_17</title>
<path fill="none" stroke="black" d="M126,-647.7C126,-639.98 126,-630.71 126,-622.11"/>
<polygon fill="black" stroke="black" points="129.5,-622.1 126,-612.1 122.5,-622.1 129.5,-622.1"/>
</g>
<!-- node_18 -->
<g id="node18" class="node">
<title>node_18</title>
<polygon fill="lightblue" stroke="black" points="178.5,-540 73.5,-540 73.5,-504 178.5,-504 178.5,-540"/>
<text text-anchor="middle" x="126" y="-518.3" font-family="Times,serif" font-size="14.00">visit_While()</text>
</g>
<!-- node_17&#45;&gt;node_18 -->
<g id="edge17" class="edge">
<title>node_17&#45;&gt;node_18</title>
<path fill="none" stroke="black" d="M126,-575.7C126,-567.98 126,-558.71 126,-550.11"/>
<polygon fill="black" stroke="black" points="129.5,-550.1 126,-540.1 122.5,-550.1 129.5,-550.1"/>
</g>
<!-- node_19 -->
<g id="node19" class="node">
<title>node_19</title>
<polygon fill="lightblue" stroke="black" points="170.5,-468 81.5,-468 81.5,-432 170.5,-432 170.5,-468"/>
<text text-anchor="middle" x="126" y="-446.3" font-family="Times,serif" font-size="14.00">visit_For()</text>
</g>
<!-- node_18&#45;&gt;node_19 -->
<g id="edge18" class="edge">
<title>node_18&#45;&gt;node_19</title>
<path fill="none" stroke="black" d="M126,-503.7C126,-495.98 126,-486.71 126,-478.11"/>
<polygon fill="black" stroke="black" points="129.5,-478.1 126,-468.1 122.5,-478.1 129.5,-478.1"/>
</g>
<!-- node_20 -->
<g id="node20" class="node">
<title>node_20</title>
<polygon fill="lightblue" stroke="black" points="175.5,-396 76.5,-396 76.5,-360 175.5,-360 175.5,-396"/>
<text text-anchor="middle" x="126" y="-374.3" font-family="Times,serif" font-size="14.00">visit_Expr()</text>
</g>
<!-- node_19&#45;&gt;node_20 -->
<g id="edge19" class="edge">
<title>node_19&#45;&gt;node_20</title>
<path fill="none" stroke="black" d="M126,-431.7C126,-423.98 126,-414.71 126,-406.11"/>
<polygon fill="black" stroke="black" points="129.5,-406.1 126,-396.1 122.5,-406.1 129.5,-406.1"/>
</g>
<!-- node_21 -->
<g id="node21" class="node">
<title>node_21</title>
<polygon fill="lightblue" stroke="black" points="157,-324 95,-324 95,-288 157,-288 157,-324"/>
<text text-anchor="middle" x="126" y="-302.3" font-family="Times,serif" font-size="14.00">main()</text>
</g>
<!-- node_20&#45;&gt;node_21 -->
<g id="edge20" class="edge">
<title>node_20&#45;&gt;node_21</title>
<path fill="none" stroke="black" d="M126,-359.7C126,-351.98 126,-342.71 126,-334.11"/>
<polygon fill="black" stroke="black" points="129.5,-334.1 126,-324.1 122.5,-334.1 129.5,-334.1"/>
</g>
<!-- node_22 -->
<g id="node27" class="node">
<title>node_22</title>
<polygon fill="lightblue" stroke="black" points="164,-252 88,-252 88,-216 164,-216 164,-252"/>
<text text-anchor="middle" x="126" y="-230.3" font-family="Times,serif" font-size="14.00">node_22</text>
</g>
<!-- node_21&#45;&gt;node_22 -->
<g id="edge21" class="edge">
<title>node_21&#45;&gt;node_22</title>
<path fill="none" stroke="black" d="M126,-287.7C126,-279.98 126,-270.71 126,-262.11"/>
<polygon fill="black" stroke="black" points="129.5,-262.1 126,-252.1 122.5,-262.1 129.5,-262.1"/>
</g>
<!-- decision_22 -->
<g id="node22" class="node">
<title>decision_22</title>
<polygon fill="lightyellow" stroke="black" points="255,-1764 177.58,-1746 255,-1728 332.42,-1746 255,-1764"/>
<text text-anchor="middle" x="255" y="-1742.3" font-family="Times,serif" font-size="14.00">(success?</text>
</g>
<!-- node_23 -->
<g id="node23" class="node">
<title>node_23</title>
<polygon fill="lightblue" stroke="black" points="228,-180 24,-180 24,-144 228,-144 228,-180"/>
<text text-anchor="middle" x="126" y="-158.3" font-family="Times,serif" font-size="14.00">Generate activity diagram</text>
</g>
<!-- node_24 -->
<g id="node24" class="node">
<title>node_24</title>
<polygon fill="lightblue" stroke="black" points="180.5,-108 71.5,-108 71.5,-72 180.5,-72 180.5,-108"/>
<text text-anchor="middle" x="126" y="-86.3" font-family="Times,serif" font-size="14.00">Handle error</text>
</g>
<!-- node_23&#45;&gt;node_24 -->
<g id="edge23" class="edge">
<title>node_23&#45;&gt;node_24</title>
<path fill="none" stroke="black" d="M126,-143.7C126,-135.98 126,-126.71 126,-118.11"/>
<polygon fill="black" stroke="black" points="129.5,-118.1 126,-108.1 122.5,-118.1 129.5,-118.1"/>
</g>
<!-- node_25 -->
<g id="node28" class="node">
<title>node_25</title>
<polygon fill="lightblue" stroke="black" points="164,-36 88,-36 88,0 164,0 164,-36"/>
<text text-anchor="middle" x="126" y="-14.3" font-family="Times,serif" font-size="14.00">node_25</text>
</g>
<!-- node_24&#45;&gt;node_25 -->
<g id="edge24" class="edge">
<title>node_24&#45;&gt;node_25</title>
<path fill="none" stroke="black" d="M126,-71.7C126,-63.98 126,-54.71 126,-46.11"/>
<polygon fill="black" stroke="black" points="129.5,-46.1 126,-36.1 122.5,-46.1 129.5,-46.1"/>
</g>
<!-- stop_25 -->
<g id="node25" class="node">
<title>stop_25</title>
<ellipse fill="lightcoral" stroke="black" cx="383" cy="-1746" rx="32.49" ry="18"/>
<text text-anchor="middle" x="383" y="-1742.3" font-family="Times,serif" font-size="14.00">Stop</text>
</g>
<!-- node_1 -->
<g id="node26" class="node">
<title>node_1</title>
<polygon fill="lightblue" stroke="black" points="159.5,-1764 92.5,-1764 92.5,-1728 159.5,-1728 159.5,-1764"/>
<text text-anchor="middle" x="126" y="-1742.3" font-family="Times,serif" font-size="14.00">node_1</text>
</g>
<!-- node_1&#45;&gt;node_2 -->
<g id="edge1" class="edge">
<title>node_1&#45;&gt;node_2</title>
<path fill="none" stroke="black" d="M126,-1727.7C126,-1719.98 126,-1710.71 126,-1702.11"/>
<polygon fill="black" stroke="black" points="129.5,-1702.1 126,-1692.1 122.5,-1702.1 129.5,-1702.1"/>
</g>
<!-- node_22&#45;&gt;node_23 -->
<g id="edge22" class="edge">
<title>node_22&#45;&gt;node_23</title>
<path fill="none" stroke="black" d="M126,-215.7C126,-207.98 126,-198.71 126,-190.11"/>
<polygon fill="black" stroke="black" points="129.5,-190.1 126,-180.1 122.5,-190.1 129.5,-190.1"/>
</g>
</g>
</svg>
