<?xml version="1.0" encoding="UTF-8" standalone="no"?>
<!DOCTYPE svg PUBLIC "-//W3C//DTD SVG 1.1//EN"
 "http://www.w3.org/Graphics/SVG/1.1/DTD/svg11.dtd">
<!-- Generated by graphviz version 2.43.0 (0)
 -->
<!-- Title: G Pages: 1 -->
<svg width="2662pt" height="4076pt"
 viewBox="0.00 0.00 2662.00 4076.00" xmlns="http://www.w3.org/2000/svg" xmlns:xlink="http://www.w3.org/1999/xlink">
<g id="graph0" class="graph" transform="scale(1 1) rotate(0) translate(4 4072)">
<title>G</title>
<polygon fill="white" stroke="transparent" points="-4,4 -4,-4072 2658,-4072 2658,4 -4,4"/>
<!-- node_1 -->
<g id="node1" class="node">
<title>node_1</title>
<polygon fill="lightblue" stroke="black" points="104.5,-4068 8.5,-4068 8.5,-4032 104.5,-4032 104.5,-4068"/>
<text text-anchor="middle" x="56.5" y="-4046.3" font-family="Times,serif" font-size="14.00">Expression</text>
</g>
<!-- node_2 -->
<g id="node2" class="node">
<title>node_2</title>
<polygon fill="lightblue" stroke="black" points="104.5,-3996 8.5,-3996 8.5,-3960 104.5,-3960 104.5,-3996"/>
<text text-anchor="middle" x="56.5" y="-3974.3" font-family="Times,serif" font-size="14.00">Expression</text>
</g>
<!-- node_1&#45;&gt;node_2 -->
<g id="edge1" class="edge">
<title>node_1&#45;&gt;node_2</title>
<path fill="none" stroke="black" d="M56.5,-4031.7C56.5,-4023.98 56.5,-4014.71 56.5,-4006.11"/>
<polygon fill="black" stroke="black" points="60,-4006.1 56.5,-3996.1 53,-4006.1 60,-4006.1"/>
</g>
<!-- node_3 -->
<g id="node58" class="node">
<title>node_3</title>
<polygon fill="lightblue" stroke="black" points="90,-3924 23,-3924 23,-3888 90,-3888 90,-3924"/>
<text text-anchor="middle" x="56.5" y="-3902.3" font-family="Times,serif" font-size="14.00">node_3</text>
</g>
<!-- node_2&#45;&gt;node_3 -->
<g id="edge2" class="edge">
<title>node_2&#45;&gt;node_3</title>
<path fill="none" stroke="black" d="M56.5,-3959.7C56.5,-3951.98 56.5,-3942.71 56.5,-3934.11"/>
<polygon fill="black" stroke="black" points="60,-3934.1 56.5,-3924.1 53,-3934.1 60,-3934.1"/>
</g>
<!-- start_3 -->
<g id="node3" class="node">
<title>start_3</title>
<ellipse fill="lightgreen" stroke="black" cx="156.5" cy="-4050" rx="34.39" ry="18"/>
<text text-anchor="middle" x="156.5" y="-4046.3" font-family="Times,serif" font-size="14.00">Start</text>
</g>
<!-- node_4 -->
<g id="node4" class="node">
<title>node_4</title>
<polygon fill="lightblue" stroke="black" points="104.5,-3852 8.5,-3852 8.5,-3816 104.5,-3816 104.5,-3852"/>
<text text-anchor="middle" x="56.5" y="-3830.3" font-family="Times,serif" font-size="14.00">Expression</text>
</g>
<!-- node_5 -->
<g id="node59" class="node">
<title>node_5</title>
<polygon fill="lightblue" stroke="black" points="90,-3780 23,-3780 23,-3744 90,-3744 90,-3780"/>
<text text-anchor="middle" x="56.5" y="-3758.3" font-family="Times,serif" font-size="14.00">node_5</text>
</g>
<!-- node_4&#45;&gt;node_5 -->
<g id="edge4" class="edge">
<title>node_4&#45;&gt;node_5</title>
<path fill="none" stroke="black" d="M56.5,-3815.7C56.5,-3807.98 56.5,-3798.71 56.5,-3790.11"/>
<polygon fill="black" stroke="black" points="60,-3790.1 56.5,-3780.1 53,-3790.1 60,-3790.1"/>
</g>
<!-- stop_5 -->
<g id="node5" class="node">
<title>stop_5</title>
<ellipse fill="lightcoral" stroke="black" cx="241.5" cy="-4050" rx="32.49" ry="18"/>
<text text-anchor="middle" x="241.5" y="-4046.3" font-family="Times,serif" font-size="14.00">Stop</text>
</g>
<!-- node_6 -->
<g id="node6" class="node">
<title>node_6</title>
<polygon fill="lightblue" stroke="black" points="104.5,-3708 8.5,-3708 8.5,-3672 104.5,-3672 104.5,-3708"/>
<text text-anchor="middle" x="56.5" y="-3686.3" font-family="Times,serif" font-size="14.00">Expression</text>
</g>
<!-- node_7 -->
<g id="node60" class="node">
<title>node_7</title>
<polygon fill="lightblue" stroke="black" points="90,-3636 23,-3636 23,-3600 90,-3600 90,-3636"/>
<text text-anchor="middle" x="56.5" y="-3614.3" font-family="Times,serif" font-size="14.00">node_7</text>
</g>
<!-- node_6&#45;&gt;node_7 -->
<g id="edge6" class="edge">
<title>node_6&#45;&gt;node_7</title>
<path fill="none" stroke="black" d="M56.5,-3671.7C56.5,-3663.98 56.5,-3654.71 56.5,-3646.11"/>
<polygon fill="black" stroke="black" points="60,-3646.1 56.5,-3636.1 53,-3646.1 60,-3646.1"/>
</g>
<!-- start_7 -->
<g id="node7" class="node">
<title>start_7</title>
<ellipse fill="lightgreen" stroke="black" cx="326.5" cy="-4050" rx="34.39" ry="18"/>
<text text-anchor="middle" x="326.5" y="-4046.3" font-family="Times,serif" font-size="14.00">Start</text>
</g>
<!-- node_8 -->
<g id="node8" class="node">
<title>node_8</title>
<polygon fill="lightblue" stroke="black" points="104.5,-3564 8.5,-3564 8.5,-3528 104.5,-3528 104.5,-3564"/>
<text text-anchor="middle" x="56.5" y="-3542.3" font-family="Times,serif" font-size="14.00">Expression</text>
</g>
<!-- node_9 -->
<g id="node61" class="node">
<title>node_9</title>
<polygon fill="lightblue" stroke="black" points="90,-3492 23,-3492 23,-3456 90,-3456 90,-3492"/>
<text text-anchor="middle" x="56.5" y="-3470.3" font-family="Times,serif" font-size="14.00">node_9</text>
</g>
<!-- node_8&#45;&gt;node_9 -->
<g id="edge8" class="edge">
<title>node_8&#45;&gt;node_9</title>
<path fill="none" stroke="black" d="M56.5,-3527.7C56.5,-3519.98 56.5,-3510.71 56.5,-3502.11"/>
<polygon fill="black" stroke="black" points="60,-3502.1 56.5,-3492.1 53,-3502.1 60,-3502.1"/>
</g>
<!-- stop_9 -->
<g id="node9" class="node">
<title>stop_9</title>
<ellipse fill="lightcoral" stroke="black" cx="411.5" cy="-4050" rx="32.49" ry="18"/>
<text text-anchor="middle" x="411.5" y="-4046.3" font-family="Times,serif" font-size="14.00">Stop</text>
</g>
<!-- start_10 -->
<g id="node10" class="node">
<title>start_10</title>
<ellipse fill="lightgreen" stroke="black" cx="496.5" cy="-4050" rx="34.39" ry="18"/>
<text text-anchor="middle" x="496.5" y="-4046.3" font-family="Times,serif" font-size="14.00">Start</text>
</g>
<!-- node_11 -->
<g id="node11" class="node">
<title>node_11</title>
<polygon fill="lightblue" stroke="black" points="104.5,-3348 8.5,-3348 8.5,-3312 104.5,-3312 104.5,-3348"/>
<text text-anchor="middle" x="56.5" y="-3326.3" font-family="Times,serif" font-size="14.00">Expression</text>
</g>
<!-- node_12 -->
<g id="node63" class="node">
<title>node_12</title>
<polygon fill="lightblue" stroke="black" points="94.5,-3276 18.5,-3276 18.5,-3240 94.5,-3240 94.5,-3276"/>
<text text-anchor="middle" x="56.5" y="-3254.3" font-family="Times,serif" font-size="14.00">node_12</text>
</g>
<!-- node_11&#45;&gt;node_12 -->
<g id="edge11" class="edge">
<title>node_11&#45;&gt;node_12</title>
<path fill="none" stroke="black" d="M56.5,-3311.7C56.5,-3303.98 56.5,-3294.71 56.5,-3286.11"/>
<polygon fill="black" stroke="black" points="60,-3286.1 56.5,-3276.1 53,-3286.1 60,-3286.1"/>
</g>
<!-- stop_12 -->
<g id="node12" class="node">
<title>stop_12</title>
<ellipse fill="lightcoral" stroke="black" cx="581.5" cy="-4050" rx="32.49" ry="18"/>
<text text-anchor="middle" x="581.5" y="-4046.3" font-family="Times,serif" font-size="14.00">Stop</text>
</g>
<!-- start_13 -->
<g id="node13" class="node">
<title>start_13</title>
<ellipse fill="lightgreen" stroke="black" cx="666.5" cy="-4050" rx="34.39" ry="18"/>
<text text-anchor="middle" x="666.5" y="-4046.3" font-family="Times,serif" font-size="14.00">Start</text>
</g>
<!-- node_14 -->
<g id="node14" class="node">
<title>node_14</title>
<polygon fill="lightblue" stroke="black" points="104.5,-3132 8.5,-3132 8.5,-3096 104.5,-3096 104.5,-3132"/>
<text text-anchor="middle" x="56.5" y="-3110.3" font-family="Times,serif" font-size="14.00">Expression</text>
</g>
<!-- node_15 -->
<g id="node15" class="node">
<title>node_15</title>
<polygon fill="lightblue" stroke="black" points="112.5,-3060 0.5,-3060 0.5,-3024 112.5,-3024 112.5,-3060"/>
<text text-anchor="middle" x="56.5" y="-3038.3" font-family="Times,serif" font-size="14.00">Function Call</text>
</g>
<!-- node_14&#45;&gt;node_15 -->
<g id="edge14" class="edge">
<title>node_14&#45;&gt;node_15</title>
<path fill="none" stroke="black" d="M56.5,-3095.7C56.5,-3087.98 56.5,-3078.71 56.5,-3070.11"/>
<polygon fill="black" stroke="black" points="60,-3070.1 56.5,-3060.1 53,-3070.1 60,-3070.1"/>
</g>
<!-- node_16 -->
<g id="node65" class="node">
<title>node_16</title>
<polygon fill="lightblue" stroke="black" points="94.5,-2988 18.5,-2988 18.5,-2952 94.5,-2952 94.5,-2988"/>
<text text-anchor="middle" x="56.5" y="-2966.3" font-family="Times,serif" font-size="14.00">node_16</text>
</g>
<!-- node_15&#45;&gt;node_16 -->
<g id="edge15" class="edge">
<title>node_15&#45;&gt;node_16</title>
<path fill="none" stroke="black" d="M56.5,-3023.7C56.5,-3015.98 56.5,-3006.71 56.5,-2998.11"/>
<polygon fill="black" stroke="black" points="60,-2998.1 56.5,-2988.1 53,-2998.1 60,-2998.1"/>
</g>
<!-- stop_16 -->
<g id="node16" class="node">
<title>stop_16</title>
<ellipse fill="lightcoral" stroke="black" cx="751.5" cy="-4050" rx="32.49" ry="18"/>
<text text-anchor="middle" x="751.5" y="-4046.3" font-family="Times,serif" font-size="14.00">Stop</text>
</g>
<!-- start_17 -->
<g id="node17" class="node">
<title>start_17</title>
<ellipse fill="lightgreen" stroke="black" cx="836.5" cy="-4050" rx="34.39" ry="18"/>
<text text-anchor="middle" x="836.5" y="-4046.3" font-family="Times,serif" font-size="14.00">Start</text>
</g>
<!-- node_18 -->
<g id="node18" class="node">
<title>node_18</title>
<polygon fill="lightblue" stroke="black" points="104.5,-2844 8.5,-2844 8.5,-2808 104.5,-2808 104.5,-2844"/>
<text text-anchor="middle" x="56.5" y="-2822.3" font-family="Times,serif" font-size="14.00">Expression</text>
</g>
<!-- node_19 -->
<g id="node67" class="node">
<title>node_19</title>
<polygon fill="lightblue" stroke="black" points="94.5,-2772 18.5,-2772 18.5,-2736 94.5,-2736 94.5,-2772"/>
<text text-anchor="middle" x="56.5" y="-2750.3" font-family="Times,serif" font-size="14.00">node_19</text>
</g>
<!-- node_18&#45;&gt;node_19 -->
<g id="edge18" class="edge">
<title>node_18&#45;&gt;node_19</title>
<path fill="none" stroke="black" d="M56.5,-2807.7C56.5,-2799.98 56.5,-2790.71 56.5,-2782.11"/>
<polygon fill="black" stroke="black" points="60,-2782.1 56.5,-2772.1 53,-2782.1 60,-2782.1"/>
</g>
<!-- stop_19 -->
<g id="node19" class="node">
<title>stop_19</title>
<ellipse fill="lightcoral" stroke="black" cx="921.5" cy="-4050" rx="32.49" ry="18"/>
<text text-anchor="middle" x="921.5" y="-4046.3" font-family="Times,serif" font-size="14.00">Stop</text>
</g>
<!-- start_20 -->
<g id="node20" class="node">
<title>start_20</title>
<ellipse fill="lightgreen" stroke="black" cx="1006.5" cy="-4050" rx="34.39" ry="18"/>
<text text-anchor="middle" x="1006.5" y="-4046.3" font-family="Times,serif" font-size="14.00">Start</text>
</g>
<!-- node_21 -->
<g id="node21" class="node">
<title>node_21</title>
<polygon fill="lightblue" stroke="black" points="104.5,-2628 8.5,-2628 8.5,-2592 104.5,-2592 104.5,-2628"/>
<text text-anchor="middle" x="56.5" y="-2606.3" font-family="Times,serif" font-size="14.00">Expression</text>
</g>
<!-- node_22 -->
<g id="node22" class="node">
<title>node_22</title>
<polygon fill="lightblue" stroke="black" points="113,-2556 0,-2556 0,-2520 113,-2520 113,-2556"/>
<text text-anchor="middle" x="56.5" y="-2534.3" font-family="Times,serif" font-size="14.00">Call: setattr()</text>
</g>
<!-- node_21&#45;&gt;node_22 -->
<g id="edge21" class="edge">
<title>node_21&#45;&gt;node_22</title>
<path fill="none" stroke="black" d="M56.5,-2591.7C56.5,-2583.98 56.5,-2574.71 56.5,-2566.11"/>
<polygon fill="black" stroke="black" points="60,-2566.1 56.5,-2556.1 53,-2566.1 60,-2566.1"/>
</g>
<!-- node_23 -->
<g id="node23" class="node">
<title>node_23</title>
<polygon fill="lightblue" stroke="black" points="112.5,-2484 0.5,-2484 0.5,-2448 112.5,-2448 112.5,-2484"/>
<text text-anchor="middle" x="56.5" y="-2462.3" font-family="Times,serif" font-size="14.00">Function Call</text>
</g>
<!-- node_22&#45;&gt;node_23 -->
<g id="edge22" class="edge">
<title>node_22&#45;&gt;node_23</title>
<path fill="none" stroke="black" d="M56.5,-2519.7C56.5,-2511.98 56.5,-2502.71 56.5,-2494.11"/>
<polygon fill="black" stroke="black" points="60,-2494.1 56.5,-2484.1 53,-2494.1 60,-2494.1"/>
</g>
<!-- node_24 -->
<g id="node69" class="node">
<title>node_24</title>
<polygon fill="lightblue" stroke="black" points="94.5,-2412 18.5,-2412 18.5,-2376 94.5,-2376 94.5,-2412"/>
<text text-anchor="middle" x="56.5" y="-2390.3" font-family="Times,serif" font-size="14.00">node_24</text>
</g>
<!-- node_23&#45;&gt;node_24 -->
<g id="edge23" class="edge">
<title>node_23&#45;&gt;node_24</title>
<path fill="none" stroke="black" d="M56.5,-2447.7C56.5,-2439.98 56.5,-2430.71 56.5,-2422.11"/>
<polygon fill="black" stroke="black" points="60,-2422.1 56.5,-2412.1 53,-2422.1 60,-2422.1"/>
</g>
<!-- stop_24 -->
<g id="node24" class="node">
<title>stop_24</title>
<ellipse fill="lightcoral" stroke="black" cx="1091.5" cy="-4050" rx="32.49" ry="18"/>
<text text-anchor="middle" x="1091.5" y="-4046.3" font-family="Times,serif" font-size="14.00">Stop</text>
</g>
<!-- start_25 -->
<g id="node25" class="node">
<title>start_25</title>
<ellipse fill="lightgreen" stroke="black" cx="1176.5" cy="-4050" rx="34.39" ry="18"/>
<text text-anchor="middle" x="1176.5" y="-4046.3" font-family="Times,serif" font-size="14.00">Start</text>
</g>
<!-- node_26 -->
<g id="node26" class="node">
<title>node_26</title>
<polygon fill="lightblue" stroke="black" points="104.5,-2268 8.5,-2268 8.5,-2232 104.5,-2232 104.5,-2268"/>
<text text-anchor="middle" x="56.5" y="-2246.3" font-family="Times,serif" font-size="14.00">Expression</text>
</g>
<!-- node_27 -->
<g id="node71" class="node">
<title>node_27</title>
<polygon fill="lightblue" stroke="black" points="94.5,-2196 18.5,-2196 18.5,-2160 94.5,-2160 94.5,-2196"/>
<text text-anchor="middle" x="56.5" y="-2174.3" font-family="Times,serif" font-size="14.00">node_27</text>
</g>
<!-- node_26&#45;&gt;node_27 -->
<g id="edge26" class="edge">
<title>node_26&#45;&gt;node_27</title>
<path fill="none" stroke="black" d="M56.5,-2231.7C56.5,-2223.98 56.5,-2214.71 56.5,-2206.11"/>
<polygon fill="black" stroke="black" points="60,-2206.1 56.5,-2196.1 53,-2206.1 60,-2206.1"/>
</g>
<!-- stop_27 -->
<g id="node27" class="node">
<title>stop_27</title>
<ellipse fill="lightcoral" stroke="black" cx="1261.5" cy="-4050" rx="32.49" ry="18"/>
<text text-anchor="middle" x="1261.5" y="-4046.3" font-family="Times,serif" font-size="14.00">Stop</text>
</g>
<!-- start_28 -->
<g id="node28" class="node">
<title>start_28</title>
<ellipse fill="lightgreen" stroke="black" cx="1346.5" cy="-4050" rx="34.39" ry="18"/>
<text text-anchor="middle" x="1346.5" y="-4046.3" font-family="Times,serif" font-size="14.00">Start</text>
</g>
<!-- node_29 -->
<g id="node29" class="node">
<title>node_29</title>
<polygon fill="lightblue" stroke="black" points="104.5,-2052 8.5,-2052 8.5,-2016 104.5,-2016 104.5,-2052"/>
<text text-anchor="middle" x="56.5" y="-2030.3" font-family="Times,serif" font-size="14.00">Expression</text>
</g>
<!-- node_30 -->
<g id="node30" class="node">
<title>node_30</title>
<polygon fill="lightblue" stroke="black" points="112.5,-1980 0.5,-1980 0.5,-1944 112.5,-1944 112.5,-1980"/>
<text text-anchor="middle" x="56.5" y="-1958.3" font-family="Times,serif" font-size="14.00">Function Call</text>
</g>
<!-- node_29&#45;&gt;node_30 -->
<g id="edge29" class="edge">
<title>node_29&#45;&gt;node_30</title>
<path fill="none" stroke="black" d="M56.5,-2015.7C56.5,-2007.98 56.5,-1998.71 56.5,-1990.11"/>
<polygon fill="black" stroke="black" points="60,-1990.1 56.5,-1980.1 53,-1990.1 60,-1990.1"/>
</g>
<!-- node_31 -->
<g id="node73" class="node">
<title>node_31</title>
<polygon fill="lightblue" stroke="black" points="94.5,-1908 18.5,-1908 18.5,-1872 94.5,-1872 94.5,-1908"/>
<text text-anchor="middle" x="56.5" y="-1886.3" font-family="Times,serif" font-size="14.00">node_31</text>
</g>
<!-- node_30&#45;&gt;node_31 -->
<g id="edge30" class="edge">
<title>node_30&#45;&gt;node_31</title>
<path fill="none" stroke="black" d="M56.5,-1943.7C56.5,-1935.98 56.5,-1926.71 56.5,-1918.11"/>
<polygon fill="black" stroke="black" points="60,-1918.1 56.5,-1908.1 53,-1918.1 60,-1918.1"/>
</g>
<!-- stop_31 -->
<g id="node31" class="node">
<title>stop_31</title>
<ellipse fill="lightcoral" stroke="black" cx="1431.5" cy="-4050" rx="32.49" ry="18"/>
<text text-anchor="middle" x="1431.5" y="-4046.3" font-family="Times,serif" font-size="14.00">Stop</text>
</g>
<!-- start_32 -->
<g id="node32" class="node">
<title>start_32</title>
<ellipse fill="lightgreen" stroke="black" cx="1516.5" cy="-4050" rx="34.39" ry="18"/>
<text text-anchor="middle" x="1516.5" y="-4046.3" font-family="Times,serif" font-size="14.00">Start</text>
</g>
<!-- node_33 -->
<g id="node33" class="node">
<title>node_33</title>
<polygon fill="lightblue" stroke="black" points="104.5,-1764 8.5,-1764 8.5,-1728 104.5,-1728 104.5,-1764"/>
<text text-anchor="middle" x="56.5" y="-1742.3" font-family="Times,serif" font-size="14.00">Expression</text>
</g>
<!-- node_34 -->
<g id="node34" class="node">
<title>node_34</title>
<polygon fill="lightblue" stroke="black" points="112.5,-1692 0.5,-1692 0.5,-1656 112.5,-1656 112.5,-1692"/>
<text text-anchor="middle" x="56.5" y="-1670.3" font-family="Times,serif" font-size="14.00">Function Call</text>
</g>
<!-- node_33&#45;&gt;node_34 -->
<g id="edge33" class="edge">
<title>node_33&#45;&gt;node_34</title>
<path fill="none" stroke="black" d="M56.5,-1727.7C56.5,-1719.98 56.5,-1710.71 56.5,-1702.11"/>
<polygon fill="black" stroke="black" points="60,-1702.1 56.5,-1692.1 53,-1702.1 60,-1702.1"/>
</g>
<!-- node_35 -->
<g id="node75" class="node">
<title>node_35</title>
<polygon fill="lightblue" stroke="black" points="94.5,-1620 18.5,-1620 18.5,-1584 94.5,-1584 94.5,-1620"/>
<text text-anchor="middle" x="56.5" y="-1598.3" font-family="Times,serif" font-size="14.00">node_35</text>
</g>
<!-- node_34&#45;&gt;node_35 -->
<g id="edge34" class="edge">
<title>node_34&#45;&gt;node_35</title>
<path fill="none" stroke="black" d="M56.5,-1655.7C56.5,-1647.98 56.5,-1638.71 56.5,-1630.11"/>
<polygon fill="black" stroke="black" points="60,-1630.1 56.5,-1620.1 53,-1630.1 60,-1630.1"/>
</g>
<!-- stop_35 -->
<g id="node35" class="node">
<title>stop_35</title>
<ellipse fill="lightcoral" stroke="black" cx="1601.5" cy="-4050" rx="32.49" ry="18"/>
<text text-anchor="middle" x="1601.5" y="-4046.3" font-family="Times,serif" font-size="14.00">Stop</text>
</g>
<!-- node_36 -->
<g id="node36" class="node">
<title>node_36</title>
<polygon fill="lightblue" stroke="black" points="104.5,-1548 8.5,-1548 8.5,-1512 104.5,-1512 104.5,-1548"/>
<text text-anchor="middle" x="56.5" y="-1526.3" font-family="Times,serif" font-size="14.00">Expression</text>
</g>
<!-- node_37 -->
<g id="node76" class="node">
<title>node_37</title>
<polygon fill="lightblue" stroke="black" points="94.5,-1476 18.5,-1476 18.5,-1440 94.5,-1440 94.5,-1476"/>
<text text-anchor="middle" x="56.5" y="-1454.3" font-family="Times,serif" font-size="14.00">node_37</text>
</g>
<!-- node_36&#45;&gt;node_37 -->
<g id="edge36" class="edge">
<title>node_36&#45;&gt;node_37</title>
<path fill="none" stroke="black" d="M56.5,-1511.7C56.5,-1503.98 56.5,-1494.71 56.5,-1486.11"/>
<polygon fill="black" stroke="black" points="60,-1486.1 56.5,-1476.1 53,-1486.1 60,-1486.1"/>
</g>
<!-- start_37 -->
<g id="node37" class="node">
<title>start_37</title>
<ellipse fill="lightgreen" stroke="black" cx="1686.5" cy="-4050" rx="34.39" ry="18"/>
<text text-anchor="middle" x="1686.5" y="-4046.3" font-family="Times,serif" font-size="14.00">Start</text>
</g>
<!-- stop_38 -->
<g id="node38" class="node">
<title>stop_38</title>
<ellipse fill="lightcoral" stroke="black" cx="1771.5" cy="-4050" rx="32.49" ry="18"/>
<text text-anchor="middle" x="1771.5" y="-4046.3" font-family="Times,serif" font-size="14.00">Stop</text>
</g>
<!-- start_39 -->
<g id="node39" class="node">
<title>start_39</title>
<ellipse fill="lightgreen" stroke="black" cx="1856.5" cy="-4050" rx="34.39" ry="18"/>
<text text-anchor="middle" x="1856.5" y="-4046.3" font-family="Times,serif" font-size="14.00">Start</text>
</g>
<!-- node_40 -->
<g id="node40" class="node">
<title>node_40</title>
<polygon fill="lightblue" stroke="black" points="104.5,-1260 8.5,-1260 8.5,-1224 104.5,-1224 104.5,-1260"/>
<text text-anchor="middle" x="56.5" y="-1238.3" font-family="Times,serif" font-size="14.00">Expression</text>
</g>
<!-- node_41 -->
<g id="node79" class="node">
<title>node_41</title>
<polygon fill="lightblue" stroke="black" points="94.5,-1188 18.5,-1188 18.5,-1152 94.5,-1152 94.5,-1188"/>
<text text-anchor="middle" x="56.5" y="-1166.3" font-family="Times,serif" font-size="14.00">node_41</text>
</g>
<!-- node_40&#45;&gt;node_41 -->
<g id="edge40" class="edge">
<title>node_40&#45;&gt;node_41</title>
<path fill="none" stroke="black" d="M56.5,-1223.7C56.5,-1215.98 56.5,-1206.71 56.5,-1198.11"/>
<polygon fill="black" stroke="black" points="60,-1198.1 56.5,-1188.1 53,-1198.1 60,-1198.1"/>
</g>
<!-- stop_41 -->
<g id="node41" class="node">
<title>stop_41</title>
<ellipse fill="lightcoral" stroke="black" cx="1941.5" cy="-4050" rx="32.49" ry="18"/>
<text text-anchor="middle" x="1941.5" y="-4046.3" font-family="Times,serif" font-size="14.00">Stop</text>
</g>
<!-- start_42 -->
<g id="node42" class="node">
<title>start_42</title>
<ellipse fill="lightgreen" stroke="black" cx="2026.5" cy="-4050" rx="34.39" ry="18"/>
<text text-anchor="middle" x="2026.5" y="-4046.3" font-family="Times,serif" font-size="14.00">Start</text>
</g>
<!-- node_43 -->
<g id="node43" class="node">
<title>node_43</title>
<polygon fill="lightblue" stroke="black" points="104.5,-1044 8.5,-1044 8.5,-1008 104.5,-1008 104.5,-1044"/>
<text text-anchor="middle" x="56.5" y="-1022.3" font-family="Times,serif" font-size="14.00">Expression</text>
</g>
<!-- node_44 -->
<g id="node81" class="node">
<title>node_44</title>
<polygon fill="lightblue" stroke="black" points="94.5,-972 18.5,-972 18.5,-936 94.5,-936 94.5,-972"/>
<text text-anchor="middle" x="56.5" y="-950.3" font-family="Times,serif" font-size="14.00">node_44</text>
</g>
<!-- node_43&#45;&gt;node_44 -->
<g id="edge43" class="edge">
<title>node_43&#45;&gt;node_44</title>
<path fill="none" stroke="black" d="M56.5,-1007.7C56.5,-999.98 56.5,-990.71 56.5,-982.11"/>
<polygon fill="black" stroke="black" points="60,-982.1 56.5,-972.1 53,-982.1 60,-982.1"/>
</g>
<!-- stop_44 -->
<g id="node44" class="node">
<title>stop_44</title>
<ellipse fill="lightcoral" stroke="black" cx="2111.5" cy="-4050" rx="32.49" ry="18"/>
<text text-anchor="middle" x="2111.5" y="-4046.3" font-family="Times,serif" font-size="14.00">Stop</text>
</g>
<!-- start_45 -->
<g id="node45" class="node">
<title>start_45</title>
<ellipse fill="lightgreen" stroke="black" cx="2196.5" cy="-4050" rx="34.39" ry="18"/>
<text text-anchor="middle" x="2196.5" y="-4046.3" font-family="Times,serif" font-size="14.00">Start</text>
</g>
<!-- node_46 -->
<g id="node46" class="node">
<title>node_46</title>
<polygon fill="lightblue" stroke="black" points="104.5,-828 8.5,-828 8.5,-792 104.5,-792 104.5,-828"/>
<text text-anchor="middle" x="56.5" y="-806.3" font-family="Times,serif" font-size="14.00">Expression</text>
</g>
<!-- node_47 -->
<g id="node83" class="node">
<title>node_47</title>
<polygon fill="lightblue" stroke="black" points="94.5,-756 18.5,-756 18.5,-720 94.5,-720 94.5,-756"/>
<text text-anchor="middle" x="56.5" y="-734.3" font-family="Times,serif" font-size="14.00">node_47</text>
</g>
<!-- node_46&#45;&gt;node_47 -->
<g id="edge46" class="edge">
<title>node_46&#45;&gt;node_47</title>
<path fill="none" stroke="black" d="M56.5,-791.7C56.5,-783.98 56.5,-774.71 56.5,-766.11"/>
<polygon fill="black" stroke="black" points="60,-766.1 56.5,-756.1 53,-766.1 60,-766.1"/>
</g>
<!-- stop_47 -->
<g id="node47" class="node">
<title>stop_47</title>
<ellipse fill="lightcoral" stroke="black" cx="2281.5" cy="-4050" rx="32.49" ry="18"/>
<text text-anchor="middle" x="2281.5" y="-4046.3" font-family="Times,serif" font-size="14.00">Stop</text>
</g>
<!-- start_48 -->
<g id="node48" class="node">
<title>start_48</title>
<ellipse fill="lightgreen" stroke="black" cx="2366.5" cy="-4050" rx="34.39" ry="18"/>
<text text-anchor="middle" x="2366.5" y="-4046.3" font-family="Times,serif" font-size="14.00">Start</text>
</g>
<!-- node_49 -->
<g id="node49" class="node">
<title>node_49</title>
<polygon fill="lightblue" stroke="black" points="104.5,-612 8.5,-612 8.5,-576 104.5,-576 104.5,-612"/>
<text text-anchor="middle" x="56.5" y="-590.3" font-family="Times,serif" font-size="14.00">Expression</text>
</g>
<!-- node_50 -->
<g id="node85" class="node">
<title>node_50</title>
<polygon fill="lightblue" stroke="black" points="94.5,-540 18.5,-540 18.5,-504 94.5,-504 94.5,-540"/>
<text text-anchor="middle" x="56.5" y="-518.3" font-family="Times,serif" font-size="14.00">node_50</text>
</g>
<!-- node_49&#45;&gt;node_50 -->
<g id="edge49" class="edge">
<title>node_49&#45;&gt;node_50</title>
<path fill="none" stroke="black" d="M56.5,-575.7C56.5,-567.98 56.5,-558.71 56.5,-550.11"/>
<polygon fill="black" stroke="black" points="60,-550.1 56.5,-540.1 53,-550.1 60,-550.1"/>
</g>
<!-- stop_50 -->
<g id="node50" class="node">
<title>stop_50</title>
<ellipse fill="lightcoral" stroke="black" cx="2451.5" cy="-4050" rx="32.49" ry="18"/>
<text text-anchor="middle" x="2451.5" y="-4046.3" font-family="Times,serif" font-size="14.00">Stop</text>
</g>
<!-- start_51 -->
<g id="node51" class="node">
<title>start_51</title>
<ellipse fill="lightgreen" stroke="black" cx="2536.5" cy="-4050" rx="34.39" ry="18"/>
<text text-anchor="middle" x="2536.5" y="-4046.3" font-family="Times,serif" font-size="14.00">Start</text>
</g>
<!-- node_52 -->
<g id="node52" class="node">
<title>node_52</title>
<polygon fill="lightblue" stroke="black" points="104.5,-396 8.5,-396 8.5,-360 104.5,-360 104.5,-396"/>
<text text-anchor="middle" x="56.5" y="-374.3" font-family="Times,serif" font-size="14.00">Expression</text>
</g>
<!-- node_53 -->
<g id="node53" class="node">
<title>node_53</title>
<polygon fill="lightblue" stroke="black" points="112.5,-324 0.5,-324 0.5,-288 112.5,-288 112.5,-324"/>
<text text-anchor="middle" x="56.5" y="-302.3" font-family="Times,serif" font-size="14.00">Function Call</text>
</g>
<!-- node_52&#45;&gt;node_53 -->
<g id="edge52" class="edge">
<title>node_52&#45;&gt;node_53</title>
<path fill="none" stroke="black" d="M56.5,-359.7C56.5,-351.98 56.5,-342.71 56.5,-334.11"/>
<polygon fill="black" stroke="black" points="60,-334.1 56.5,-324.1 53,-334.1 60,-334.1"/>
</g>
<!-- node_54 -->
<g id="node54" class="node">
<title>node_54</title>
<polygon fill="lightblue" stroke="black" points="112.5,-252 0.5,-252 0.5,-216 112.5,-216 112.5,-252"/>
<text text-anchor="middle" x="56.5" y="-230.3" font-family="Times,serif" font-size="14.00">Function Call</text>
</g>
<!-- node_53&#45;&gt;node_54 -->
<g id="edge53" class="edge">
<title>node_53&#45;&gt;node_54</title>
<path fill="none" stroke="black" d="M56.5,-287.7C56.5,-279.98 56.5,-270.71 56.5,-262.11"/>
<polygon fill="black" stroke="black" points="60,-262.1 56.5,-252.1 53,-262.1 60,-262.1"/>
</g>
<!-- node_55 -->
<g id="node55" class="node">
<title>node_55</title>
<polygon fill="lightblue" stroke="black" points="112.5,-180 0.5,-180 0.5,-144 112.5,-144 112.5,-180"/>
<text text-anchor="middle" x="56.5" y="-158.3" font-family="Times,serif" font-size="14.00">Function Call</text>
</g>
<!-- node_54&#45;&gt;node_55 -->
<g id="edge54" class="edge">
<title>node_54&#45;&gt;node_55</title>
<path fill="none" stroke="black" d="M56.5,-215.7C56.5,-207.98 56.5,-198.71 56.5,-190.11"/>
<polygon fill="black" stroke="black" points="60,-190.1 56.5,-180.1 53,-190.1 60,-190.1"/>
</g>
<!-- node_56 -->
<g id="node56" class="node">
<title>node_56</title>
<polygon fill="lightblue" stroke="black" points="112.5,-108 0.5,-108 0.5,-72 112.5,-72 112.5,-108"/>
<text text-anchor="middle" x="56.5" y="-86.3" font-family="Times,serif" font-size="14.00">Function Call</text>
</g>
<!-- node_55&#45;&gt;node_56 -->
<g id="edge55" class="edge">
<title>node_55&#45;&gt;node_56</title>
<path fill="none" stroke="black" d="M56.5,-143.7C56.5,-135.98 56.5,-126.71 56.5,-118.11"/>
<polygon fill="black" stroke="black" points="60,-118.1 56.5,-108.1 53,-118.1 60,-118.1"/>
</g>
<!-- node_57 -->
<g id="node87" class="node">
<title>node_57</title>
<polygon fill="lightblue" stroke="black" points="94.5,-36 18.5,-36 18.5,0 94.5,0 94.5,-36"/>
<text text-anchor="middle" x="56.5" y="-14.3" font-family="Times,serif" font-size="14.00">node_57</text>
</g>
<!-- node_56&#45;&gt;node_57 -->
<g id="edge56" class="edge">
<title>node_56&#45;&gt;node_57</title>
<path fill="none" stroke="black" d="M56.5,-71.7C56.5,-63.98 56.5,-54.71 56.5,-46.11"/>
<polygon fill="black" stroke="black" points="60,-46.1 56.5,-36.1 53,-46.1 60,-46.1"/>
</g>
<!-- stop_57 -->
<g id="node57" class="node">
<title>stop_57</title>
<ellipse fill="lightcoral" stroke="black" cx="2621.5" cy="-4050" rx="32.49" ry="18"/>
<text text-anchor="middle" x="2621.5" y="-4046.3" font-family="Times,serif" font-size="14.00">Stop</text>
</g>
<!-- node_3&#45;&gt;node_4 -->
<g id="edge3" class="edge">
<title>node_3&#45;&gt;node_4</title>
<path fill="none" stroke="black" d="M56.5,-3887.7C56.5,-3879.98 56.5,-3870.71 56.5,-3862.11"/>
<polygon fill="black" stroke="black" points="60,-3862.1 56.5,-3852.1 53,-3862.1 60,-3862.1"/>
</g>
<!-- node_5&#45;&gt;node_6 -->
<g id="edge5" class="edge">
<title>node_5&#45;&gt;node_6</title>
<path fill="none" stroke="black" d="M56.5,-3743.7C56.5,-3735.98 56.5,-3726.71 56.5,-3718.11"/>
<polygon fill="black" stroke="black" points="60,-3718.1 56.5,-3708.1 53,-3718.1 60,-3718.1"/>
</g>
<!-- node_7&#45;&gt;node_8 -->
<g id="edge7" class="edge">
<title>node_7&#45;&gt;node_8</title>
<path fill="none" stroke="black" d="M56.5,-3599.7C56.5,-3591.98 56.5,-3582.71 56.5,-3574.11"/>
<polygon fill="black" stroke="black" points="60,-3574.1 56.5,-3564.1 53,-3574.1 60,-3574.1"/>
</g>
<!-- node_10 -->
<g id="node62" class="node">
<title>node_10</title>
<polygon fill="lightblue" stroke="black" points="94.5,-3420 18.5,-3420 18.5,-3384 94.5,-3384 94.5,-3420"/>
<text text-anchor="middle" x="56.5" y="-3398.3" font-family="Times,serif" font-size="14.00">node_10</text>
</g>
<!-- node_9&#45;&gt;node_10 -->
<g id="edge9" class="edge">
<title>node_9&#45;&gt;node_10</title>
<path fill="none" stroke="black" d="M56.5,-3455.7C56.5,-3447.98 56.5,-3438.71 56.5,-3430.11"/>
<polygon fill="black" stroke="black" points="60,-3430.1 56.5,-3420.1 53,-3430.1 60,-3430.1"/>
</g>
<!-- node_10&#45;&gt;node_11 -->
<g id="edge10" class="edge">
<title>node_10&#45;&gt;node_11</title>
<path fill="none" stroke="black" d="M56.5,-3383.7C56.5,-3375.98 56.5,-3366.71 56.5,-3358.11"/>
<polygon fill="black" stroke="black" points="60,-3358.1 56.5,-3348.1 53,-3358.1 60,-3358.1"/>
</g>
<!-- node_13 -->
<g id="node64" class="node">
<title>node_13</title>
<polygon fill="lightblue" stroke="black" points="94.5,-3204 18.5,-3204 18.5,-3168 94.5,-3168 94.5,-3204"/>
<text text-anchor="middle" x="56.5" y="-3182.3" font-family="Times,serif" font-size="14.00">node_13</text>
</g>
<!-- node_12&#45;&gt;node_13 -->
<g id="edge12" class="edge">
<title>node_12&#45;&gt;node_13</title>
<path fill="none" stroke="black" d="M56.5,-3239.7C56.5,-3231.98 56.5,-3222.71 56.5,-3214.11"/>
<polygon fill="black" stroke="black" points="60,-3214.1 56.5,-3204.1 53,-3214.1 60,-3214.1"/>
</g>
<!-- node_13&#45;&gt;node_14 -->
<g id="edge13" class="edge">
<title>node_13&#45;&gt;node_14</title>
<path fill="none" stroke="black" d="M56.5,-3167.7C56.5,-3159.98 56.5,-3150.71 56.5,-3142.11"/>
<polygon fill="black" stroke="black" points="60,-3142.1 56.5,-3132.1 53,-3142.1 60,-3142.1"/>
</g>
<!-- node_17 -->
<g id="node66" class="node">
<title>node_17</title>
<polygon fill="lightblue" stroke="black" points="94.5,-2916 18.5,-2916 18.5,-2880 94.5,-2880 94.5,-2916"/>
<text text-anchor="middle" x="56.5" y="-2894.3" font-family="Times,serif" font-size="14.00">node_17</text>
</g>
<!-- node_16&#45;&gt;node_17 -->
<g id="edge16" class="edge">
<title>node_16&#45;&gt;node_17</title>
<path fill="none" stroke="black" d="M56.5,-2951.7C56.5,-2943.98 56.5,-2934.71 56.5,-2926.11"/>
<polygon fill="black" stroke="black" points="60,-2926.1 56.5,-2916.1 53,-2926.1 60,-2926.1"/>
</g>
<!-- node_17&#45;&gt;node_18 -->
<g id="edge17" class="edge">
<title>node_17&#45;&gt;node_18</title>
<path fill="none" stroke="black" d="M56.5,-2879.7C56.5,-2871.98 56.5,-2862.71 56.5,-2854.11"/>
<polygon fill="black" stroke="black" points="60,-2854.1 56.5,-2844.1 53,-2854.1 60,-2854.1"/>
</g>
<!-- node_20 -->
<g id="node68" class="node">
<title>node_20</title>
<polygon fill="lightblue" stroke="black" points="94.5,-2700 18.5,-2700 18.5,-2664 94.5,-2664 94.5,-2700"/>
<text text-anchor="middle" x="56.5" y="-2678.3" font-family="Times,serif" font-size="14.00">node_20</text>
</g>
<!-- node_19&#45;&gt;node_20 -->
<g id="edge19" class="edge">
<title>node_19&#45;&gt;node_20</title>
<path fill="none" stroke="black" d="M56.5,-2735.7C56.5,-2727.98 56.5,-2718.71 56.5,-2710.11"/>
<polygon fill="black" stroke="black" points="60,-2710.1 56.5,-2700.1 53,-2710.1 60,-2710.1"/>
</g>
<!-- node_20&#45;&gt;node_21 -->
<g id="edge20" class="edge">
<title>node_20&#45;&gt;node_21</title>
<path fill="none" stroke="black" d="M56.5,-2663.7C56.5,-2655.98 56.5,-2646.71 56.5,-2638.11"/>
<polygon fill="black" stroke="black" points="60,-2638.1 56.5,-2628.1 53,-2638.1 60,-2638.1"/>
</g>
<!-- node_25 -->
<g id="node70" class="node">
<title>node_25</title>
<polygon fill="lightblue" stroke="black" points="94.5,-2340 18.5,-2340 18.5,-2304 94.5,-2304 94.5,-2340"/>
<text text-anchor="middle" x="56.5" y="-2318.3" font-family="Times,serif" font-size="14.00">node_25</text>
</g>
<!-- node_24&#45;&gt;node_25 -->
<g id="edge24" class="edge">
<title>node_24&#45;&gt;node_25</title>
<path fill="none" stroke="black" d="M56.5,-2375.7C56.5,-2367.98 56.5,-2358.71 56.5,-2350.11"/>
<polygon fill="black" stroke="black" points="60,-2350.1 56.5,-2340.1 53,-2350.1 60,-2350.1"/>
</g>
<!-- node_25&#45;&gt;node_26 -->
<g id="edge25" class="edge">
<title>node_25&#45;&gt;node_26</title>
<path fill="none" stroke="black" d="M56.5,-2303.7C56.5,-2295.98 56.5,-2286.71 56.5,-2278.11"/>
<polygon fill="black" stroke="black" points="60,-2278.1 56.5,-2268.1 53,-2278.1 60,-2278.1"/>
</g>
<!-- node_28 -->
<g id="node72" class="node">
<title>node_28</title>
<polygon fill="lightblue" stroke="black" points="94.5,-2124 18.5,-2124 18.5,-2088 94.5,-2088 94.5,-2124"/>
<text text-anchor="middle" x="56.5" y="-2102.3" font-family="Times,serif" font-size="14.00">node_28</text>
</g>
<!-- node_27&#45;&gt;node_28 -->
<g id="edge27" class="edge">
<title>node_27&#45;&gt;node_28</title>
<path fill="none" stroke="black" d="M56.5,-2159.7C56.5,-2151.98 56.5,-2142.71 56.5,-2134.11"/>
<polygon fill="black" stroke="black" points="60,-2134.1 56.5,-2124.1 53,-2134.1 60,-2134.1"/>
</g>
<!-- node_28&#45;&gt;node_29 -->
<g id="edge28" class="edge">
<title>node_28&#45;&gt;node_29</title>
<path fill="none" stroke="black" d="M56.5,-2087.7C56.5,-2079.98 56.5,-2070.71 56.5,-2062.11"/>
<polygon fill="black" stroke="black" points="60,-2062.1 56.5,-2052.1 53,-2062.1 60,-2062.1"/>
</g>
<!-- node_32 -->
<g id="node74" class="node">
<title>node_32</title>
<polygon fill="lightblue" stroke="black" points="94.5,-1836 18.5,-1836 18.5,-1800 94.5,-1800 94.5,-1836"/>
<text text-anchor="middle" x="56.5" y="-1814.3" font-family="Times,serif" font-size="14.00">node_32</text>
</g>
<!-- node_31&#45;&gt;node_32 -->
<g id="edge31" class="edge">
<title>node_31&#45;&gt;node_32</title>
<path fill="none" stroke="black" d="M56.5,-1871.7C56.5,-1863.98 56.5,-1854.71 56.5,-1846.11"/>
<polygon fill="black" stroke="black" points="60,-1846.1 56.5,-1836.1 53,-1846.1 60,-1846.1"/>
</g>
<!-- node_32&#45;&gt;node_33 -->
<g id="edge32" class="edge">
<title>node_32&#45;&gt;node_33</title>
<path fill="none" stroke="black" d="M56.5,-1799.7C56.5,-1791.98 56.5,-1782.71 56.5,-1774.11"/>
<polygon fill="black" stroke="black" points="60,-1774.1 56.5,-1764.1 53,-1774.1 60,-1774.1"/>
</g>
<!-- node_35&#45;&gt;node_36 -->
<g id="edge35" class="edge">
<title>node_35&#45;&gt;node_36</title>
<path fill="none" stroke="black" d="M56.5,-1583.7C56.5,-1575.98 56.5,-1566.71 56.5,-1558.11"/>
<polygon fill="black" stroke="black" points="60,-1558.1 56.5,-1548.1 53,-1558.1 60,-1558.1"/>
</g>
<!-- node_38 -->
<g id="node77" class="node">
<title>node_38</title>
<polygon fill="lightblue" stroke="black" points="94.5,-1404 18.5,-1404 18.5,-1368 94.5,-1368 94.5,-1404"/>
<text text-anchor="middle" x="56.5" y="-1382.3" font-family="Times,serif" font-size="14.00">node_38</text>
</g>
<!-- node_37&#45;&gt;node_38 -->
<g id="edge37" class="edge">
<title>node_37&#45;&gt;node_38</title>
<path fill="none" stroke="black" d="M56.5,-1439.7C56.5,-1431.98 56.5,-1422.71 56.5,-1414.11"/>
<polygon fill="black" stroke="black" points="60,-1414.1 56.5,-1404.1 53,-1414.1 60,-1414.1"/>
</g>
<!-- node_39 -->
<g id="node78" class="node">
<title>node_39</title>
<polygon fill="lightblue" stroke="black" points="94.5,-1332 18.5,-1332 18.5,-1296 94.5,-1296 94.5,-1332"/>
<text text-anchor="middle" x="56.5" y="-1310.3" font-family="Times,serif" font-size="14.00">node_39</text>
</g>
<!-- node_38&#45;&gt;node_39 -->
<g id="edge38" class="edge">
<title>node_38&#45;&gt;node_39</title>
<path fill="none" stroke="black" d="M56.5,-1367.7C56.5,-1359.98 56.5,-1350.71 56.5,-1342.11"/>
<polygon fill="black" stroke="black" points="60,-1342.1 56.5,-1332.1 53,-1342.1 60,-1342.1"/>
</g>
<!-- node_39&#45;&gt;node_40 -->
<g id="edge39" class="edge">
<title>node_39&#45;&gt;node_40</title>
<path fill="none" stroke="black" d="M56.5,-1295.7C56.5,-1287.98 56.5,-1278.71 56.5,-1270.11"/>
<polygon fill="black" stroke="black" points="60,-1270.1 56.5,-1260.1 53,-1270.1 60,-1270.1"/>
</g>
<!-- node_42 -->
<g id="node80" class="node">
<title>node_42</title>
<polygon fill="lightblue" stroke="black" points="94.5,-1116 18.5,-1116 18.5,-1080 94.5,-1080 94.5,-1116"/>
<text text-anchor="middle" x="56.5" y="-1094.3" font-family="Times,serif" font-size="14.00">node_42</text>
</g>
<!-- node_41&#45;&gt;node_42 -->
<g id="edge41" class="edge">
<title>node_41&#45;&gt;node_42</title>
<path fill="none" stroke="black" d="M56.5,-1151.7C56.5,-1143.98 56.5,-1134.71 56.5,-1126.11"/>
<polygon fill="black" stroke="black" points="60,-1126.1 56.5,-1116.1 53,-1126.1 60,-1126.1"/>
</g>
<!-- node_42&#45;&gt;node_43 -->
<g id="edge42" class="edge">
<title>node_42&#45;&gt;node_43</title>
<path fill="none" stroke="black" d="M56.5,-1079.7C56.5,-1071.98 56.5,-1062.71 56.5,-1054.11"/>
<polygon fill="black" stroke="black" points="60,-1054.1 56.5,-1044.1 53,-1054.1 60,-1054.1"/>
</g>
<!-- node_45 -->
<g id="node82" class="node">
<title>node_45</title>
<polygon fill="lightblue" stroke="black" points="94.5,-900 18.5,-900 18.5,-864 94.5,-864 94.5,-900"/>
<text text-anchor="middle" x="56.5" y="-878.3" font-family="Times,serif" font-size="14.00">node_45</text>
</g>
<!-- node_44&#45;&gt;node_45 -->
<g id="edge44" class="edge">
<title>node_44&#45;&gt;node_45</title>
<path fill="none" stroke="black" d="M56.5,-935.7C56.5,-927.98 56.5,-918.71 56.5,-910.11"/>
<polygon fill="black" stroke="black" points="60,-910.1 56.5,-900.1 53,-910.1 60,-910.1"/>
</g>
<!-- node_45&#45;&gt;node_46 -->
<g id="edge45" class="edge">
<title>node_45&#45;&gt;node_46</title>
<path fill="none" stroke="black" d="M56.5,-863.7C56.5,-855.98 56.5,-846.71 56.5,-838.11"/>
<polygon fill="black" stroke="black" points="60,-838.1 56.5,-828.1 53,-838.1 60,-838.1"/>
</g>
<!-- node_48 -->
<g id="node84" class="node">
<title>node_48</title>
<polygon fill="lightblue" stroke="black" points="94.5,-684 18.5,-684 18.5,-648 94.5,-648 94.5,-684"/>
<text text-anchor="middle" x="56.5" y="-662.3" font-family="Times,serif" font-size="14.00">node_48</text>
</g>
<!-- node_47&#45;&gt;node_48 -->
<g id="edge47" class="edge">
<title>node_47&#45;&gt;node_48</title>
<path fill="none" stroke="black" d="M56.5,-719.7C56.5,-711.98 56.5,-702.71 56.5,-694.11"/>
<polygon fill="black" stroke="black" points="60,-694.1 56.5,-684.1 53,-694.1 60,-694.1"/>
</g>
<!-- node_48&#45;&gt;node_49 -->
<g id="edge48" class="edge">
<title>node_48&#45;&gt;node_49</title>
<path fill="none" stroke="black" d="M56.5,-647.7C56.5,-639.98 56.5,-630.71 56.5,-622.11"/>
<polygon fill="black" stroke="black" points="60,-622.1 56.5,-612.1 53,-622.1 60,-622.1"/>
</g>
<!-- node_51 -->
<g id="node86" class="node">
<title>node_51</title>
<polygon fill="lightblue" stroke="black" points="94.5,-468 18.5,-468 18.5,-432 94.5,-432 94.5,-468"/>
<text text-anchor="middle" x="56.5" y="-446.3" font-family="Times,serif" font-size="14.00">node_51</text>
</g>
<!-- node_50&#45;&gt;node_51 -->
<g id="edge50" class="edge">
<title>node_50&#45;&gt;node_51</title>
<path fill="none" stroke="black" d="M56.5,-503.7C56.5,-495.98 56.5,-486.71 56.5,-478.11"/>
<polygon fill="black" stroke="black" points="60,-478.1 56.5,-468.1 53,-478.1 60,-478.1"/>
</g>
<!-- node_51&#45;&gt;node_52 -->
<g id="edge51" class="edge">
<title>node_51&#45;&gt;node_52</title>
<path fill="none" stroke="black" d="M56.5,-431.7C56.5,-423.98 56.5,-414.71 56.5,-406.11"/>
<polygon fill="black" stroke="black" points="60,-406.1 56.5,-396.1 53,-406.1 60,-406.1"/>
</g>
</g>
</svg>
