<?xml version="1.0" encoding="UTF-8" standalone="no"?>
<!DOCTYPE svg PUBLIC "-//W3C//DTD SVG 1.1//EN"
 "http://www.w3.org/Graphics/SVG/1.1/DTD/svg11.dtd">
<!-- Generated by graphviz version 2.43.0 (0)
 -->
<!-- Title: G Pages: 1 -->
<svg width="1131pt" height="3212pt"
 viewBox="0.00 0.00 1131.50 3212.00" xmlns="http://www.w3.org/2000/svg" xmlns:xlink="http://www.w3.org/1999/xlink">
<g id="graph0" class="graph" transform="scale(1 1) rotate(0) translate(4 3208)">
<title>G</title>
<polygon fill="white" stroke="transparent" points="-4,4 -4,-3208 1127.5,-3208 1127.5,4 -4,4"/>
<!-- node_1 -->
<g id="node1" class="node">
<title>node_1</title>
<polygon fill="lightblue" stroke="black" points="104,-3204 8,-3204 8,-3168 104,-3168 104,-3204"/>
<text text-anchor="middle" x="56" y="-3182.3" font-family="Times,serif" font-size="14.00">Expression</text>
</g>
<!-- node_2 -->
<g id="node2" class="node">
<title>node_2</title>
<polygon fill="lightblue" stroke="black" points="112,-3132 0,-3132 0,-3096 112,-3096 112,-3132"/>
<text text-anchor="middle" x="56" y="-3110.3" font-family="Times,serif" font-size="14.00">Function Call</text>
</g>
<!-- node_1&#45;&gt;node_2 -->
<g id="edge1" class="edge">
<title>node_1&#45;&gt;node_2</title>
<path fill="none" stroke="black" d="M56,-3167.7C56,-3159.98 56,-3150.71 56,-3142.11"/>
<polygon fill="black" stroke="black" points="59.5,-3142.1 56,-3132.1 52.5,-3142.1 59.5,-3142.1"/>
</g>
<!-- node_3 -->
<g id="node3" class="node">
<title>node_3</title>
<polygon fill="lightblue" stroke="black" points="104,-3060 8,-3060 8,-3024 104,-3024 104,-3060"/>
<text text-anchor="middle" x="56" y="-3038.3" font-family="Times,serif" font-size="14.00">Expression</text>
</g>
<!-- node_2&#45;&gt;node_3 -->
<g id="edge2" class="edge">
<title>node_2&#45;&gt;node_3</title>
<path fill="none" stroke="black" d="M56,-3095.7C56,-3087.98 56,-3078.71 56,-3070.11"/>
<polygon fill="black" stroke="black" points="59.5,-3070.1 56,-3060.1 52.5,-3070.1 59.5,-3070.1"/>
</g>
<!-- node_4 -->
<g id="node46" class="node">
<title>node_4</title>
<polygon fill="lightblue" stroke="black" points="89.5,-2988 22.5,-2988 22.5,-2952 89.5,-2952 89.5,-2988"/>
<text text-anchor="middle" x="56" y="-2966.3" font-family="Times,serif" font-size="14.00">node_4</text>
</g>
<!-- node_3&#45;&gt;node_4 -->
<g id="edge3" class="edge">
<title>node_3&#45;&gt;node_4</title>
<path fill="none" stroke="black" d="M56,-3023.7C56,-3015.98 56,-3006.71 56,-2998.11"/>
<polygon fill="black" stroke="black" points="59.5,-2998.1 56,-2988.1 52.5,-2998.1 59.5,-2998.1"/>
</g>
<!-- start_4 -->
<g id="node4" class="node">
<title>start_4</title>
<ellipse fill="lightgreen" stroke="black" cx="156" cy="-3186" rx="34.39" ry="18"/>
<text text-anchor="middle" x="156" y="-3182.3" font-family="Times,serif" font-size="14.00">Start</text>
</g>
<!-- node_5 -->
<g id="node5" class="node">
<title>node_5</title>
<polygon fill="lightblue" stroke="black" points="112,-2916 0,-2916 0,-2880 112,-2880 112,-2916"/>
<text text-anchor="middle" x="56" y="-2894.3" font-family="Times,serif" font-size="14.00">Function Call</text>
</g>
<!-- node_6 -->
<g id="node47" class="node">
<title>node_6</title>
<polygon fill="lightblue" stroke="black" points="89.5,-2844 22.5,-2844 22.5,-2808 89.5,-2808 89.5,-2844"/>
<text text-anchor="middle" x="56" y="-2822.3" font-family="Times,serif" font-size="14.00">node_6</text>
</g>
<!-- node_5&#45;&gt;node_6 -->
<g id="edge5" class="edge">
<title>node_5&#45;&gt;node_6</title>
<path fill="none" stroke="black" d="M56,-2879.7C56,-2871.98 56,-2862.71 56,-2854.11"/>
<polygon fill="black" stroke="black" points="59.5,-2854.1 56,-2844.1 52.5,-2854.1 59.5,-2854.1"/>
</g>
<!-- stop_6 -->
<g id="node6" class="node">
<title>stop_6</title>
<ellipse fill="lightcoral" stroke="black" cx="241" cy="-3186" rx="32.49" ry="18"/>
<text text-anchor="middle" x="241" y="-3182.3" font-family="Times,serif" font-size="14.00">Stop</text>
</g>
<!-- start_7 -->
<g id="node7" class="node">
<title>start_7</title>
<ellipse fill="lightgreen" stroke="black" cx="326" cy="-3186" rx="34.39" ry="18"/>
<text text-anchor="middle" x="326" y="-3182.3" font-family="Times,serif" font-size="14.00">Start</text>
</g>
<!-- node_8 -->
<g id="node8" class="node">
<title>node_8</title>
<polygon fill="lightblue" stroke="black" points="104,-2700 8,-2700 8,-2664 104,-2664 104,-2700"/>
<text text-anchor="middle" x="56" y="-2678.3" font-family="Times,serif" font-size="14.00">Expression</text>
</g>
<!-- node_9 -->
<g id="node9" class="node">
<title>node_9</title>
<polygon fill="lightblue" stroke="black" points="112,-2628 0,-2628 0,-2592 112,-2592 112,-2628"/>
<text text-anchor="middle" x="56" y="-2606.3" font-family="Times,serif" font-size="14.00">Function Call</text>
</g>
<!-- node_8&#45;&gt;node_9 -->
<g id="edge8" class="edge">
<title>node_8&#45;&gt;node_9</title>
<path fill="none" stroke="black" d="M56,-2663.7C56,-2655.98 56,-2646.71 56,-2638.11"/>
<polygon fill="black" stroke="black" points="59.5,-2638.1 56,-2628.1 52.5,-2638.1 59.5,-2638.1"/>
</g>
<!-- node_10 -->
<g id="node10" class="node">
<title>node_10</title>
<polygon fill="lightblue" stroke="black" points="112,-2556 0,-2556 0,-2520 112,-2520 112,-2556"/>
<text text-anchor="middle" x="56" y="-2534.3" font-family="Times,serif" font-size="14.00">Function Call</text>
</g>
<!-- node_9&#45;&gt;node_10 -->
<g id="edge9" class="edge">
<title>node_9&#45;&gt;node_10</title>
<path fill="none" stroke="black" d="M56,-2591.7C56,-2583.98 56,-2574.71 56,-2566.11"/>
<polygon fill="black" stroke="black" points="59.5,-2566.1 56,-2556.1 52.5,-2566.1 59.5,-2566.1"/>
</g>
<!-- node_11 -->
<g id="node11" class="node">
<title>node_11</title>
<polygon fill="lightblue" stroke="black" points="112,-2484 0,-2484 0,-2448 112,-2448 112,-2484"/>
<text text-anchor="middle" x="56" y="-2462.3" font-family="Times,serif" font-size="14.00">Function Call</text>
</g>
<!-- node_10&#45;&gt;node_11 -->
<g id="edge10" class="edge">
<title>node_10&#45;&gt;node_11</title>
<path fill="none" stroke="black" d="M56,-2519.7C56,-2511.98 56,-2502.71 56,-2494.11"/>
<polygon fill="black" stroke="black" points="59.5,-2494.1 56,-2484.1 52.5,-2494.1 59.5,-2494.1"/>
</g>
<!-- node_12 -->
<g id="node49" class="node">
<title>node_12</title>
<polygon fill="lightblue" stroke="black" points="94,-2412 18,-2412 18,-2376 94,-2376 94,-2412"/>
<text text-anchor="middle" x="56" y="-2390.3" font-family="Times,serif" font-size="14.00">node_12</text>
</g>
<!-- node_11&#45;&gt;node_12 -->
<g id="edge11" class="edge">
<title>node_11&#45;&gt;node_12</title>
<path fill="none" stroke="black" d="M56,-2447.7C56,-2439.98 56,-2430.71 56,-2422.11"/>
<polygon fill="black" stroke="black" points="59.5,-2422.1 56,-2412.1 52.5,-2422.1 59.5,-2422.1"/>
</g>
<!-- stop_12 -->
<g id="node12" class="node">
<title>stop_12</title>
<ellipse fill="lightcoral" stroke="black" cx="411" cy="-3186" rx="32.49" ry="18"/>
<text text-anchor="middle" x="411" y="-3182.3" font-family="Times,serif" font-size="14.00">Stop</text>
</g>
<!-- start_13 -->
<g id="node13" class="node">
<title>start_13</title>
<ellipse fill="lightgreen" stroke="black" cx="496" cy="-3186" rx="34.39" ry="18"/>
<text text-anchor="middle" x="496" y="-3182.3" font-family="Times,serif" font-size="14.00">Start</text>
</g>
<!-- node_14 -->
<g id="node14" class="node">
<title>node_14</title>
<polygon fill="lightblue" stroke="black" points="104,-2268 8,-2268 8,-2232 104,-2232 104,-2268"/>
<text text-anchor="middle" x="56" y="-2246.3" font-family="Times,serif" font-size="14.00">Expression</text>
</g>
<!-- node_15 -->
<g id="node15" class="node">
<title>node_15</title>
<polygon fill="lightblue" stroke="black" points="112,-2196 0,-2196 0,-2160 112,-2160 112,-2196"/>
<text text-anchor="middle" x="56" y="-2174.3" font-family="Times,serif" font-size="14.00">Function Call</text>
</g>
<!-- node_14&#45;&gt;node_15 -->
<g id="edge14" class="edge">
<title>node_14&#45;&gt;node_15</title>
<path fill="none" stroke="black" d="M56,-2231.7C56,-2223.98 56,-2214.71 56,-2206.11"/>
<polygon fill="black" stroke="black" points="59.5,-2206.1 56,-2196.1 52.5,-2206.1 59.5,-2206.1"/>
</g>
<!-- node_16 -->
<g id="node16" class="node">
<title>node_16</title>
<polygon fill="lightblue" stroke="black" points="112,-2124 0,-2124 0,-2088 112,-2088 112,-2124"/>
<text text-anchor="middle" x="56" y="-2102.3" font-family="Times,serif" font-size="14.00">Function Call</text>
</g>
<!-- node_15&#45;&gt;node_16 -->
<g id="edge15" class="edge">
<title>node_15&#45;&gt;node_16</title>
<path fill="none" stroke="black" d="M56,-2159.7C56,-2151.98 56,-2142.71 56,-2134.11"/>
<polygon fill="black" stroke="black" points="59.5,-2134.1 56,-2124.1 52.5,-2134.1 59.5,-2134.1"/>
</g>
<!-- node_17 -->
<g id="node17" class="node">
<title>node_17</title>
<polygon fill="lightblue" stroke="black" points="112,-2052 0,-2052 0,-2016 112,-2016 112,-2052"/>
<text text-anchor="middle" x="56" y="-2030.3" font-family="Times,serif" font-size="14.00">Function Call</text>
</g>
<!-- node_16&#45;&gt;node_17 -->
<g id="edge16" class="edge">
<title>node_16&#45;&gt;node_17</title>
<path fill="none" stroke="black" d="M56,-2087.7C56,-2079.98 56,-2070.71 56,-2062.11"/>
<polygon fill="black" stroke="black" points="59.5,-2062.1 56,-2052.1 52.5,-2062.1 59.5,-2062.1"/>
</g>
<!-- node_18 -->
<g id="node18" class="node">
<title>node_18</title>
<polygon fill="lightblue" stroke="black" points="112,-1980 0,-1980 0,-1944 112,-1944 112,-1980"/>
<text text-anchor="middle" x="56" y="-1958.3" font-family="Times,serif" font-size="14.00">Function Call</text>
</g>
<!-- node_17&#45;&gt;node_18 -->
<g id="edge17" class="edge">
<title>node_17&#45;&gt;node_18</title>
<path fill="none" stroke="black" d="M56,-2015.7C56,-2007.98 56,-1998.71 56,-1990.11"/>
<polygon fill="black" stroke="black" points="59.5,-1990.1 56,-1980.1 52.5,-1990.1 59.5,-1990.1"/>
</g>
<!-- node_19 -->
<g id="node19" class="node">
<title>node_19</title>
<polygon fill="lightblue" stroke="black" points="112,-1908 0,-1908 0,-1872 112,-1872 112,-1908"/>
<text text-anchor="middle" x="56" y="-1886.3" font-family="Times,serif" font-size="14.00">Function Call</text>
</g>
<!-- node_18&#45;&gt;node_19 -->
<g id="edge18" class="edge">
<title>node_18&#45;&gt;node_19</title>
<path fill="none" stroke="black" d="M56,-1943.7C56,-1935.98 56,-1926.71 56,-1918.11"/>
<polygon fill="black" stroke="black" points="59.5,-1918.1 56,-1908.1 52.5,-1918.1 59.5,-1918.1"/>
</g>
<!-- node_20 -->
<g id="node20" class="node">
<title>node_20</title>
<polygon fill="lightblue" stroke="black" points="112,-1836 0,-1836 0,-1800 112,-1800 112,-1836"/>
<text text-anchor="middle" x="56" y="-1814.3" font-family="Times,serif" font-size="14.00">Function Call</text>
</g>
<!-- node_19&#45;&gt;node_20 -->
<g id="edge19" class="edge">
<title>node_19&#45;&gt;node_20</title>
<path fill="none" stroke="black" d="M56,-1871.7C56,-1863.98 56,-1854.71 56,-1846.11"/>
<polygon fill="black" stroke="black" points="59.5,-1846.1 56,-1836.1 52.5,-1846.1 59.5,-1846.1"/>
</g>
<!-- node_21 -->
<g id="node21" class="node">
<title>node_21</title>
<polygon fill="lightblue" stroke="black" points="112,-1764 0,-1764 0,-1728 112,-1728 112,-1764"/>
<text text-anchor="middle" x="56" y="-1742.3" font-family="Times,serif" font-size="14.00">Function Call</text>
</g>
<!-- node_20&#45;&gt;node_21 -->
<g id="edge20" class="edge">
<title>node_20&#45;&gt;node_21</title>
<path fill="none" stroke="black" d="M56,-1799.7C56,-1791.98 56,-1782.71 56,-1774.11"/>
<polygon fill="black" stroke="black" points="59.5,-1774.1 56,-1764.1 52.5,-1774.1 59.5,-1774.1"/>
</g>
<!-- node_22 -->
<g id="node22" class="node">
<title>node_22</title>
<polygon fill="lightblue" stroke="black" points="112,-1692 0,-1692 0,-1656 112,-1656 112,-1692"/>
<text text-anchor="middle" x="56" y="-1670.3" font-family="Times,serif" font-size="14.00">Function Call</text>
</g>
<!-- node_21&#45;&gt;node_22 -->
<g id="edge21" class="edge">
<title>node_21&#45;&gt;node_22</title>
<path fill="none" stroke="black" d="M56,-1727.7C56,-1719.98 56,-1710.71 56,-1702.11"/>
<polygon fill="black" stroke="black" points="59.5,-1702.1 56,-1692.1 52.5,-1702.1 59.5,-1702.1"/>
</g>
<!-- node_23 -->
<g id="node23" class="node">
<title>node_23</title>
<polygon fill="lightblue" stroke="black" points="112,-1620 0,-1620 0,-1584 112,-1584 112,-1620"/>
<text text-anchor="middle" x="56" y="-1598.3" font-family="Times,serif" font-size="14.00">Function Call</text>
</g>
<!-- node_22&#45;&gt;node_23 -->
<g id="edge22" class="edge">
<title>node_22&#45;&gt;node_23</title>
<path fill="none" stroke="black" d="M56,-1655.7C56,-1647.98 56,-1638.71 56,-1630.11"/>
<polygon fill="black" stroke="black" points="59.5,-1630.1 56,-1620.1 52.5,-1630.1 59.5,-1630.1"/>
</g>
<!-- node_24 -->
<g id="node24" class="node">
<title>node_24</title>
<polygon fill="lightblue" stroke="black" points="112,-1548 0,-1548 0,-1512 112,-1512 112,-1548"/>
<text text-anchor="middle" x="56" y="-1526.3" font-family="Times,serif" font-size="14.00">Function Call</text>
</g>
<!-- node_23&#45;&gt;node_24 -->
<g id="edge23" class="edge">
<title>node_23&#45;&gt;node_24</title>
<path fill="none" stroke="black" d="M56,-1583.7C56,-1575.98 56,-1566.71 56,-1558.11"/>
<polygon fill="black" stroke="black" points="59.5,-1558.1 56,-1548.1 52.5,-1558.1 59.5,-1558.1"/>
</g>
<!-- node_25 -->
<g id="node25" class="node">
<title>node_25</title>
<polygon fill="lightblue" stroke="black" points="112,-1476 0,-1476 0,-1440 112,-1440 112,-1476"/>
<text text-anchor="middle" x="56" y="-1454.3" font-family="Times,serif" font-size="14.00">Function Call</text>
</g>
<!-- node_24&#45;&gt;node_25 -->
<g id="edge24" class="edge">
<title>node_24&#45;&gt;node_25</title>
<path fill="none" stroke="black" d="M56,-1511.7C56,-1503.98 56,-1494.71 56,-1486.11"/>
<polygon fill="black" stroke="black" points="59.5,-1486.1 56,-1476.1 52.5,-1486.1 59.5,-1486.1"/>
</g>
<!-- node_26 -->
<g id="node26" class="node">
<title>node_26</title>
<polygon fill="lightblue" stroke="black" points="112,-1404 0,-1404 0,-1368 112,-1368 112,-1404"/>
<text text-anchor="middle" x="56" y="-1382.3" font-family="Times,serif" font-size="14.00">Function Call</text>
</g>
<!-- node_25&#45;&gt;node_26 -->
<g id="edge25" class="edge">
<title>node_25&#45;&gt;node_26</title>
<path fill="none" stroke="black" d="M56,-1439.7C56,-1431.98 56,-1422.71 56,-1414.11"/>
<polygon fill="black" stroke="black" points="59.5,-1414.1 56,-1404.1 52.5,-1414.1 59.5,-1414.1"/>
</g>
<!-- node_27 -->
<g id="node51" class="node">
<title>node_27</title>
<polygon fill="lightblue" stroke="black" points="94,-1332 18,-1332 18,-1296 94,-1296 94,-1332"/>
<text text-anchor="middle" x="56" y="-1310.3" font-family="Times,serif" font-size="14.00">node_27</text>
</g>
<!-- node_26&#45;&gt;node_27 -->
<g id="edge26" class="edge">
<title>node_26&#45;&gt;node_27</title>
<path fill="none" stroke="black" d="M56,-1367.7C56,-1359.98 56,-1350.71 56,-1342.11"/>
<polygon fill="black" stroke="black" points="59.5,-1342.1 56,-1332.1 52.5,-1342.1 59.5,-1342.1"/>
</g>
<!-- stop_27 -->
<g id="node27" class="node">
<title>stop_27</title>
<ellipse fill="lightcoral" stroke="black" cx="581" cy="-3186" rx="32.49" ry="18"/>
<text text-anchor="middle" x="581" y="-3182.3" font-family="Times,serif" font-size="14.00">Stop</text>
</g>
<!-- start_28 -->
<g id="node28" class="node">
<title>start_28</title>
<ellipse fill="lightgreen" stroke="black" cx="666" cy="-3186" rx="34.39" ry="18"/>
<text text-anchor="middle" x="666" y="-3182.3" font-family="Times,serif" font-size="14.00">Start</text>
</g>
<!-- node_29 -->
<g id="node29" class="node">
<title>node_29</title>
<polygon fill="lightblue" stroke="black" points="104,-1188 8,-1188 8,-1152 104,-1152 104,-1188"/>
<text text-anchor="middle" x="56" y="-1166.3" font-family="Times,serif" font-size="14.00">Expression</text>
</g>
<!-- node_30 -->
<g id="node53" class="node">
<title>node_30</title>
<polygon fill="lightblue" stroke="black" points="94,-1116 18,-1116 18,-1080 94,-1080 94,-1116"/>
<text text-anchor="middle" x="56" y="-1094.3" font-family="Times,serif" font-size="14.00">node_30</text>
</g>
<!-- node_29&#45;&gt;node_30 -->
<g id="edge29" class="edge">
<title>node_29&#45;&gt;node_30</title>
<path fill="none" stroke="black" d="M56,-1151.7C56,-1143.98 56,-1134.71 56,-1126.11"/>
<polygon fill="black" stroke="black" points="59.5,-1126.1 56,-1116.1 52.5,-1126.1 59.5,-1126.1"/>
</g>
<!-- stop_30 -->
<g id="node30" class="node">
<title>stop_30</title>
<ellipse fill="lightcoral" stroke="black" cx="751" cy="-3186" rx="32.49" ry="18"/>
<text text-anchor="middle" x="751" y="-3182.3" font-family="Times,serif" font-size="14.00">Stop</text>
</g>
<!-- start_31 -->
<g id="node31" class="node">
<title>start_31</title>
<ellipse fill="lightgreen" stroke="black" cx="836" cy="-3186" rx="34.39" ry="18"/>
<text text-anchor="middle" x="836" y="-3182.3" font-family="Times,serif" font-size="14.00">Start</text>
</g>
<!-- node_32 -->
<g id="node32" class="node">
<title>node_32</title>
<polygon fill="lightblue" stroke="black" points="104,-972 8,-972 8,-936 104,-936 104,-972"/>
<text text-anchor="middle" x="56" y="-950.3" font-family="Times,serif" font-size="14.00">Expression</text>
</g>
<!-- node_33 -->
<g id="node33" class="node">
<title>node_33</title>
<polygon fill="lightblue" stroke="black" points="112,-900 0,-900 0,-864 112,-864 112,-900"/>
<text text-anchor="middle" x="56" y="-878.3" font-family="Times,serif" font-size="14.00">Function Call</text>
</g>
<!-- node_32&#45;&gt;node_33 -->
<g id="edge32" class="edge">
<title>node_32&#45;&gt;node_33</title>
<path fill="none" stroke="black" d="M56,-935.7C56,-927.98 56,-918.71 56,-910.11"/>
<polygon fill="black" stroke="black" points="59.5,-910.1 56,-900.1 52.5,-910.1 59.5,-910.1"/>
</g>
<!-- node_34 -->
<g id="node34" class="node">
<title>node_34</title>
<polygon fill="lightblue" stroke="black" points="112,-828 0,-828 0,-792 112,-792 112,-828"/>
<text text-anchor="middle" x="56" y="-806.3" font-family="Times,serif" font-size="14.00">Function Call</text>
</g>
<!-- node_33&#45;&gt;node_34 -->
<g id="edge33" class="edge">
<title>node_33&#45;&gt;node_34</title>
<path fill="none" stroke="black" d="M56,-863.7C56,-855.98 56,-846.71 56,-838.11"/>
<polygon fill="black" stroke="black" points="59.5,-838.1 56,-828.1 52.5,-838.1 59.5,-838.1"/>
</g>
<!-- node_35 -->
<g id="node35" class="node">
<title>node_35</title>
<polygon fill="lightblue" stroke="black" points="112,-756 0,-756 0,-720 112,-720 112,-756"/>
<text text-anchor="middle" x="56" y="-734.3" font-family="Times,serif" font-size="14.00">Function Call</text>
</g>
<!-- node_34&#45;&gt;node_35 -->
<g id="edge34" class="edge">
<title>node_34&#45;&gt;node_35</title>
<path fill="none" stroke="black" d="M56,-791.7C56,-783.98 56,-774.71 56,-766.11"/>
<polygon fill="black" stroke="black" points="59.5,-766.1 56,-756.1 52.5,-766.1 59.5,-766.1"/>
</g>
<!-- node_36 -->
<g id="node36" class="node">
<title>node_36</title>
<polygon fill="lightblue" stroke="black" points="112,-684 0,-684 0,-648 112,-648 112,-684"/>
<text text-anchor="middle" x="56" y="-662.3" font-family="Times,serif" font-size="14.00">Function Call</text>
</g>
<!-- node_35&#45;&gt;node_36 -->
<g id="edge35" class="edge">
<title>node_35&#45;&gt;node_36</title>
<path fill="none" stroke="black" d="M56,-719.7C56,-711.98 56,-702.71 56,-694.11"/>
<polygon fill="black" stroke="black" points="59.5,-694.1 56,-684.1 52.5,-694.1 59.5,-694.1"/>
</g>
<!-- node_37 -->
<g id="node37" class="node">
<title>node_37</title>
<polygon fill="lightblue" stroke="black" points="112,-612 0,-612 0,-576 112,-576 112,-612"/>
<text text-anchor="middle" x="56" y="-590.3" font-family="Times,serif" font-size="14.00">Function Call</text>
</g>
<!-- node_36&#45;&gt;node_37 -->
<g id="edge36" class="edge">
<title>node_36&#45;&gt;node_37</title>
<path fill="none" stroke="black" d="M56,-647.7C56,-639.98 56,-630.71 56,-622.11"/>
<polygon fill="black" stroke="black" points="59.5,-622.1 56,-612.1 52.5,-622.1 59.5,-622.1"/>
</g>
<!-- node_38 -->
<g id="node38" class="node">
<title>node_38</title>
<polygon fill="lightblue" stroke="black" points="112,-540 0,-540 0,-504 112,-504 112,-540"/>
<text text-anchor="middle" x="56" y="-518.3" font-family="Times,serif" font-size="14.00">Function Call</text>
</g>
<!-- node_37&#45;&gt;node_38 -->
<g id="edge37" class="edge">
<title>node_37&#45;&gt;node_38</title>
<path fill="none" stroke="black" d="M56,-575.7C56,-567.98 56,-558.71 56,-550.11"/>
<polygon fill="black" stroke="black" points="59.5,-550.1 56,-540.1 52.5,-550.1 59.5,-550.1"/>
</g>
<!-- node_39 -->
<g id="node39" class="node">
<title>node_39</title>
<polygon fill="lightblue" stroke="black" points="112,-468 0,-468 0,-432 112,-432 112,-468"/>
<text text-anchor="middle" x="56" y="-446.3" font-family="Times,serif" font-size="14.00">Function Call</text>
</g>
<!-- node_38&#45;&gt;node_39 -->
<g id="edge38" class="edge">
<title>node_38&#45;&gt;node_39</title>
<path fill="none" stroke="black" d="M56,-503.7C56,-495.98 56,-486.71 56,-478.11"/>
<polygon fill="black" stroke="black" points="59.5,-478.1 56,-468.1 52.5,-478.1 59.5,-478.1"/>
</g>
<!-- node_40 -->
<g id="node55" class="node">
<title>node_40</title>
<polygon fill="lightblue" stroke="black" points="94,-396 18,-396 18,-360 94,-360 94,-396"/>
<text text-anchor="middle" x="56" y="-374.3" font-family="Times,serif" font-size="14.00">node_40</text>
</g>
<!-- node_39&#45;&gt;node_40 -->
<g id="edge39" class="edge">
<title>node_39&#45;&gt;node_40</title>
<path fill="none" stroke="black" d="M56,-431.7C56,-423.98 56,-414.71 56,-406.11"/>
<polygon fill="black" stroke="black" points="59.5,-406.1 56,-396.1 52.5,-406.1 59.5,-406.1"/>
</g>
<!-- stop_40 -->
<g id="node40" class="node">
<title>stop_40</title>
<ellipse fill="lightcoral" stroke="black" cx="921" cy="-3186" rx="32.49" ry="18"/>
<text text-anchor="middle" x="921" y="-3182.3" font-family="Times,serif" font-size="14.00">Stop</text>
</g>
<!-- start_41 -->
<g id="node41" class="node">
<title>start_41</title>
<ellipse fill="lightgreen" stroke="black" cx="1006" cy="-3186" rx="34.39" ry="18"/>
<text text-anchor="middle" x="1006" y="-3182.3" font-family="Times,serif" font-size="14.00">Start</text>
</g>
<!-- node_42 -->
<g id="node42" class="node">
<title>node_42</title>
<polygon fill="lightblue" stroke="black" points="104,-252 8,-252 8,-216 104,-216 104,-252"/>
<text text-anchor="middle" x="56" y="-230.3" font-family="Times,serif" font-size="14.00">Expression</text>
</g>
<!-- node_43 -->
<g id="node43" class="node">
<title>node_43</title>
<polygon fill="lightblue" stroke="black" points="112,-180 0,-180 0,-144 112,-144 112,-180"/>
<text text-anchor="middle" x="56" y="-158.3" font-family="Times,serif" font-size="14.00">Function Call</text>
</g>
<!-- node_42&#45;&gt;node_43 -->
<g id="edge42" class="edge">
<title>node_42&#45;&gt;node_43</title>
<path fill="none" stroke="black" d="M56,-215.7C56,-207.98 56,-198.71 56,-190.11"/>
<polygon fill="black" stroke="black" points="59.5,-190.1 56,-180.1 52.5,-190.1 59.5,-190.1"/>
</g>
<!-- node_44 -->
<g id="node44" class="node">
<title>node_44</title>
<polygon fill="lightblue" stroke="black" points="112,-108 0,-108 0,-72 112,-72 112,-108"/>
<text text-anchor="middle" x="56" y="-86.3" font-family="Times,serif" font-size="14.00">Function Call</text>
</g>
<!-- node_43&#45;&gt;node_44 -->
<g id="edge43" class="edge">
<title>node_43&#45;&gt;node_44</title>
<path fill="none" stroke="black" d="M56,-143.7C56,-135.98 56,-126.71 56,-118.11"/>
<polygon fill="black" stroke="black" points="59.5,-118.1 56,-108.1 52.5,-118.1 59.5,-118.1"/>
</g>
<!-- node_45 -->
<g id="node57" class="node">
<title>node_45</title>
<polygon fill="lightblue" stroke="black" points="94,-36 18,-36 18,0 94,0 94,-36"/>
<text text-anchor="middle" x="56" y="-14.3" font-family="Times,serif" font-size="14.00">node_45</text>
</g>
<!-- node_44&#45;&gt;node_45 -->
<g id="edge44" class="edge">
<title>node_44&#45;&gt;node_45</title>
<path fill="none" stroke="black" d="M56,-71.7C56,-63.98 56,-54.71 56,-46.11"/>
<polygon fill="black" stroke="black" points="59.5,-46.1 56,-36.1 52.5,-46.1 59.5,-46.1"/>
</g>
<!-- stop_45 -->
<g id="node45" class="node">
<title>stop_45</title>
<ellipse fill="lightcoral" stroke="black" cx="1091" cy="-3186" rx="32.49" ry="18"/>
<text text-anchor="middle" x="1091" y="-3182.3" font-family="Times,serif" font-size="14.00">Stop</text>
</g>
<!-- node_4&#45;&gt;node_5 -->
<g id="edge4" class="edge">
<title>node_4&#45;&gt;node_5</title>
<path fill="none" stroke="black" d="M56,-2951.7C56,-2943.98 56,-2934.71 56,-2926.11"/>
<polygon fill="black" stroke="black" points="59.5,-2926.1 56,-2916.1 52.5,-2926.1 59.5,-2926.1"/>
</g>
<!-- node_7 -->
<g id="node48" class="node">
<title>node_7</title>
<polygon fill="lightblue" stroke="black" points="89.5,-2772 22.5,-2772 22.5,-2736 89.5,-2736 89.5,-2772"/>
<text text-anchor="middle" x="56" y="-2750.3" font-family="Times,serif" font-size="14.00">node_7</text>
</g>
<!-- node_6&#45;&gt;node_7 -->
<g id="edge6" class="edge">
<title>node_6&#45;&gt;node_7</title>
<path fill="none" stroke="black" d="M56,-2807.7C56,-2799.98 56,-2790.71 56,-2782.11"/>
<polygon fill="black" stroke="black" points="59.5,-2782.1 56,-2772.1 52.5,-2782.1 59.5,-2782.1"/>
</g>
<!-- node_7&#45;&gt;node_8 -->
<g id="edge7" class="edge">
<title>node_7&#45;&gt;node_8</title>
<path fill="none" stroke="black" d="M56,-2735.7C56,-2727.98 56,-2718.71 56,-2710.11"/>
<polygon fill="black" stroke="black" points="59.5,-2710.1 56,-2700.1 52.5,-2710.1 59.5,-2710.1"/>
</g>
<!-- node_13 -->
<g id="node50" class="node">
<title>node_13</title>
<polygon fill="lightblue" stroke="black" points="94,-2340 18,-2340 18,-2304 94,-2304 94,-2340"/>
<text text-anchor="middle" x="56" y="-2318.3" font-family="Times,serif" font-size="14.00">node_13</text>
</g>
<!-- node_12&#45;&gt;node_13 -->
<g id="edge12" class="edge">
<title>node_12&#45;&gt;node_13</title>
<path fill="none" stroke="black" d="M56,-2375.7C56,-2367.98 56,-2358.71 56,-2350.11"/>
<polygon fill="black" stroke="black" points="59.5,-2350.1 56,-2340.1 52.5,-2350.1 59.5,-2350.1"/>
</g>
<!-- node_13&#45;&gt;node_14 -->
<g id="edge13" class="edge">
<title>node_13&#45;&gt;node_14</title>
<path fill="none" stroke="black" d="M56,-2303.7C56,-2295.98 56,-2286.71 56,-2278.11"/>
<polygon fill="black" stroke="black" points="59.5,-2278.1 56,-2268.1 52.5,-2278.1 59.5,-2278.1"/>
</g>
<!-- node_28 -->
<g id="node52" class="node">
<title>node_28</title>
<polygon fill="lightblue" stroke="black" points="94,-1260 18,-1260 18,-1224 94,-1224 94,-1260"/>
<text text-anchor="middle" x="56" y="-1238.3" font-family="Times,serif" font-size="14.00">node_28</text>
</g>
<!-- node_27&#45;&gt;node_28 -->
<g id="edge27" class="edge">
<title>node_27&#45;&gt;node_28</title>
<path fill="none" stroke="black" d="M56,-1295.7C56,-1287.98 56,-1278.71 56,-1270.11"/>
<polygon fill="black" stroke="black" points="59.5,-1270.1 56,-1260.1 52.5,-1270.1 59.5,-1270.1"/>
</g>
<!-- node_28&#45;&gt;node_29 -->
<g id="edge28" class="edge">
<title>node_28&#45;&gt;node_29</title>
<path fill="none" stroke="black" d="M56,-1223.7C56,-1215.98 56,-1206.71 56,-1198.11"/>
<polygon fill="black" stroke="black" points="59.5,-1198.1 56,-1188.1 52.5,-1198.1 59.5,-1198.1"/>
</g>
<!-- node_31 -->
<g id="node54" class="node">
<title>node_31</title>
<polygon fill="lightblue" stroke="black" points="94,-1044 18,-1044 18,-1008 94,-1008 94,-1044"/>
<text text-anchor="middle" x="56" y="-1022.3" font-family="Times,serif" font-size="14.00">node_31</text>
</g>
<!-- node_30&#45;&gt;node_31 -->
<g id="edge30" class="edge">
<title>node_30&#45;&gt;node_31</title>
<path fill="none" stroke="black" d="M56,-1079.7C56,-1071.98 56,-1062.71 56,-1054.11"/>
<polygon fill="black" stroke="black" points="59.5,-1054.1 56,-1044.1 52.5,-1054.1 59.5,-1054.1"/>
</g>
<!-- node_31&#45;&gt;node_32 -->
<g id="edge31" class="edge">
<title>node_31&#45;&gt;node_32</title>
<path fill="none" stroke="black" d="M56,-1007.7C56,-999.98 56,-990.71 56,-982.11"/>
<polygon fill="black" stroke="black" points="59.5,-982.1 56,-972.1 52.5,-982.1 59.5,-982.1"/>
</g>
<!-- node_41 -->
<g id="node56" class="node">
<title>node_41</title>
<polygon fill="lightblue" stroke="black" points="94,-324 18,-324 18,-288 94,-288 94,-324"/>
<text text-anchor="middle" x="56" y="-302.3" font-family="Times,serif" font-size="14.00">node_41</text>
</g>
<!-- node_40&#45;&gt;node_41 -->
<g id="edge40" class="edge">
<title>node_40&#45;&gt;node_41</title>
<path fill="none" stroke="black" d="M56,-359.7C56,-351.98 56,-342.71 56,-334.11"/>
<polygon fill="black" stroke="black" points="59.5,-334.1 56,-324.1 52.5,-334.1 59.5,-334.1"/>
</g>
<!-- node_41&#45;&gt;node_42 -->
<g id="edge41" class="edge">
<title>node_41&#45;&gt;node_42</title>
<path fill="none" stroke="black" d="M56,-287.7C56,-279.98 56,-270.71 56,-262.11"/>
<polygon fill="black" stroke="black" points="59.5,-262.1 56,-252.1 52.5,-262.1 59.5,-262.1"/>
</g>
</g>
</svg>
