<svg aria-roledescription="flowchart-v2" role="graphics-document document" viewBox="0 0 199.625 581.375" style="max-width: 199.625px; background-color: white;" class="flowchart" xmlns:xlink="http://www.w3.org/1999/xlink" xmlns="http://www.w3.org/2000/svg" width="100%" id="my-svg"><style>#my-svg{font-family:"trebuchet ms",verdana,arial,sans-serif;font-size:16px;fill:#333;}@keyframes edge-animation-frame{from{stroke-dashoffset:0;}}@keyframes dash{to{stroke-dashoffset:0;}}#my-svg .edge-animation-slow{stroke-dasharray:9,5!important;stroke-dashoffset:900;animation:dash 50s linear infinite;stroke-linecap:round;}#my-svg .edge-animation-fast{stroke-dasharray:9,5!important;stroke-dashoffset:900;animation:dash 20s linear infinite;stroke-linecap:round;}#my-svg .error-icon{fill:#552222;}#my-svg .error-text{fill:#552222;stroke:#552222;}#my-svg .edge-thickness-normal{stroke-width:1px;}#my-svg .edge-thickness-thick{stroke-width:3.5px;}#my-svg .edge-pattern-solid{stroke-dasharray:0;}#my-svg .edge-thickness-invisible{stroke-width:0;fill:none;}#my-svg .edge-pattern-dashed{stroke-dasharray:3;}#my-svg .edge-pattern-dotted{stroke-dasharray:2;}#my-svg .marker{fill:#333333;stroke:#333333;}#my-svg .marker.cross{stroke:#333333;}#my-svg svg{font-family:"trebuchet ms",verdana,arial,sans-serif;font-size:16px;}#my-svg p{margin:0;}#my-svg .label{font-family:"trebuchet ms",verdana,arial,sans-serif;color:#333;}#my-svg .cluster-label text{fill:#333;}#my-svg .cluster-label span{color:#333;}#my-svg .cluster-label span p{background-color:transparent;}#my-svg .label text,#my-svg span{fill:#333;color:#333;}#my-svg .node rect,#my-svg .node circle,#my-svg .node ellipse,#my-svg .node polygon,#my-svg .node path{fill:#ECECFF;stroke:#9370DB;stroke-width:1px;}#my-svg .rough-node .label text,#my-svg .node .label text,#my-svg .image-shape .label,#my-svg .icon-shape .label{text-anchor:middle;}#my-svg .node .katex path{fill:#000;stroke:#000;stroke-width:1px;}#my-svg .rough-node .label,#my-svg .node .label,#my-svg .image-shape .label,#my-svg .icon-shape .label{text-align:center;}#my-svg .node.clickable{cursor:pointer;}#my-svg .root .anchor path{fill:#333333!important;stroke-width:0;stroke:#333333;}#my-svg .arrowheadPath{fill:#333333;}#my-svg .edgePath .path{stroke:#333333;stroke-width:2.0px;}#my-svg .flowchart-link{stroke:#333333;fill:none;}#my-svg .edgeLabel{background-color:rgba(232,232,232, 0.8);text-align:center;}#my-svg .edgeLabel p{background-color:rgba(232,232,232, 0.8);}#my-svg .edgeLabel rect{opacity:0.5;background-color:rgba(232,232,232, 0.8);fill:rgba(232,232,232, 0.8);}#my-svg .labelBkg{background-color:rgba(232, 232, 232, 0.5);}#my-svg .cluster rect{fill:#ffffde;stroke:#aaaa33;stroke-width:1px;}#my-svg .cluster text{fill:#333;}#my-svg .cluster span{color:#333;}#my-svg div.mermaidTooltip{position:absolute;text-align:center;max-width:200px;padding:2px;font-family:"trebuchet ms",verdana,arial,sans-serif;font-size:12px;background:hsl(80, 100%, 96.2745098039%);border:1px solid #aaaa33;border-radius:2px;pointer-events:none;z-index:100;}#my-svg .flowchartTitleText{text-anchor:middle;font-size:18px;fill:#333;}#my-svg rect.text{fill:none;stroke-width:0;}#my-svg .icon-shape,#my-svg .image-shape{background-color:rgba(232,232,232, 0.8);text-align:center;}#my-svg .icon-shape p,#my-svg .image-shape p{background-color:rgba(232,232,232, 0.8);padding:2px;}#my-svg .icon-shape rect,#my-svg .image-shape rect{opacity:0.5;background-color:rgba(232,232,232, 0.8);fill:rgba(232,232,232, 0.8);}#my-svg .label-icon{display:inline-block;height:1em;overflow:visible;vertical-align:-0.125em;}#my-svg .node .label-icon path{fill:currentColor;stroke:revert;stroke-width:revert;}#my-svg :root{--mermaid-font-family:"trebuchet ms",verdana,arial,sans-serif;}</style><g><marker orient="auto" markerHeight="8" markerWidth="8" markerUnits="userSpaceOnUse" refY="5" refX="5" viewBox="0 0 10 10" class="marker flowchart-v2" id="my-svg_flowchart-v2-pointEnd"><path style="stroke-width: 1; stroke-dasharray: 1, 0;" class="arrowMarkerPath" d="M 0 0 L 10 5 L 0 10 z"/></marker><marker orient="auto" markerHeight="8" markerWidth="8" markerUnits="userSpaceOnUse" refY="5" refX="4.5" viewBox="0 0 10 10" class="marker flowchart-v2" id="my-svg_flowchart-v2-pointStart"><path style="stroke-width: 1; stroke-dasharray: 1, 0;" class="arrowMarkerPath" d="M 0 5 L 10 10 L 10 0 z"/></marker><marker orient="auto" markerHeight="11" markerWidth="11" markerUnits="userSpaceOnUse" refY="5" refX="11" viewBox="0 0 10 10" class="marker flowchart-v2" id="my-svg_flowchart-v2-circleEnd"><circle style="stroke-width: 1; stroke-dasharray: 1, 0;" class="arrowMarkerPath" r="5" cy="5" cx="5"/></marker><marker orient="auto" markerHeight="11" markerWidth="11" markerUnits="userSpaceOnUse" refY="5" refX="-1" viewBox="0 0 10 10" class="marker flowchart-v2" id="my-svg_flowchart-v2-circleStart"><circle style="stroke-width: 1; stroke-dasharray: 1, 0;" class="arrowMarkerPath" r="5" cy="5" cx="5"/></marker><marker orient="auto" markerHeight="11" markerWidth="11" markerUnits="userSpaceOnUse" refY="5.2" refX="12" viewBox="0 0 11 11" class="marker cross flowchart-v2" id="my-svg_flowchart-v2-crossEnd"><path style="stroke-width: 2; stroke-dasharray: 1, 0;" class="arrowMarkerPath" d="M 1,1 l 9,9 M 10,1 l -9,9"/></marker><marker orient="auto" markerHeight="11" markerWidth="11" markerUnits="userSpaceOnUse" refY="5.2" refX="-1" viewBox="0 0 11 11" class="marker cross flowchart-v2" id="my-svg_flowchart-v2-crossStart"><path style="stroke-width: 2; stroke-dasharray: 1, 0;" class="arrowMarkerPath" d="M 1,1 l 9,9 M 10,1 l -9,9"/></marker><g class="root"><g class="clusters"/><g class="edgePaths"><path marker-end="url(#my-svg_flowchart-v2-pointEnd)" style="" class="edge-thickness-normal edge-pattern-solid edge-thickness-normal edge-pattern-solid flowchart-link" id="L_A_B_0" d="M100.313,47.5L100.229,51.583C100.146,55.667,99.979,63.833,99.896,71.417C99.813,79,99.813,86,99.813,89.5L99.813,93"/><path marker-end="url(#my-svg_flowchart-v2-pointEnd)" style="" class="edge-thickness-normal edge-pattern-solid edge-thickness-normal edge-pattern-solid flowchart-link" id="L_B_C_0" d="M99.813,151L99.813,155.167C99.813,159.333,99.813,167.667,99.813,175.333C99.813,183,99.813,190,99.813,193.5L99.813,197"/><path marker-end="url(#my-svg_flowchart-v2-pointEnd)" style="" class="edge-thickness-normal edge-pattern-solid edge-thickness-normal edge-pattern-solid flowchart-link" id="L_C_D_0" d="M93.437,255L91.98,261.167C90.524,267.333,87.612,279.667,87.25,292.829C86.888,305.992,89.078,319.984,90.172,326.98L91.267,333.975"/><path marker-end="url(#my-svg_flowchart-v2-pointEnd)" style="" class="edge-thickness-normal edge-pattern-solid edge-thickness-normal edge-pattern-solid flowchart-link" id="L_D_E_0" d="M100.313,460.875L100.229,466.958C100.146,473.042,99.979,485.208,99.97,496.875C99.961,508.542,100.11,519.709,100.185,525.292L100.259,530.875"/><path marker-end="url(#my-svg_flowchart-v2-pointEnd)" style="" class="edge-thickness-normal edge-pattern-solid edge-thickness-normal edge-pattern-solid flowchart-link" id="L_D_C_0" d="M108.74,337.927L109.771,330.273C110.802,322.618,112.864,307.309,112.592,294.137C112.32,280.964,109.714,269.929,108.411,264.411L107.108,258.893"/></g><g class="edgeLabels"><g class="edgeLabel"><g transform="translate(0, 0)" class="label"><foreignObject height="0" width="0"><div style="display: table-cell; white-space: nowrap; line-height: 1.5; max-width: 200px; text-align: center;" class="labelBkg" xmlns="http://www.w3.org/1999/xhtml"><span class="edgeLabel"></span></div></foreignObject></g></g><g class="edgeLabel"><g transform="translate(0, 0)" class="label"><foreignObject height="0" width="0"><div style="display: table-cell; white-space: nowrap; line-height: 1.5; max-width: 200px; text-align: center;" class="labelBkg" xmlns="http://www.w3.org/1999/xhtml"><span class="edgeLabel"></span></div></foreignObject></g></g><g class="edgeLabel"><g transform="translate(0, 0)" class="label"><foreignObject height="0" width="0"><div style="display: table-cell; white-space: nowrap; line-height: 1.5; max-width: 200px; text-align: center;" class="labelBkg" xmlns="http://www.w3.org/1999/xhtml"><span class="edgeLabel"></span></div></foreignObject></g></g><g transform="translate(99.8125, 497.375)" class="edgeLabel"><g transform="translate(-13.0546875, -12)" class="label"><foreignObject height="24" width="26.109375"><div style="display: table-cell; white-space: nowrap; line-height: 1.5; max-width: 200px; text-align: center;" class="labelBkg" xmlns="http://www.w3.org/1999/xhtml"><span class="edgeLabel"><p>Yes</p></span></div></foreignObject></g></g><g transform="translate(114.37019, 296.12498)" class="edgeLabel"><g transform="translate(-10.2265625, -12)" class="label"><foreignObject height="24" width="20.453125"><div style="display: table-cell; white-space: nowrap; line-height: 1.5; max-width: 200px; text-align: center;" class="labelBkg" xmlns="http://www.w3.org/1999/xhtml"><span class="edgeLabel"><p>No</p></span></div></foreignObject></g></g></g><g class="nodes"><g transform="translate(99.8125, 27.5)" id="flowchart-A-0" class="node default"><g class="basic label-container outer-path"><path style="" fill="#ECECFF" stroke-width="0" stroke="none" d="M-9.7734375 -19.5 C-2.6983291784419396 -19.5, 4.376779143116121 -19.5, 9.7734375 -19.5 C9.7734375 -19.5, 9.773437499999998 -19.5, 9.773437499999998 -19.5 C10.211662079987134 -19.48594699067221, 10.649886659974268 -19.471893981344426, 11.0228067896239 -19.45993515863156 C11.49375959002025 -19.414502908380932, 11.9647123904166 -19.36907065813031, 12.267042152847864 -19.3399052695533 C12.666695858325921 -19.275292357812383, 13.06634956380398 -19.210679446071467, 13.501030759676757 -19.140403561325776 C13.81330359713082 -19.06912932394759, 14.125576434584886 -18.997855086569402, 14.71970188623539 -18.862249829261074 C15.047274041482225 -18.765028133045146, 15.374846196729061 -18.667806436829213, 15.918047751460602 -18.50658706670804 C16.15675475156185 -18.41874068408746, 16.395461751663095 -18.33089430146688, 17.091144095147794 -18.074876768247425 C17.38577161167236 -17.94445390649675, 17.680399128196928 -17.814031044746077, 18.23417041279238 -17.568892924097174 C18.49854635415379 -17.4309681648298, 18.762922295515196 -17.293043405562425, 19.342429764076783 -16.990714730406097 C19.576122431035127 -16.8490488623654, 19.80981509799347 -16.707382994324703, 20.411368073605697 -16.342718045390892 C20.725939665933463 -16.1232865201678, 21.04051125826123 -15.903854994944705, 21.436592844578712 -15.627565626425154 C21.63866660454284 -15.466417180262349, 21.840740364506974 -15.305268734099544, 22.41389120850187 -14.848196188198123 C22.780660191474034 -14.51510630203832, 23.1474291744462 -14.182016415878518, 23.339247236767985 -14.007812326905688 C23.56850995240892 -13.771079750187411, 23.797772668049856 -13.534347173469133, 24.208858442968648 -13.10986736009568 C24.424135726963847 -12.856990412690445, 24.639413010959046 -12.60411346528521, 25.019151408126582 -12.158051136245305 C25.238971844492013 -11.863511777569352, 25.45879228085745 -11.568972418893397, 25.766796464640635 -11.156274872382312 C25.949542020234073 -10.8755286249381, 26.132287575827508 -10.59478237749389, 26.448721378604247 -10.108655082055241 C26.63885296696712 -9.77105719400592, 26.82898455533 -9.433459305956598, 27.0621239742735 -9.019496659696287 C27.17604224947594 -8.782942923777805, 27.28996052467838 -8.546389187859324, 27.60448364880834 -7.893275190886684 C27.75518449716774 -7.521041181836281, 27.905885345527135 -7.148807172785877, 28.073571729970325 -6.734618561215508 C28.17213912845819 -6.437749261552283, 28.270706526946054 -6.140879961889058, 28.46746063421488 -5.548287939305138 C28.584701940126244 -5.101196027161696, 28.70194324603761 -4.654104115018254, 28.78453178754556 -4.339158212148133 C28.878756343975837 -3.855335029245726, 28.97298090040611 -3.371511846343319, 29.023482276581777 -3.1121979531509023 C29.060576021907142 -2.82450618939591, 29.097669767232503 -2.5368144256409173, 29.183330202509367 -1.872449005199798 C29.20327002486514 -1.5618701768737295, 29.22320984722091 -1.251291348547661, 29.263418715913414 -0.6250057626472757 C29.263418715913414 -0.37191682257156367, 29.263418715913414 -0.11882788249585163, 29.263418715913414 0.625005762647271 C29.236585078035155 1.0429613323238045, 29.209751440156897 1.460916902000338, 29.183330202509367 1.8724490051997846 C29.140248818149306 2.206579714914835, 29.09716743378924 2.5407104246298853, 29.023482276581777 3.1121979531508885 C28.958608498926363 3.445311090333675, 28.893734721270953 3.778424227516461, 28.78453178754556 4.339158212148129 C28.708704864640602 4.628319132781003, 28.632877941735646 4.917480053413877, 28.467460634214884 5.548287939305125 C28.365728380394035 5.854689278980078, 28.263996126573186 6.16109061865503, 28.07357172997033 6.734618561215495 C27.89914451217508 7.1654571614905995, 27.724717294379833 7.596295761765704, 27.604483648808344 7.893275190886679 C27.41696325745288 8.282665295829919, 27.22944286609742 8.672055400773157, 27.062123974273504 9.019496659696284 C26.893116524971234 9.31958649979247, 26.724109075668963 9.619676339888656, 26.44872137860425 10.108655082055236 C26.31116750803274 10.319974765639188, 26.173613637461226 10.531294449223141, 25.76679646464064 11.156274872382301 C25.52047453951997 11.48632381165498, 25.274152614399302 11.816372750927659, 25.019151408126582 12.158051136245302 C24.725800244625745 12.502638105047456, 24.432449081124908 12.84722507384961, 24.20885844296866 13.10986736009567 C23.975437843516758 13.350893293217377, 23.742017244064858 13.591919226339085, 23.33924723676799 14.007812326905684 C23.03918517809699 14.28032074938367, 22.73912311942599 14.552829171861655, 22.413891208501887 14.848196188198111 C22.160352389463036 15.050386649430266, 21.906813570424188 15.25257711066242, 21.436592844578715 15.627565626425152 C21.11354248138508 15.852911575164205, 20.790492118191437 16.078257523903257, 20.411368073605708 16.34271804539089 C20.11737692280066 16.520937208692683, 19.82338577199561 16.699156371994473, 19.342429764076787 16.990714730406093 C19.046626792041092 17.14503495144627, 18.750823820005397 17.299355172486443, 18.234170412792388 17.56889292409717 C17.993871424448514 17.67526615802078, 17.753572436104644 17.78163939194439, 17.091144095147804 18.07487676824742 C16.70876161668479 18.215597055026695, 16.32637913822177 18.356317341805966, 15.918047751460616 18.506587066708033 C15.657669211667727 18.583866050563717, 15.397290671874838 18.661145034419402, 14.719701886235413 18.86224982926107 C14.473231560371632 18.91850507277029, 14.226761234507851 18.974760316279514, 13.501030759676766 19.140403561325773 C13.173265348596791 19.193394131130457, 12.845499937516816 19.246384700935142, 12.267042152847878 19.3399052695533 C11.996180986224685 19.366034920539224, 11.725319819601491 19.392164571525154, 11.0228067896239 19.45993515863156 C10.764500317650606 19.468218544424694, 10.506193845677315 19.476501930217832, 9.773437500000004 19.5 C9.773437500000004 19.5, 9.773437500000002 19.5, 9.7734375 19.5 C2.844062988927873 19.5, -4.085311522144254 19.5, -9.773437499999996 19.5 C-10.041564928710518 19.491401675239633, -10.309692357421039 19.482803350479266, -11.022806789623893 19.45993515863156 C-11.296466538648597 19.433535531767145, -11.5701262876733 19.407135904902734, -12.267042152847871 19.3399052695533 C-12.651412037077764 19.27776332750398, -13.035781921307656 19.21562138545466, -13.501030759676759 19.140403561325773 C-13.971742225347736 19.03296674096575, -14.442453691018713 18.925529920605726, -14.719701886235388 18.862249829261074 C-15.145345024726078 18.735921180003466, -15.570988163216768 18.609592530745857, -15.918047751460593 18.506587066708043 C-16.19375096658225 18.40512573497069, -16.46945418170391 18.303664403233338, -17.091144095147797 18.074876768247425 C-17.397855992092442 17.93910450975519, -17.704567889037087 17.803332251262958, -18.23417041279238 17.568892924097174 C-18.61610442573987 17.36963819418288, -18.99803843868736 17.170383464268586, -19.34242976407678 16.990714730406097 C-19.65826705282547 16.799252309900712, -19.97410434157416 16.607789889395328, -20.411368073605686 16.3427180453909 C-20.67539759446137 16.158542481295722, -20.93942711531705 15.974366917200543, -21.436592844578712 15.627565626425156 C-21.779225730860134 15.354325017459752, -22.12185861714155 15.081084408494348, -22.41389120850187 14.848196188198125 C-22.713801737523905 14.575825380938074, -23.01371226654594 14.303454573678023, -23.339247236767974 14.007812326905697 C-23.5333951052771 13.807338712833577, -23.727542973786232 13.606865098761459, -24.208858442968655 13.109867360095677 C-24.48943736444235 12.780283393539763, -24.770016285916043 12.45069942698385, -25.01915140812658 12.158051136245307 C-25.210585039849196 11.901547509699622, -25.402018671571817 11.645043883153939, -25.766796464640635 11.156274872382316 C-25.909562554283873 10.9369478206274, -26.05232864392711 10.717620768872484, -26.448721378604244 10.108655082055249 C-26.688273831241503 9.683305445081592, -26.927826283878762 9.257955808107933, -27.0621239742735 9.019496659696289 C-27.246925643640893 8.635752039132617, -27.43172731300828 8.252007418568944, -27.60448364880834 7.893275190886686 C-27.752394742268663 7.527931930373243, -27.900305835728982 7.1625886698598, -28.073571729970325 6.73461856121551 C-28.168255548058035 6.44944598695304, -28.262939366145748 6.16427341269057, -28.46746063421488 5.5482879393051325 C-28.58594481115937 5.096456421248675, -28.70442898810386 4.644624903192217, -28.784531787545557 4.339158212148136 C-28.879031399658498 3.8539226764482892, -28.97353101177144 3.3686871407484427, -29.023482276581777 3.112197953150904 C-29.064200382698985 2.7963963628053587, -29.104918488816192 2.480594772459814, -29.183330202509364 1.872449005199809 C-29.214761727192656 1.382877637187468, -29.246193251875948 0.8933062691751271, -29.263418715913414 0.6250057626472781 C-29.263418715913414 0.13424234132396679, -29.263418715913414 -0.35652107999934457, -29.263418715913414 -0.6250057626472687 C-29.24318139739406 -0.9402183338556694, -29.22294407887471 -1.2554309050640702, -29.183330202509367 -1.8724490051997822 C-29.13910212167415 -2.2154732663353127, -29.09487404083893 -2.558497527470843, -29.023482276581777 -3.112197953150895 C-28.927926658104468 -3.602855858344763, -28.83237103962716 -4.093513763538631, -28.78453178754556 -4.339158212148126 C-28.710355739229712 -4.6220236324791575, -28.636179690913863 -4.904889052810189, -28.467460634214884 -5.548287939305123 C-28.382321287865285 -5.804714085397459, -28.29718194151568 -6.061140231489795, -28.073571729970332 -6.734618561215485 C-27.908979284628213 -7.141165083388975, -27.74438683928609 -7.547711605562464, -27.604483648808344 -7.893275190886676 C-27.40821851814911 -8.300823934101645, -27.211953387489874 -8.708372677316614, -27.062123974273504 -9.019496659696282 C-26.860530841300072 -9.377445680808892, -26.658937708326636 -9.735394701921503, -26.448721378604247 -10.108655082055243 C-26.252176641594325 -10.41060057775422, -26.055631904584402 -10.712546073453197, -25.76679646464064 -11.156274872382308 C-25.48065731869541 -11.539675260136457, -25.19451817275018 -11.923075647890604, -25.019151408126586 -12.158051136245302 C-24.837652336949102 -12.371250272840092, -24.656153265771618 -12.584449409434882, -24.208858442968662 -13.10986736009567 C-24.02169891665039 -13.303124937102165, -23.834539390332118 -13.49638251410866, -23.339247236767996 -14.007812326905677 C-23.077981063140314 -14.245087353070188, -22.816714889512635 -14.482362379234699, -22.413891208501887 -14.848196188198107 C-22.062907322578898 -15.128096497148231, -21.711923436655905 -15.407996806098355, -21.43659284457872 -15.627565626425149 C-21.047632884760944 -15.898887256588747, -20.65867292494317 -16.170208886752345, -20.41136807360571 -16.342718045390885 C-20.1177373288541 -16.520718728425102, -19.82410658410249 -16.69871941145932, -19.34242976407679 -16.99071473040609 C-18.979583329486857 -17.180011482917426, -18.616736894896928 -17.369308235428758, -18.234170412792388 -17.56889292409717 C-17.97861834017906 -17.682018245960197, -17.72306626756573 -17.795143567823228, -17.091144095147804 -18.07487676824742 C-16.717421589461438 -18.212410104992976, -16.34369908377507 -18.34994344173853, -15.918047751460618 -18.506587066708033 C-15.440035610228417 -18.64845856108882, -14.962023468996216 -18.790330055469603, -14.719701886235413 -18.862249829261067 C-14.28392502840342 -18.961713053351463, -13.848148170571427 -19.061176277441863, -13.501030759676768 -19.140403561325773 C-13.199621069433547 -19.189133142577237, -12.898211379190327 -19.237862723828705, -12.26704215284788 -19.3399052695533 C-11.849312245990149 -19.380203171274147, -11.431582339132417 -19.420501072995, -11.022806789623903 -19.45993515863156 C-10.679894415569231 -19.470931691029048, -10.33698204151456 -19.481928223426536, -9.773437500000005 -19.5 C-9.773437500000004 -19.5, -9.773437500000002 -19.5, -9.7734375 -19.5"/><path style="" stroke-dasharray="0 0" fill="none" stroke-width="1.3" stroke="#9370DB" d="M-9.7734375 -19.5 C-4.91104237441239 -19.5, -0.04864724882478022 -19.5, 9.7734375 -19.5 M-9.7734375 -19.5 C-4.50537449869224 -19.5, 0.7626885026155197 -19.5, 9.7734375 -19.5 M9.7734375 -19.5 C9.7734375 -19.5, 9.773437499999998 -19.5, 9.773437499999998 -19.5 M9.7734375 -19.5 C9.7734375 -19.5, 9.773437499999998 -19.5, 9.773437499999998 -19.5 M9.773437499999998 -19.5 C10.223261890608022 -19.485575007323263, 10.673086281216047 -19.471150014646526, 11.0228067896239 -19.45993515863156 M9.773437499999998 -19.5 C10.1873871234326 -19.48672544128058, 10.6013367468652 -19.47345088256116, 11.0228067896239 -19.45993515863156 M11.0228067896239 -19.45993515863156 C11.488390573729845 -19.41502085092528, 11.953974357835792 -19.370106543219002, 12.267042152847864 -19.3399052695533 M11.0228067896239 -19.45993515863156 C11.513449014889547 -19.41260349324379, 12.004091240155194 -19.36527182785602, 12.267042152847864 -19.3399052695533 M12.267042152847864 -19.3399052695533 C12.749248732428306 -19.26194584933461, 13.23145531200875 -19.18398642911592, 13.501030759676757 -19.140403561325776 M12.267042152847864 -19.3399052695533 C12.678245003302395 -19.273425181617544, 13.089447853756925 -19.20694509368179, 13.501030759676757 -19.140403561325776 M13.501030759676757 -19.140403561325776 C13.805590072017155 -19.07088988571933, 14.110149384357552 -19.00137621011288, 14.71970188623539 -18.862249829261074 M13.501030759676757 -19.140403561325776 C13.913889267173515 -19.046171301143183, 14.326747774670272 -18.951939040960593, 14.71970188623539 -18.862249829261074 M14.71970188623539 -18.862249829261074 C15.014014111669137 -18.774899505628735, 15.308326337102885 -18.687549181996395, 15.918047751460602 -18.50658706670804 M14.71970188623539 -18.862249829261074 C15.097559532009116 -18.75010366341069, 15.475417177782845 -18.637957497560304, 15.918047751460602 -18.50658706670804 M15.918047751460602 -18.50658706670804 C16.35307037978442 -18.34649471817978, 16.788093008108238 -18.18640236965152, 17.091144095147794 -18.074876768247425 M15.918047751460602 -18.50658706670804 C16.18802672377049 -18.40723230923974, 16.45800569608038 -18.307877551771437, 17.091144095147794 -18.074876768247425 M17.091144095147794 -18.074876768247425 C17.52866619940197 -17.881198711326192, 17.96618830365615 -17.687520654404956, 18.23417041279238 -17.568892924097174 M17.091144095147794 -18.074876768247425 C17.331683254889576 -17.96839721757039, 17.57222241463136 -17.86191766689336, 18.23417041279238 -17.568892924097174 M18.23417041279238 -17.568892924097174 C18.581612581319344 -17.387632567323987, 18.929054749846305 -17.206372210550803, 19.342429764076783 -16.990714730406097 M18.23417041279238 -17.568892924097174 C18.51949461099965 -17.420039472651315, 18.804818809206918 -17.27118602120545, 19.342429764076783 -16.990714730406097 M19.342429764076783 -16.990714730406097 C19.576677408766507 -16.848712431603225, 19.81092505345623 -16.706710132800357, 20.411368073605697 -16.342718045390892 M19.342429764076783 -16.990714730406097 C19.750306862397917 -16.74345723645194, 20.15818396071905 -16.496199742497776, 20.411368073605697 -16.342718045390892 M20.411368073605697 -16.342718045390892 C20.718613061232872 -16.128397242443324, 21.02585804886005 -15.914076439495755, 21.436592844578712 -15.627565626425154 M20.411368073605697 -16.342718045390892 C20.750587434802583 -16.106093303589418, 21.089806795999465 -15.869468561787945, 21.436592844578712 -15.627565626425154 M21.436592844578712 -15.627565626425154 C21.767575090932617 -15.363616092765394, 22.098557337286522 -15.099666559105636, 22.41389120850187 -14.848196188198123 M21.436592844578712 -15.627565626425154 C21.754177353725677 -15.374300431659169, 22.07176186287264 -15.121035236893183, 22.41389120850187 -14.848196188198123 M22.41389120850187 -14.848196188198123 C22.641954547208034 -14.641075098210463, 22.870017885914198 -14.4339540082228, 23.339247236767985 -14.007812326905688 M22.41389120850187 -14.848196188198123 C22.664181903824474 -14.62088880103504, 22.91447259914708 -14.393581413871958, 23.339247236767985 -14.007812326905688 M23.339247236767985 -14.007812326905688 C23.597154316310572 -13.741502092712944, 23.855061395853156 -13.4751918585202, 24.208858442968648 -13.10986736009568 M23.339247236767985 -14.007812326905688 C23.546494629935214 -13.7938123781331, 23.753742023102447 -13.579812429360514, 24.208858442968648 -13.10986736009568 M24.208858442968648 -13.10986736009568 C24.437900478125496 -12.840821552739442, 24.666942513282347 -12.571775745383203, 25.019151408126582 -12.158051136245305 M24.208858442968648 -13.10986736009568 C24.488393678720687 -12.781509366175827, 24.767928914472723 -12.453151372255974, 25.019151408126582 -12.158051136245305 M25.019151408126582 -12.158051136245305 C25.272717497037828 -11.818295677450154, 25.526283585949074 -11.478540218655002, 25.766796464640635 -11.156274872382312 M25.019151408126582 -12.158051136245305 C25.213720404010232 -11.89734640736139, 25.40828939989388 -11.636641678477472, 25.766796464640635 -11.156274872382312 M25.766796464640635 -11.156274872382312 C25.946005310952664 -10.88096196013376, 26.125214157264693 -10.605649047885208, 26.448721378604247 -10.108655082055241 M25.766796464640635 -11.156274872382312 C26.01761480590059 -10.770950546051923, 26.268433147160547 -10.385626219721532, 26.448721378604247 -10.108655082055241 M26.448721378604247 -10.108655082055241 C26.6516184029912 -9.748390869704604, 26.854515427378153 -9.388126657353968, 27.0621239742735 -9.019496659696287 M26.448721378604247 -10.108655082055241 C26.67990865055678 -9.698158670453715, 26.91109592250931 -9.287662258852189, 27.0621239742735 -9.019496659696287 M27.0621239742735 -9.019496659696287 C27.266952998014048 -8.594164809260016, 27.471782021754596 -8.168832958823744, 27.60448364880834 -7.893275190886684 M27.0621239742735 -9.019496659696287 C27.239105968236483 -8.651989762424115, 27.416087962199466 -8.284482865151945, 27.60448364880834 -7.893275190886684 M27.60448364880834 -7.893275190886684 C27.781086530581298 -7.457062658523043, 27.957689412354252 -7.020850126159402, 28.073571729970325 -6.734618561215508 M27.60448364880834 -7.893275190886684 C27.730741758170225 -7.581415219728348, 27.85699986753211 -7.269555248570013, 28.073571729970325 -6.734618561215508 M28.073571729970325 -6.734618561215508 C28.22807263692695 -6.269286445838709, 28.382573543883574 -5.80395433046191, 28.46746063421488 -5.548287939305138 M28.073571729970325 -6.734618561215508 C28.216985812331888 -6.302678195073426, 28.360399894693447 -5.870737828931344, 28.46746063421488 -5.548287939305138 M28.46746063421488 -5.548287939305138 C28.57557209861149 -5.136012069755791, 28.683683563008106 -4.723736200206446, 28.78453178754556 -4.339158212148133 M28.46746063421488 -5.548287939305138 C28.584532860346485 -5.101840801641571, 28.701605086478086 -4.655393663978005, 28.78453178754556 -4.339158212148133 M28.78453178754556 -4.339158212148133 C28.847172021230314 -4.017513851194998, 28.909812254915067 -3.6958694902418636, 29.023482276581777 -3.1121979531509023 M28.78453178754556 -4.339158212148133 C28.859417754229973 -3.9546346003783386, 28.934303720914386 -3.5701109886085445, 29.023482276581777 -3.1121979531509023 M29.023482276581777 -3.1121979531509023 C29.073859898377254 -2.7214790666918214, 29.12423752017273 -2.3307601802327405, 29.183330202509367 -1.872449005199798 M29.023482276581777 -3.1121979531509023 C29.06815262878425 -2.7657435226272966, 29.112822980986724 -2.419289092103691, 29.183330202509367 -1.872449005199798 M29.183330202509367 -1.872449005199798 C29.208681713561543 -1.4775787571907362, 29.234033224613718 -1.0827085091816744, 29.263418715913414 -0.6250057626472757 M29.183330202509367 -1.872449005199798 C29.20379564090765 -1.553683282741974, 29.224261079305936 -1.23491756028415, 29.263418715913414 -0.6250057626472757 M29.263418715913414 -0.6250057626472757 C29.263418715913414 -0.23998789120838465, 29.263418715913414 0.1450299802305064, 29.263418715913414 0.625005762647271 M29.263418715913414 -0.6250057626472757 C29.263418715913414 -0.17310043079362558, 29.263418715913414 0.27880490106002453, 29.263418715913414 0.625005762647271 M29.263418715913414 0.625005762647271 C29.237184686460164 1.0336219471090908, 29.21095065700691 1.4422381315709105, 29.183330202509367 1.8724490051997846 M29.263418715913414 0.625005762647271 C29.233829686225576 1.0858787838702313, 29.20424065653774 1.5467518050931914, 29.183330202509367 1.8724490051997846 M29.183330202509367 1.8724490051997846 C29.1266412072712 2.3121176577587117, 29.069952212033034 2.7517863103176383, 29.023482276581777 3.1121979531508885 M29.183330202509367 1.8724490051997846 C29.14261165038667 2.188254054675835, 29.10189309826397 2.504059104151886, 29.023482276581777 3.1121979531508885 M29.023482276581777 3.1121979531508885 C28.92799882141451 3.6024853149994236, 28.83251536624724 4.092772676847959, 28.78453178754556 4.339158212148129 M29.023482276581777 3.1121979531508885 C28.96070778316927 3.434531709430244, 28.897933289756757 3.7568654657096, 28.78453178754556 4.339158212148129 M28.78453178754556 4.339158212148129 C28.6668356534684 4.7879845812115285, 28.549139519391236 5.236810950274928, 28.467460634214884 5.548287939305125 M28.78453178754556 4.339158212148129 C28.68284387845616 4.726938281324596, 28.581155969366762 5.114718350501063, 28.467460634214884 5.548287939305125 M28.467460634214884 5.548287939305125 C28.32502868473256 5.977270277696577, 28.18259673525023 6.406252616088028, 28.07357172997033 6.734618561215495 M28.467460634214884 5.548287939305125 C28.360926482017152 5.86915183181264, 28.254392329819424 6.190015724320154, 28.07357172997033 6.734618561215495 M28.07357172997033 6.734618561215495 C27.962055602238927 7.010065552729718, 27.850539474507524 7.285512544243942, 27.604483648808344 7.893275190886679 M28.07357172997033 6.734618561215495 C27.975820929586042 6.976064928047837, 27.87807012920176 7.217511294880179, 27.604483648808344 7.893275190886679 M27.604483648808344 7.893275190886679 C27.428456074635 8.258800215044351, 27.252428500461658 8.624325239202022, 27.062123974273504 9.019496659696284 M27.604483648808344 7.893275190886679 C27.460567294103022 8.192120580748975, 27.3166509393977 8.490965970611272, 27.062123974273504 9.019496659696284 M27.062123974273504 9.019496659696284 C26.869044938015804 9.362328039944328, 26.675965901758104 9.705159420192372, 26.44872137860425 10.108655082055236 M27.062123974273504 9.019496659696284 C26.84254569385282 9.409380131295151, 26.622967413432136 9.799263602894017, 26.44872137860425 10.108655082055236 M26.44872137860425 10.108655082055236 C26.233700124887235 10.438985469055737, 26.01867887117022 10.769315856056238, 25.76679646464064 11.156274872382301 M26.44872137860425 10.108655082055236 C26.246750061326708 10.418937262286112, 26.044778744049164 10.72921944251699, 25.76679646464064 11.156274872382301 M25.76679646464064 11.156274872382301 C25.60253308615128 11.376372834856413, 25.438269707661917 11.596470797330525, 25.019151408126582 12.158051136245302 M25.76679646464064 11.156274872382301 C25.488829000994276 11.528725950311543, 25.21086153734791 11.901177028240784, 25.019151408126582 12.158051136245302 M25.019151408126582 12.158051136245302 C24.706416334733113 12.52540754858306, 24.393681261339644 12.892763960920817, 24.20885844296866 13.10986736009567 M25.019151408126582 12.158051136245302 C24.829338220086083 12.381016507594042, 24.639525032045583 12.60398187894278, 24.20885844296866 13.10986736009567 M24.20885844296866 13.10986736009567 C23.864880932677014 13.465052380550603, 23.520903422385366 13.820237401005535, 23.33924723676799 14.007812326905684 M24.20885844296866 13.10986736009567 C23.98258156761664 13.343516811573592, 23.756304692264628 13.577166263051511, 23.33924723676799 14.007812326905684 M23.33924723676799 14.007812326905684 C22.991565579194305 14.323567609161545, 22.64388392162062 14.639322891417404, 22.413891208501887 14.848196188198111 M23.33924723676799 14.007812326905684 C22.96936234282046 14.343732000970826, 22.599477448872936 14.679651675035968, 22.413891208501887 14.848196188198111 M22.413891208501887 14.848196188198111 C22.210613566102534 15.01030469856635, 22.007335923703177 15.17241320893459, 21.436592844578715 15.627565626425152 M22.413891208501887 14.848196188198111 C22.121861332392882 15.081082243153666, 21.82983145628388 15.313968298109224, 21.436592844578715 15.627565626425152 M21.436592844578715 15.627565626425152 C21.06858869202228 15.884269392605512, 20.70058453946585 16.140973158785872, 20.411368073605708 16.34271804539089 M21.436592844578715 15.627565626425152 C21.176564825868656 15.808949915845782, 20.9165368071586 15.99033420526641, 20.411368073605708 16.34271804539089 M20.411368073605708 16.34271804539089 C20.020012363126774 16.579960176944653, 19.62865665264784 16.81720230849842, 19.342429764076787 16.990714730406093 M20.411368073605708 16.34271804539089 C20.16883555577769 16.48974268297751, 19.926303037949673 16.636767320564132, 19.342429764076787 16.990714730406093 M19.342429764076787 16.990714730406093 C18.905151437539995 17.2188425532702, 18.467873111003204 17.44697037613431, 18.234170412792388 17.56889292409717 M19.342429764076787 16.990714730406093 C19.092144011213193 17.121288647359354, 18.8418582583496 17.251862564312614, 18.234170412792388 17.56889292409717 M18.234170412792388 17.56889292409717 C17.818463336154963 17.75291411541227, 17.40275625951754 17.936935306727367, 17.091144095147804 18.07487676824742 M18.234170412792388 17.56889292409717 C17.999092510644424 17.67295493803987, 17.76401460849646 17.77701695198257, 17.091144095147804 18.07487676824742 M17.091144095147804 18.07487676824742 C16.622681857289717 18.247275202196654, 16.15421961943163 18.419673636145884, 15.918047751460616 18.506587066708033 M17.091144095147804 18.07487676824742 C16.656254137300323 18.234920292813996, 16.221364179452838 18.39496381738057, 15.918047751460616 18.506587066708033 M15.918047751460616 18.506587066708033 C15.440499719453658 18.648320815906928, 14.9629516874467 18.790054565105823, 14.719701886235413 18.86224982926107 M15.918047751460616 18.506587066708033 C15.508386091438377 18.6281724970447, 15.098724431416139 18.749757927381367, 14.719701886235413 18.86224982926107 M14.719701886235413 18.86224982926107 C14.324751644455072 18.952394644656245, 13.92980140267473 19.04253946005142, 13.501030759676766 19.140403561325773 M14.719701886235413 18.86224982926107 C14.386360534349008 18.93833281757353, 14.053019182462602 19.014415805885996, 13.501030759676766 19.140403561325773 M13.501030759676766 19.140403561325773 C13.03104598343879 19.216387055161555, 12.561061207200817 19.292370548997336, 12.267042152847878 19.3399052695533 M13.501030759676766 19.140403561325773 C13.073324259313127 19.209551831391117, 12.645617758949488 19.27870010145646, 12.267042152847878 19.3399052695533 M12.267042152847878 19.3399052695533 C11.99250805498764 19.366389243798316, 11.717973957127402 19.392873218043334, 11.0228067896239 19.45993515863156 M12.267042152847878 19.3399052695533 C11.9833100401877 19.367276565223836, 11.699577927527523 19.394647860894374, 11.0228067896239 19.45993515863156 M11.0228067896239 19.45993515863156 C10.591611279403594 19.47376275937318, 10.16041576918329 19.487590360114798, 9.773437500000004 19.5 M11.0228067896239 19.45993515863156 C10.642776865744333 19.472121978607003, 10.262746941864767 19.484308798582447, 9.773437500000004 19.5 M9.773437500000004 19.5 C9.773437500000004 19.5, 9.773437500000002 19.5, 9.7734375 19.5 M9.773437500000004 19.5 C9.773437500000002 19.5, 9.773437500000002 19.5, 9.7734375 19.5 M9.7734375 19.5 C3.6490109220831934 19.5, -2.475415655833613 19.5, -9.773437499999996 19.5 M9.7734375 19.5 C3.0989621674088577 19.5, -3.5755131651822847 19.5, -9.773437499999996 19.5 M-9.773437499999996 19.5 C-10.187095030988147 19.48673480811675, -10.600752561976295 19.473469616233498, -11.022806789623893 19.45993515863156 M-9.773437499999996 19.5 C-10.224191676158187 19.485545190910386, -10.674945852316377 19.471090381820773, -11.022806789623893 19.45993515863156 M-11.022806789623893 19.45993515863156 C-11.327480051101439 19.430543695520026, -11.632153312578987 19.401152232408496, -12.267042152847871 19.3399052695533 M-11.022806789623893 19.45993515863156 C-11.460672466817943 19.41769478336317, -11.898538144011994 19.375454408094782, -12.267042152847871 19.3399052695533 M-12.267042152847871 19.3399052695533 C-12.559616039158458 19.29260419255898, -12.852189925469043 19.245303115564656, -13.501030759676759 19.140403561325773 M-12.267042152847871 19.3399052695533 C-12.660623577351222 19.27627407710913, -13.054205001854571 19.21264288466496, -13.501030759676759 19.140403561325773 M-13.501030759676759 19.140403561325773 C-13.886214711698994 19.05248783783689, -14.27139866372123 18.964572114348005, -14.719701886235388 18.862249829261074 M-13.501030759676759 19.140403561325773 C-13.959769884595014 19.035699349615733, -14.418509009513267 18.930995137905693, -14.719701886235388 18.862249829261074 M-14.719701886235388 18.862249829261074 C-15.048540992501012 18.76465210863313, -15.377380098766636 18.667054388005187, -15.918047751460593 18.506587066708043 M-14.719701886235388 18.862249829261074 C-15.055625505189365 18.762549462454594, -15.391549124143342 18.662849095648113, -15.918047751460593 18.506587066708043 M-15.918047751460593 18.506587066708043 C-16.31515067466301 18.36044952019037, -16.712253597865423 18.2143119736727, -17.091144095147797 18.074876768247425 M-15.918047751460593 18.506587066708043 C-16.163084492379227 18.416411280955185, -16.40812123329786 18.326235495202326, -17.091144095147797 18.074876768247425 M-17.091144095147797 18.074876768247425 C-17.429704563134788 17.925006092109037, -17.76826503112178 17.77513541597065, -18.23417041279238 17.568892924097174 M-17.091144095147797 18.074876768247425 C-17.49452312822145 17.896312836119588, -17.8979021612951 17.717748903991755, -18.23417041279238 17.568892924097174 M-18.23417041279238 17.568892924097174 C-18.62278535530906 17.366152757505972, -19.011400297825737 17.163412590914774, -19.34242976407678 16.990714730406097 M-18.23417041279238 17.568892924097174 C-18.553481189932697 17.402308696191387, -18.87279196707301 17.235724468285596, -19.34242976407678 16.990714730406097 M-19.34242976407678 16.990714730406097 C-19.708639914224303 16.768715985296947, -20.074850064371827 16.5467172401878, -20.411368073605686 16.3427180453909 M-19.34242976407678 16.990714730406097 C-19.758593914324322 16.738433576874026, -20.174758064571865 16.486152423341956, -20.411368073605686 16.3427180453909 M-20.411368073605686 16.3427180453909 C-20.73558633344166 16.116557422511587, -21.059804593277633 15.890396799632272, -21.436592844578712 15.627565626425156 M-20.411368073605686 16.3427180453909 C-20.785248842681952 16.081915005920933, -21.159129611758217 15.82111196645097, -21.436592844578712 15.627565626425156 M-21.436592844578712 15.627565626425156 C-21.634003597790272 15.470135804059703, -21.831414351001836 15.31270598169425, -22.41389120850187 14.848196188198125 M-21.436592844578712 15.627565626425156 C-21.80027635609309 15.337537704017132, -22.163959867607467 15.047509781609108, -22.41389120850187 14.848196188198125 M-22.41389120850187 14.848196188198125 C-22.600261432494392 14.678939681854027, -22.786631656486914 14.50968317550993, -23.339247236767974 14.007812326905697 M-22.41389120850187 14.848196188198125 C-22.620648131834827 14.660425020915552, -22.82740505516778 14.472653853632979, -23.339247236767974 14.007812326905697 M-23.339247236767974 14.007812326905697 C-23.672382677727278 13.663822633186857, -24.00551811868658 13.319832939468016, -24.208858442968655 13.109867360095677 M-23.339247236767974 14.007812326905697 C-23.633971377111035 13.703485454699557, -23.9286955174541 13.399158582493417, -24.208858442968655 13.109867360095677 M-24.208858442968655 13.109867360095677 C-24.49118664559315 12.778228588363117, -24.773514848217644 12.446589816630556, -25.01915140812658 12.158051136245307 M-24.208858442968655 13.109867360095677 C-24.436868938158447 12.84203325828103, -24.664879433348236 12.574199156466381, -25.01915140812658 12.158051136245307 M-25.01915140812658 12.158051136245307 C-25.241190399518853 11.860539115947908, -25.463229390911128 11.563027095650508, -25.766796464640635 11.156274872382316 M-25.01915140812658 12.158051136245307 C-25.261228306365094 11.83369014626481, -25.503305204603613 11.509329156284316, -25.766796464640635 11.156274872382316 M-25.766796464640635 11.156274872382316 C-25.914692948276386 10.929066157751215, -26.062589431912137 10.701857443120113, -26.448721378604244 10.108655082055249 M-25.766796464640635 11.156274872382316 C-25.982573840972897 10.824782877997444, -26.198351217305156 10.493290883612575, -26.448721378604244 10.108655082055249 M-26.448721378604244 10.108655082055249 C-26.612963335047535 9.817026857088656, -26.77720529149083 9.525398632122064, -27.0621239742735 9.019496659696289 M-26.448721378604244 10.108655082055249 C-26.659050679104325 9.735194110866185, -26.869379979604407 9.361733139677124, -27.0621239742735 9.019496659696289 M-27.0621239742735 9.019496659696289 C-27.22401289257911 8.683330856966741, -27.385901810884718 8.347165054237191, -27.60448364880834 7.893275190886686 M-27.0621239742735 9.019496659696289 C-27.248734579911574 8.63199574426151, -27.435345185549647 8.24449482882673, -27.60448364880834 7.893275190886686 M-27.60448364880834 7.893275190886686 C-27.77645470381402 7.468503360188494, -27.948425758819702 7.0437315294903025, -28.073571729970325 6.73461856121551 M-27.60448364880834 7.893275190886686 C-27.72155110911027 7.604116300595551, -27.838618569412198 7.314957410304418, -28.073571729970325 6.73461856121551 M-28.073571729970325 6.73461856121551 C-28.211023295875638 6.320636344641668, -28.348474861780947 5.906654128067824, -28.46746063421488 5.5482879393051325 M-28.073571729970325 6.73461856121551 C-28.17609755644833 6.425827107135839, -28.27862338292633 6.117035653056168, -28.46746063421488 5.5482879393051325 M-28.46746063421488 5.5482879393051325 C-28.543488655281035 5.258360144227127, -28.619516676347185 4.968432349149122, -28.784531787545557 4.339158212148136 M-28.46746063421488 5.5482879393051325 C-28.568451824339306 5.163164761502026, -28.66944301446373 4.7780415836989185, -28.784531787545557 4.339158212148136 M-28.784531787545557 4.339158212148136 C-28.836542318619205 4.072095127514586, -28.888552849692857 3.8050320428810354, -29.023482276581777 3.112197953150904 M-28.784531787545557 4.339158212148136 C-28.862361853663703 3.9395172720217606, -28.94019191978185 3.5398763318953854, -29.023482276581777 3.112197953150904 M-29.023482276581777 3.112197953150904 C-29.06922887685268 2.757396355137787, -29.114975477123583 2.40259475712467, -29.183330202509364 1.872449005199809 M-29.023482276581777 3.112197953150904 C-29.076246424206936 2.702969643629647, -29.129010571832094 2.293741334108389, -29.183330202509364 1.872449005199809 M-29.183330202509364 1.872449005199809 C-29.200030068081197 1.612335119029645, -29.21672993365303 1.3522212328594811, -29.263418715913414 0.6250057626472781 M-29.183330202509364 1.872449005199809 C-29.20123356106498 1.5935897443651383, -29.2191369196206 1.3147304835304676, -29.263418715913414 0.6250057626472781 M-29.263418715913414 0.6250057626472781 C-29.263418715913414 0.3054557885595192, -29.263418715913414 -0.014094185528239711, -29.263418715913414 -0.6250057626472687 M-29.263418715913414 0.6250057626472781 C-29.263418715913414 0.27773994356803894, -29.263418715913414 -0.06952587551120026, -29.263418715913414 -0.6250057626472687 M-29.263418715913414 -0.6250057626472687 C-29.242699480196524 -0.9477245832038841, -29.221980244479635 -1.2704434037604995, -29.183330202509367 -1.8724490051997822 M-29.263418715913414 -0.6250057626472687 C-29.232060940710024 -1.113428422980646, -29.200703165506635 -1.6018510833140231, -29.183330202509367 -1.8724490051997822 M-29.183330202509367 -1.8724490051997822 C-29.13099020609099 -2.2783876817194013, -29.078650209672606 -2.68432635823902, -29.023482276581777 -3.112197953150895 M-29.183330202509367 -1.8724490051997822 C-29.12903575237505 -2.2935460387896835, -29.074741302240728 -2.7146430723795847, -29.023482276581777 -3.112197953150895 M-29.023482276581777 -3.112197953150895 C-28.965905476358834 -3.4078426534346726, -28.90832867613589 -3.7034873537184505, -28.78453178754556 -4.339158212148126 M-29.023482276581777 -3.112197953150895 C-28.928677057013527 -3.599002718543612, -28.833871837445276 -4.085807483936329, -28.78453178754556 -4.339158212148126 M-28.78453178754556 -4.339158212148126 C-28.657940204878663 -4.821906781995992, -28.531348622211766 -5.3046553518438575, -28.467460634214884 -5.548287939305123 M-28.78453178754556 -4.339158212148126 C-28.714902818458526 -4.604683648663078, -28.645273849371495 -4.87020908517803, -28.467460634214884 -5.548287939305123 M-28.467460634214884 -5.548287939305123 C-28.353188715501645 -5.892456751711677, -28.23891679678841 -6.236625564118231, -28.073571729970332 -6.734618561215485 M-28.467460634214884 -5.548287939305123 C-28.331188042756736 -5.958719272688182, -28.194915451298584 -6.3691506060712415, -28.073571729970332 -6.734618561215485 M-28.073571729970332 -6.734618561215485 C-27.92271542530263 -7.107236550352945, -27.77185912063493 -7.479854539490405, -27.604483648808344 -7.893275190886676 M-28.073571729970332 -6.734618561215485 C-27.9353556401119 -7.076014975392117, -27.797139550253473 -7.417411389568749, -27.604483648808344 -7.893275190886676 M-27.604483648808344 -7.893275190886676 C-27.43926711458909 -8.236350859260485, -27.274050580369835 -8.579426527634295, -27.062123974273504 -9.019496659696282 M-27.604483648808344 -7.893275190886676 C-27.39427811152119 -8.329771486741441, -27.18407257423403 -8.766267782596207, -27.062123974273504 -9.019496659696282 M-27.062123974273504 -9.019496659696282 C-26.848717983923894 -9.398420605261816, -26.63531199357428 -9.777344550827351, -26.448721378604247 -10.108655082055243 M-27.062123974273504 -9.019496659696282 C-26.92900816435308 -9.25585725964741, -26.795892354432656 -9.492217859598538, -26.448721378604247 -10.108655082055243 M-26.448721378604247 -10.108655082055243 C-26.29222588779264 -10.349074180865202, -26.135730396981028 -10.589493279675162, -25.76679646464064 -11.156274872382308 M-26.448721378604247 -10.108655082055243 C-26.27717568965786 -10.372195326744293, -26.105630000711468 -10.635735571433344, -25.76679646464064 -11.156274872382308 M-25.76679646464064 -11.156274872382308 C-25.538233580329738 -11.4625283148518, -25.309670696018834 -11.768781757321293, -25.019151408126586 -12.158051136245302 M-25.76679646464064 -11.156274872382308 C-25.550189173180026 -11.446508909609328, -25.33358188171941 -11.73674294683635, -25.019151408126586 -12.158051136245302 M-25.019151408126586 -12.158051136245302 C-24.733330249074633 -12.493792933352402, -24.447509090022685 -12.829534730459505, -24.208858442968662 -13.10986736009567 M-25.019151408126586 -12.158051136245302 C-24.796605739776147 -12.419465941496988, -24.57406007142571 -12.680880746748675, -24.208858442968662 -13.10986736009567 M-24.208858442968662 -13.10986736009567 C-23.91924907524514 -13.408912809641496, -23.629639707521616 -13.70795825918732, -23.339247236767996 -14.007812326905677 M-24.208858442968662 -13.10986736009567 C-23.956880266425888 -13.370055515169117, -23.704902089883117 -13.630243670242564, -23.339247236767996 -14.007812326905677 M-23.339247236767996 -14.007812326905677 C-23.082925357283916 -14.240597075947823, -22.826603477799836 -14.47338182498997, -22.413891208501887 -14.848196188198107 M-23.339247236767996 -14.007812326905677 C-23.10890129976752 -14.21700641226999, -22.878555362767045 -14.426200497634303, -22.413891208501887 -14.848196188198107 M-22.413891208501887 -14.848196188198107 C-22.115060952508703 -15.08650536514559, -21.816230696515518 -15.324814542093073, -21.43659284457872 -15.627565626425149 M-22.413891208501887 -14.848196188198107 C-22.103755468118322 -15.095521188095343, -21.793619727734757 -15.34284618799258, -21.43659284457872 -15.627565626425149 M-21.43659284457872 -15.627565626425149 C-21.183557343613387 -15.804072238168272, -20.930521842648055 -15.980578849911394, -20.41136807360571 -16.342718045390885 M-21.43659284457872 -15.627565626425149 C-21.200987961417578 -15.79191339374735, -20.96538307825644 -15.95626116106955, -20.41136807360571 -16.342718045390885 M-20.41136807360571 -16.342718045390885 C-20.063725587208978 -16.5534609636186, -19.716083100812245 -16.764203881846317, -19.34242976407679 -16.99071473040609 M-20.41136807360571 -16.342718045390885 C-20.11787663293408 -16.52063428147318, -19.82438519226245 -16.698550517555468, -19.34242976407679 -16.99071473040609 M-19.34242976407679 -16.99071473040609 C-19.049689424863747 -17.1434371778644, -18.756949085650703 -17.29615962532271, -18.234170412792388 -17.56889292409717 M-19.34242976407679 -16.99071473040609 C-18.901763213020942 -17.22061018783153, -18.461096661965094 -17.45050564525697, -18.234170412792388 -17.56889292409717 M-18.234170412792388 -17.56889292409717 C-17.77840579397101 -17.770646401072337, -17.32264117514963 -17.9723998780475, -17.091144095147804 -18.07487676824742 M-18.234170412792388 -17.56889292409717 C-17.914914553079175 -17.710218022803616, -17.595658693365962 -17.85154312151006, -17.091144095147804 -18.07487676824742 M-17.091144095147804 -18.07487676824742 C-16.707942061982596 -18.215898658732982, -16.324740028817388 -18.35692054921854, -15.918047751460618 -18.506587066708033 M-17.091144095147804 -18.07487676824742 C-16.643458103323827 -18.239629351602588, -16.19577211149985 -18.404381934957755, -15.918047751460618 -18.506587066708033 M-15.918047751460618 -18.506587066708033 C-15.48442805008607 -18.635283117959737, -15.050808348711522 -18.763979169211446, -14.719701886235413 -18.862249829261067 M-15.918047751460618 -18.506587066708033 C-15.582542201198551 -18.606163352921243, -15.247036650936485 -18.705739639134453, -14.719701886235413 -18.862249829261067 M-14.719701886235413 -18.862249829261067 C-14.423423448695939 -18.929873449231962, -14.127145011156463 -18.997497069202858, -13.501030759676768 -19.140403561325773 M-14.719701886235413 -18.862249829261067 C-14.401771215312412 -18.934815430207724, -14.08384054438941 -19.007381031154384, -13.501030759676768 -19.140403561325773 M-13.501030759676768 -19.140403561325773 C-13.193417393606548 -19.190136104774723, -12.885804027536329 -19.239868648223673, -12.26704215284788 -19.3399052695533 M-13.501030759676768 -19.140403561325773 C-13.18355166997135 -19.191731118462233, -12.866072580265936 -19.243058675598693, -12.26704215284788 -19.3399052695533 M-12.26704215284788 -19.3399052695533 C-11.869818133335729 -19.378224992983856, -11.472594113823577 -19.416544716414418, -11.022806789623903 -19.45993515863156 M-12.26704215284788 -19.3399052695533 C-11.789166303410193 -19.38600537801876, -11.311290453972504 -19.432105486484218, -11.022806789623903 -19.45993515863156 M-11.022806789623903 -19.45993515863156 C-10.716550412644155 -19.469756204549423, -10.410294035664409 -19.47957725046729, -9.773437500000005 -19.5 M-11.022806789623903 -19.45993515863156 C-10.598296529466975 -19.473548376415696, -10.173786269310046 -19.487161594199833, -9.773437500000005 -19.5 M-9.773437500000005 -19.5 C-9.773437500000004 -19.5, -9.773437500000002 -19.5, -9.7734375 -19.5 M-9.773437500000005 -19.5 C-9.773437500000004 -19.5, -9.773437500000004 -19.5, -9.7734375 -19.5"/></g><g transform="translate(-16.8984375, -12)" style="" class="label"><rect/><foreignObject height="24" width="33.796875"><div style="display: table-cell; white-space: nowrap; line-height: 1.5; max-width: 200px; text-align: center;" xmlns="http://www.w3.org/1999/xhtml"><span class="nodeLabel"><p>Start</p></span></div></foreignObject></g></g><g transform="translate(99.8125, 124)" id="flowchart-B-1" class="node default"><rect height="54" width="162.25" y="-27" x="-81.125" style="" class="basic label-container"/><g transform="translate(-51.125, -12)" style="" class="label"><rect/><foreignObject height="24" width="102.25"><div style="display: table-cell; white-space: nowrap; line-height: 1.5; max-width: 200px; text-align: center;" xmlns="http://www.w3.org/1999/xhtml"><span class="nodeLabel"><p>Process Class</p></span></div></foreignObject></g></g><g transform="translate(99.8125, 228)" id="flowchart-C-2" class="node default"><rect height="54" width="183.625" y="-27" x="-91.8125" style="" class="basic label-container"/><g transform="translate(-61.8125, -12)" style="" class="label"><rect/><foreignObject height="24" width="123.625"><div style="display: table-cell; white-space: nowrap; line-height: 1.5; max-width: 200px; text-align: center;" xmlns="http://www.w3.org/1999/xhtml"><span class="nodeLabel"><p>Execute Methods</p></span></div></foreignObject></g></g><g transform="translate(99.8125, 394.6875)" id="flowchart-D-3" class="node default"><polygon transform="translate(-65.1875, 65.6875)" class="label-container" points="65.6875,0 131.375,-65.6875 65.6875,-131.375 0,-65.6875"/><g transform="translate(-38.6875, -12)" style="" class="label"><rect/><foreignObject height="24" width="77.375"><div style="display: table-cell; white-space: nowrap; line-height: 1.5; max-width: 200px; text-align: center;" xmlns="http://www.w3.org/1999/xhtml"><span class="nodeLabel"><p>Complete?</p></span></div></foreignObject></g></g><g transform="translate(99.8125, 553.875)" id="flowchart-E-4" class="node default"><g class="basic label-container outer-path"><path style="" fill="#ECECFF" stroke-width="0" stroke="none" d="M-7.109375 -19.5 C-3.310643765222775 -19.5, 0.4880874695544497 -19.5, 7.109375 -19.5 C7.109375 -19.5, 7.109374999999999 -19.5, 7.109374999999999 -19.5 C7.4023586725108235 -19.4906045838807, 7.695342345021648 -19.481209167761403, 8.3587442896239 -19.45993515863156 C8.666575374039644 -19.430239064139016, 8.97440645845539 -19.400542969646473, 9.602979652847864 -19.3399052695533 C10.077694800830301 -19.263157005898456, 10.552409948812736 -19.18640874224361, 10.836968259676757 -19.140403561325776 C11.180660602118135 -19.061958026965666, 11.524352944559512 -18.983512492605556, 12.05563938623539 -18.862249829261074 C12.432573354733591 -18.750377805977585, 12.809507323231792 -18.638505782694093, 13.253985251460602 -18.50658706670804 C13.614467837521143 -18.373926142773264, 13.974950423581685 -18.241265218838485, 14.427081595147794 -18.074876768247425 C14.839132542421565 -17.892474036946393, 15.251183489695338 -17.710071305645357, 15.570107912792382 -17.568892924097174 C15.893972525007653 -17.399932963349652, 16.217837137222922 -17.23097300260213, 16.678367264076783 -16.990714730406097 C16.97926349390174 -16.808309667623686, 17.280159723726698 -16.625904604841274, 17.747305573605697 -16.342718045390892 C18.12684099483937 -16.077970565361866, 18.506376416073042 -15.81322308533284, 18.772530344578712 -15.627565626425154 C19.010602558551717 -15.437709371149364, 19.248674772524723 -15.247853115873575, 19.74982870850187 -14.848196188198123 C20.054959952277876 -14.57108406593106, 20.360091196053883 -14.293971943663996, 20.675184736767985 -14.007812326905688 C20.939809395449053 -13.734565640728958, 21.204434054130118 -13.461318954552228, 21.544795942968648 -13.10986736009568 C21.784039163359694 -12.828838660099471, 22.02328238375074 -12.54780996010326, 22.355088908126582 -12.158051136245305 C22.61301781469389 -11.812449899251897, 22.870946721261195 -11.466848662258487, 23.102733964640635 -11.156274872382312 C23.329233780080774 -10.808310332149691, 23.55573359552091 -10.460345791917073, 23.784658878604247 -10.108655082055241 C23.938387110581 -9.835695039509039, 24.09211534255775 -9.562734996962837, 24.3980614742735 -9.019496659696287 C24.548554226533508 -8.706995239599323, 24.699046978793515 -8.39449381950236, 24.94042114880834 -7.893275190886684 C25.078548418965365 -7.552098163089737, 25.21667568912239 -7.210921135292789, 25.409509229970325 -6.734618561215508 C25.553166951750026 -6.301944391964662, 25.696824673529726 -5.869270222713816, 25.80339813421488 -5.548287939305138 C25.87983984067082 -5.256782582543494, 25.95628154712676 -4.96527722578185, 26.12046928754556 -4.339158212148133 C26.195009927867485 -3.956407778264965, 26.26955056818941 -3.5736573443817967, 26.359419776581777 -3.1121979531509023 C26.417389210054406 -2.6625984744966145, 26.475358643527034 -2.2129989958423266, 26.519267702509367 -1.872449005199798 C26.54864478370238 -1.4148772528654834, 26.57802186489539 -0.9573055005311688, 26.599356215913414 -0.6250057626472757 C26.599356215913414 -0.14457691491943153, 26.599356215913414 0.33585193280841263, 26.599356215913414 0.625005762647271 C26.579766660021672 0.9301289080660837, 26.560177104129927 1.2352520534848963, 26.519267702509367 1.8724490051997846 C26.458502185438196 2.343734356095215, 26.397736668367024 2.815019706990645, 26.359419776581777 3.1121979531508885 C26.288376799322684 3.4769886264377696, 26.217333822063594 3.841779299724651, 26.12046928754556 4.339158212148129 C26.015927151875644 4.737822684305733, 25.911385016205724 5.136487156463338, 25.803398134214884 5.548287939305125 C25.667009997356132 5.959067277025139, 25.53062186049738 6.369846614745153, 25.40950922997033 6.734618561215495 C25.25672868114816 7.1119894706172175, 25.103948132325993 7.48936038001894, 24.940421148808344 7.893275190886679 C24.81253409610094 8.158835392178176, 24.684647043393536 8.424395593469674, 24.398061474273504 9.019496659696284 C24.2576431858548 9.26882354967724, 24.117224897436095 9.518150439658195, 23.78465887860425 10.108655082055236 C23.52711568844755 10.504310582165798, 23.269572498290856 10.899966082276359, 23.10273396464064 11.156274872382301 C22.90606143879985 11.419798139773267, 22.70938891295906 11.68332140716423, 22.355088908126582 12.158051136245302 C22.170766563652016 12.374566650303647, 21.98644421917745 12.59108216436199, 21.54479594296866 13.10986736009567 C21.251458716280123 13.412762130085785, 20.958121489591587 13.7156569000759, 20.67518473676799 14.007812326905684 C20.320797739747604 14.329657221033477, 19.96641074272722 14.65150211516127, 19.749828708501887 14.848196188198111 C19.55061811570982 15.007061334733272, 19.351407522917754 15.165926481268436, 18.772530344578715 15.627565626425152 C18.43057573789562 15.86609835707094, 18.08862113121252 16.10463108771673, 17.747305573605708 16.34271804539089 C17.3638800807542 16.575152832415778, 16.980454587902692 16.807587619440664, 16.678367264076787 16.990714730406093 C16.312836427562434 17.181411933681954, 15.947305591048085 17.372109136957818, 15.570107912792386 17.56889292409717 C15.263825082737878 17.704475247404957, 14.95754225268337 17.840057570712744, 14.427081595147804 18.07487676824742 C13.998269664805846 18.232683522507294, 13.569457734463889 18.390490276767164, 13.253985251460616 18.506587066708033 C12.811235963670194 18.637992731285795, 12.368486675879772 18.769398395863558, 12.055639386235413 18.86224982926107 C11.70930863973967 18.941297562129392, 11.362977893243926 19.020345294997714, 10.836968259676766 19.140403561325773 C10.470191056502198 19.199701255135345, 10.10341385332763 19.258998948944917, 9.602979652847878 19.3399052695533 C9.280890099449815 19.370976861400248, 8.958800546051751 19.402048453247197, 8.3587442896239 19.45993515863156 C7.960390129265223 19.472709601204926, 7.562035968906546 19.485484043778293, 7.1093750000000036 19.5 C7.109375000000002 19.5, 7.109375000000001 19.5, 7.109375 19.5 C3.2762202886585543 19.5, -0.5569344226828914 19.5, -7.1093749999999964 19.5 C-7.591714637707844 19.48453230663586, -8.074054275415692 19.46906461327172, -8.358744289623893 19.45993515863156 C-8.80093202423312 19.417277839682363, -9.243119758842345 19.37462052073317, -9.602979652847871 19.3399052695533 C-9.87236803562604 19.296352644963832, -10.141756418404212 19.25280002037437, -10.836968259676759 19.140403561325773 C-11.119595501762277 19.07589573763487, -11.402222743847796 19.011387913943963, -12.055639386235388 18.862249829261074 C-12.524949253893585 18.722961123997887, -12.994259121551782 18.5836724187347, -13.253985251460593 18.506587066708043 C-13.520820158936544 18.408389354162047, -13.787655066412498 18.31019164161605, -14.427081595147797 18.074876768247425 C-14.670285172715866 17.96721775883584, -14.913488750283936 17.85955874942426, -15.57010791279238 17.568892924097174 C-15.817638442301527 17.439756405403124, -16.065168971810674 17.310619886709073, -16.67836726407678 16.990714730406097 C-16.97349888161681 16.811804209467432, -17.26863049915684 16.632893688528767, -17.747305573605686 16.3427180453909 C-18.03956989477238 16.138847106863565, -18.33183421593907 15.934976168336231, -18.772530344578712 15.627565626425156 C-19.14160774620208 15.333236220192655, -19.510685147825452 15.038906813960153, -19.74982870850187 14.848196188198125 C-20.088512431939524 14.540612591652318, -20.427196155377175 14.233028995106512, -20.675184736767974 14.007812326905697 C-20.907930876524322 13.76748282879382, -21.14067701628067 13.527153330681944, -21.544795942968655 13.109867360095677 C-21.81063383653339 12.797599043709877, -22.076471730098124 12.485330727324076, -22.35508890812658 12.158051136245307 C-22.616651929560135 11.807580516405801, -22.87821495099369 11.457109896566298, -23.102733964640635 11.156274872382316 C-23.340626140959014 10.79080860656348, -23.578518317277393 10.425342340744645, -23.784658878604244 10.108655082055249 C-23.97494125299321 9.77078945814786, -24.16522362738218 9.43292383424047, -24.3980614742735 9.019496659696289 C-24.54450712599495 8.715399130461716, -24.6909527777164 8.411301601227144, -24.94042114880834 7.893275190886686 C-25.04652806290077 7.631189061640758, -25.152634976993202 7.36910293239483, -25.409509229970325 6.73461856121551 C-25.560849384938926 6.278806127229201, -25.712189539907524 5.822993693242891, -25.80339813421488 5.5482879393051325 C-25.908056662031484 5.1491796134475365, -26.012715189848088 4.75007128758994, -26.120469287545557 4.339158212148136 C-26.18856085387898 3.9895224101836675, -26.256652420212397 3.6398866082191987, -26.359419776581777 3.112197953150904 C-26.421252590863983 2.6326348558483796, -26.483085405146184 2.153071758545855, -26.519267702509364 1.872449005199809 C-26.54523516354887 1.467984838952228, -26.571202624588373 1.063520672704647, -26.599356215913414 0.6250057626472781 C-26.599356215913414 0.2934720732984585, -26.599356215913414 -0.03806161605036118, -26.599356215913414 -0.6250057626472687 C-26.56934034747515 -1.09252714194616, -26.539324479036885 -1.5600485212450512, -26.519267702509367 -1.8724490051997822 C-26.47181390110856 -2.2404913180514385, -26.424360099707755 -2.608533630903095, -26.359419776581777 -3.112197953150895 C-26.264299501514635 -3.600620461943418, -26.169179226447493 -4.089042970735941, -26.12046928754556 -4.339158212148126 C-26.00448790261338 -4.781445499544732, -25.8885065176812 -5.223732786941338, -25.803398134214884 -5.548287939305123 C-25.717734640148127 -5.806292734809936, -25.63207114608137 -6.064297530314748, -25.409509229970332 -6.734618561215485 C-25.227921752918878 -7.1831431402876165, -25.04633427586742 -7.631667719359748, -24.940421148808344 -7.893275190886676 C-24.75011668625939 -8.288446479232784, -24.55981222371043 -8.68361776757889, -24.398061474273504 -9.019496659696282 C-24.217540280538195 -9.340030318926376, -24.03701908680289 -9.66056397815647, -23.784658878604247 -10.108655082055243 C-23.580990398918008 -10.421544559497796, -23.37732191923177 -10.734434036940348, -23.10273396464064 -11.156274872382308 C-22.821798711287013 -11.532702518148076, -22.540863457933387 -11.909130163913844, -22.355088908126586 -12.158051136245302 C-22.128384017743794 -12.424351600362629, -21.901679127361003 -12.690652064479957, -21.544795942968662 -13.10986736009567 C-21.21165497517879 -13.453862760720837, -20.878514007388915 -13.797858161346001, -20.675184736767996 -14.007812326905677 C-20.416294266166698 -14.242929802439285, -20.1574037955654 -14.478047277972893, -19.749828708501887 -14.848196188198107 C-19.478024287457213 -15.064952980961824, -19.20621986641254 -15.281709773725542, -18.77253034457872 -15.627565626425149 C-18.432702690285613 -15.864614687157964, -18.09287503599251 -16.10166374789078, -17.74730557360571 -16.342718045390885 C-17.496310201231484 -16.494872915136675, -17.245314828857254 -16.647027784882464, -16.67836726407679 -16.99071473040609 C-16.453416242482504 -17.108071534283823, -16.228465220888214 -17.225428338161556, -15.57010791279239 -17.56889292409717 C-15.24836863323521 -17.711317359100505, -14.92662935367803 -17.853741794103843, -14.427081595147806 -18.07487676824742 C-14.07571609926711 -18.204182518718557, -13.724350603386412 -18.33348826918969, -13.253985251460618 -18.506587066708033 C-12.89280108533123 -18.613784631320858, -12.531616919201845 -18.720982195933683, -12.055639386235413 -18.862249829261067 C-11.73696668925935 -18.934984792812163, -11.418293992283287 -19.00771975636326, -10.836968259676768 -19.140403561325773 C-10.436741176549475 -19.20510917231841, -10.03651409342218 -19.269814783311045, -9.60297965284788 -19.3399052695533 C-9.202904799808264 -19.378500009465622, -8.80282994676865 -19.41709474937795, -8.358744289623903 -19.45993515863156 C-8.004624440666495 -19.47129109293515, -7.650504591709086 -19.482647027238745, -7.109375000000006 -19.5 C-7.109375000000004 -19.5, -7.109375000000003 -19.5, -7.109375 -19.5"/><path style="" stroke-dasharray="0 0" fill="none" stroke-width="1.3" stroke="#9370DB" d="M-7.109375 -19.5 C-3.444030545691842 -19.5, 0.22131390861631584 -19.5, 7.109375 -19.5 M-7.109375 -19.5 C-3.029110395656458 -19.5, 1.051154208687084 -19.5, 7.109375 -19.5 M7.109375 -19.5 C7.109375 -19.5, 7.109375 -19.5, 7.109374999999999 -19.5 M7.109375 -19.5 C7.109375 -19.5, 7.109374999999999 -19.5, 7.109374999999999 -19.5 M7.109374999999999 -19.5 C7.457930317455267 -19.488822509390978, 7.806485634910533 -19.477645018781956, 8.3587442896239 -19.45993515863156 M7.109374999999999 -19.5 C7.576357356639158 -19.4850247847486, 8.043339713278316 -19.470049569497196, 8.3587442896239 -19.45993515863156 M8.3587442896239 -19.45993515863156 C8.616562554369981 -19.43506374070333, 8.874380819116062 -19.410192322775107, 9.602979652847864 -19.3399052695533 M8.3587442896239 -19.45993515863156 C8.85369894951382 -19.412187477862048, 9.34865360940374 -19.364439797092537, 9.602979652847864 -19.3399052695533 M9.602979652847864 -19.3399052695533 C10.079658980488366 -19.262839452563778, 10.55633830812887 -19.18577363557426, 10.836968259676757 -19.140403561325776 M9.602979652847864 -19.3399052695533 C10.016668010772605 -19.273023344045157, 10.430356368697344 -19.206141418537015, 10.836968259676757 -19.140403561325776 M10.836968259676757 -19.140403561325776 C11.149959256426083 -19.068965408774872, 11.462950253175407 -18.99752725622397, 12.05563938623539 -18.862249829261074 M10.836968259676757 -19.140403561325776 C11.298072029268377 -19.035159634899788, 11.75917579886 -18.9299157084738, 12.05563938623539 -18.862249829261074 M12.05563938623539 -18.862249829261074 C12.332141052386072 -18.780185586134415, 12.608642718536755 -18.698121343007756, 13.253985251460602 -18.50658706670804 M12.05563938623539 -18.862249829261074 C12.371345458505258 -18.768549924186367, 12.687051530775127 -18.674850019111663, 13.253985251460602 -18.50658706670804 M13.253985251460602 -18.50658706670804 C13.5218676033898 -18.408003884920777, 13.789749955318998 -18.30942070313352, 14.427081595147794 -18.074876768247425 M13.253985251460602 -18.50658706670804 C13.681120970164491 -18.349397173825707, 14.10825668886838 -18.192207280943375, 14.427081595147794 -18.074876768247425 M14.427081595147794 -18.074876768247425 C14.707038551038117 -17.950948128502812, 14.98699550692844 -17.827019488758197, 15.570107912792382 -17.568892924097174 M14.427081595147794 -18.074876768247425 C14.680380575538113 -17.962748823475916, 14.933679555928432 -17.850620878704408, 15.570107912792382 -17.568892924097174 M15.570107912792382 -17.568892924097174 C15.866088637293563 -17.41447996970961, 16.162069361794746 -17.260067015322047, 16.678367264076783 -16.990714730406097 M15.570107912792382 -17.568892924097174 C15.871278455720278 -17.41177244476063, 16.172448998648175 -17.254651965424088, 16.678367264076783 -16.990714730406097 M16.678367264076783 -16.990714730406097 C17.071916138860868 -16.752143089762086, 17.46546501364495 -16.513571449118075, 17.747305573605697 -16.342718045390892 M16.678367264076783 -16.990714730406097 C17.041835888484496 -16.770377914311414, 17.40530451289221 -16.550041098216727, 17.747305573605697 -16.342718045390892 M17.747305573605697 -16.342718045390892 C18.01072652158107 -16.158966995392323, 18.27414746955644 -15.975215945393753, 18.772530344578712 -15.627565626425154 M17.747305573605697 -16.342718045390892 C18.016088113277636 -16.15522698112436, 18.28487065294958 -15.967735916857828, 18.772530344578712 -15.627565626425154 M18.772530344578712 -15.627565626425154 C19.095810769527507 -15.369758090381895, 19.4190911944763 -15.111950554338634, 19.74982870850187 -14.848196188198123 M18.772530344578712 -15.627565626425154 C18.99339014371945 -15.451435813936502, 19.214249942860185 -15.275306001447852, 19.74982870850187 -14.848196188198123 M19.74982870850187 -14.848196188198123 C20.11960017612902 -14.512379524916057, 20.489371643756165 -14.176562861633988, 20.675184736767985 -14.007812326905688 M19.74982870850187 -14.848196188198123 C20.085881320615744 -14.543002097341184, 20.421933932729615 -14.237808006484244, 20.675184736767985 -14.007812326905688 M20.675184736767985 -14.007812326905688 C20.929335625495828 -13.745380668118166, 21.18348651422367 -13.482949009330646, 21.544795942968648 -13.10986736009568 M20.675184736767985 -14.007812326905688 C20.943811667522425 -13.730432966220553, 21.21243859827686 -13.453053605535418, 21.544795942968648 -13.10986736009568 M21.544795942968648 -13.10986736009568 C21.714704099332895 -12.910283571582257, 21.884612255697142 -12.710699783068831, 22.355088908126582 -12.158051136245305 M21.544795942968648 -13.10986736009568 C21.753961905499683 -12.864169118626297, 21.963127868030714 -12.618470877156911, 22.355088908126582 -12.158051136245305 M22.355088908126582 -12.158051136245305 C22.562126082509067 -11.88064018404738, 22.76916325689155 -11.603229231849454, 23.102733964640635 -11.156274872382312 M22.355088908126582 -12.158051136245305 C22.551420794129722 -11.894984295203866, 22.747752680132862 -11.631917454162425, 23.102733964640635 -11.156274872382312 M23.102733964640635 -11.156274872382312 C23.27363541535751 -10.893724350615983, 23.444536866074387 -10.631173828849654, 23.784658878604247 -10.108655082055241 M23.102733964640635 -11.156274872382312 C23.34274035465639 -10.787560606578444, 23.58274674467214 -10.418846340774575, 23.784658878604247 -10.108655082055241 M23.784658878604247 -10.108655082055241 C24.003796498358195 -9.719554048091894, 24.222934118112146 -9.330453014128548, 24.3980614742735 -9.019496659696287 M23.784658878604247 -10.108655082055241 C23.959940639865803 -9.797424565732364, 24.13522240112736 -9.486194049409484, 24.3980614742735 -9.019496659696287 M24.3980614742735 -9.019496659696287 C24.594796102514646 -8.610972994706845, 24.79153073075579 -8.202449329717401, 24.94042114880834 -7.893275190886684 M24.3980614742735 -9.019496659696287 C24.583583543976648 -8.63425611242132, 24.76910561367979 -8.249015565146355, 24.94042114880834 -7.893275190886684 M24.94042114880834 -7.893275190886684 C25.0978222989734 -7.504491306834772, 25.255223449138462 -7.115707422782859, 25.409509229970325 -6.734618561215508 M24.94042114880834 -7.893275190886684 C25.107371138750814 -7.480905487970299, 25.27432112869329 -7.068535785053913, 25.409509229970325 -6.734618561215508 M25.409509229970325 -6.734618561215508 C25.5617308526715 -6.276151286861498, 25.713952475372672 -5.8176840125074865, 25.80339813421488 -5.548287939305138 M25.409509229970325 -6.734618561215508 C25.534211017865438 -6.359036644607126, 25.658912805760554 -5.983454727998743, 25.80339813421488 -5.548287939305138 M25.80339813421488 -5.548287939305138 C25.920818086744926 -5.1005147701787275, 26.038238039274976 -4.652741601052318, 26.12046928754556 -4.339158212148133 M25.80339813421488 -5.548287939305138 C25.914517998663477 -5.124539736508748, 26.025637863112074 -4.700791533712358, 26.12046928754556 -4.339158212148133 M26.12046928754556 -4.339158212148133 C26.191527151550297 -3.974291098568683, 26.262585015555036 -3.6094239849892324, 26.359419776581777 -3.1121979531509023 M26.12046928754556 -4.339158212148133 C26.188932135724823 -3.9876159563757, 26.25739498390409 -3.6360737006032666, 26.359419776581777 -3.1121979531509023 M26.359419776581777 -3.1121979531509023 C26.41855202773986 -2.653579890152559, 26.477684278897943 -2.1949618271542155, 26.519267702509367 -1.872449005199798 M26.359419776581777 -3.1121979531509023 C26.40099354951838 -2.7897599799246695, 26.44256732245498 -2.4673220066984363, 26.519267702509367 -1.872449005199798 M26.519267702509367 -1.872449005199798 C26.53975055368716 -1.5534120646457592, 26.560233404864956 -1.2343751240917205, 26.599356215913414 -0.6250057626472757 M26.519267702509367 -1.872449005199798 C26.54928068289538 -1.4049726096459245, 26.57929366328139 -0.9374962140920511, 26.599356215913414 -0.6250057626472757 M26.599356215913414 -0.6250057626472757 C26.599356215913414 -0.2801441497719831, 26.599356215913414 0.0647174631033095, 26.599356215913414 0.625005762647271 M26.599356215913414 -0.6250057626472757 C26.599356215913414 -0.3567448999835254, 26.599356215913414 -0.08848403731977506, 26.599356215913414 0.625005762647271 M26.599356215913414 0.625005762647271 C26.573821227169294 1.022733823808888, 26.548286238425174 1.420461884970505, 26.519267702509367 1.8724490051997846 M26.599356215913414 0.625005762647271 C26.572767040105845 1.0391536382465874, 26.546177864298276 1.4533015138459033, 26.519267702509367 1.8724490051997846 M26.519267702509367 1.8724490051997846 C26.474768433030583 2.2175765519025523, 26.4302691635518 2.56270409860532, 26.359419776581777 3.1121979531508885 M26.519267702509367 1.8724490051997846 C26.471398481658916 2.2437132292690425, 26.423529260808465 2.614977453338301, 26.359419776581777 3.1121979531508885 M26.359419776581777 3.1121979531508885 C26.29987926468008 3.417925897874457, 26.240338752778385 3.7236538425980257, 26.12046928754556 4.339158212148129 M26.359419776581777 3.1121979531508885 C26.296186618192475 3.436886857147193, 26.232953459803177 3.761575761143498, 26.12046928754556 4.339158212148129 M26.12046928754556 4.339158212148129 C26.001633396246884 4.7923309694710685, 25.882797504948208 5.245503726794008, 25.803398134214884 5.548287939305125 M26.12046928754556 4.339158212148129 C25.99427418304407 4.820394838916577, 25.86807907854258 5.301631465685026, 25.803398134214884 5.548287939305125 M25.803398134214884 5.548287939305125 C25.691441067146066 5.885484787380205, 25.57948400007725 6.222681635455285, 25.40950922997033 6.734618561215495 M25.803398134214884 5.548287939305125 C25.674105027194734 5.937698177590759, 25.54481192017458 6.327108415876392, 25.40950922997033 6.734618561215495 M25.40950922997033 6.734618561215495 C25.265669478845176 7.089905527447023, 25.121829727720026 7.445192493678551, 24.940421148808344 7.893275190886679 M25.40950922997033 6.734618561215495 C25.225370870327314 7.189443869606737, 25.0412325106843 7.644269177997978, 24.940421148808344 7.893275190886679 M24.940421148808344 7.893275190886679 C24.804635833790307 8.175236302861945, 24.668850518772274 8.45719741483721, 24.398061474273504 9.019496659696284 M24.940421148808344 7.893275190886679 C24.726890818442776 8.336675490707945, 24.513360488077204 8.780075790529212, 24.398061474273504 9.019496659696284 M24.398061474273504 9.019496659696284 C24.260491774087665 9.263765592818949, 24.122922073901826 9.508034525941614, 23.78465887860425 10.108655082055236 M24.398061474273504 9.019496659696284 C24.157878164192205 9.445966447943075, 23.91769485411091 9.872436236189865, 23.78465887860425 10.108655082055236 M23.78465887860425 10.108655082055236 C23.60810487401375 10.379889444494694, 23.431550869423255 10.651123806934152, 23.10273396464064 11.156274872382301 M23.78465887860425 10.108655082055236 C23.570035668220154 10.438373967606774, 23.355412457836056 10.76809285315831, 23.10273396464064 11.156274872382301 M23.10273396464064 11.156274872382301 C22.87062064310803 11.467285577277398, 22.638507321575418 11.778296282172493, 22.355088908126582 12.158051136245302 M23.10273396464064 11.156274872382301 C22.908955255991042 11.415920688369235, 22.715176547341446 11.675566504356171, 22.355088908126582 12.158051136245302 M22.355088908126582 12.158051136245302 C22.144857799141004 12.405000559348744, 21.93462669015543 12.651949982452187, 21.54479594296866 13.10986736009567 M22.355088908126582 12.158051136245302 C22.15233627737866 12.39621591327333, 21.94958364663073 12.634380690301361, 21.54479594296866 13.10986736009567 M21.54479594296866 13.10986736009567 C21.214899982292188 13.450512024456208, 20.88500402161572 13.791156688816745, 20.67518473676799 14.007812326905684 M21.54479594296866 13.10986736009567 C21.201851830002944 13.46398531296808, 20.858907717037226 13.818103265840492, 20.67518473676799 14.007812326905684 M20.67518473676799 14.007812326905684 C20.48660259421967 14.179077639158, 20.29802045167135 14.350342951410315, 19.749828708501887 14.848196188198111 M20.67518473676799 14.007812326905684 C20.370448929893683 14.28456532384131, 20.065713123019382 14.561318320776934, 19.749828708501887 14.848196188198111 M19.749828708501887 14.848196188198111 C19.45118910910179 15.08635332158619, 19.152549509701696 15.324510454974268, 18.772530344578715 15.627565626425152 M19.749828708501887 14.848196188198111 C19.46629435645919 15.074307288786176, 19.182760004416494 15.300418389374244, 18.772530344578715 15.627565626425152 M18.772530344578715 15.627565626425152 C18.438014291268935 15.8609095442475, 18.103498237959155 16.094253462069847, 17.747305573605708 16.34271804539089 M18.772530344578715 15.627565626425152 C18.48936672862497 15.825088306959115, 18.206203112671222 16.022610987493078, 17.747305573605708 16.34271804539089 M17.747305573605708 16.34271804539089 C17.325653724310577 16.598325874334908, 16.904001875015442 16.853933703278926, 16.678367264076787 16.990714730406093 M17.747305573605708 16.34271804539089 C17.513448960753006 16.484483298396196, 17.279592347900305 16.626248551401506, 16.678367264076787 16.990714730406093 M16.678367264076787 16.990714730406093 C16.35894855348969 17.157355267121932, 16.03952984290259 17.323995803837775, 15.570107912792386 17.56889292409717 M16.678367264076787 16.990714730406093 C16.40217981216792 17.134801547160443, 16.125992360259055 17.278888363914792, 15.570107912792386 17.56889292409717 M15.570107912792386 17.56889292409717 C15.15550843000811 17.752423816469086, 14.740908947223835 17.935954708841, 14.427081595147804 18.07487676824742 M15.570107912792386 17.56889292409717 C15.318743588088894 17.680164454185643, 15.067379263385405 17.791435984274113, 14.427081595147804 18.07487676824742 M14.427081595147804 18.07487676824742 C14.150181739032089 18.176778474932217, 13.873281882916372 18.27868018161701, 13.253985251460616 18.506587066708033 M14.427081595147804 18.07487676824742 C14.080860382742264 18.202289374846462, 13.734639170336724 18.329701981445506, 13.253985251460616 18.506587066708033 M13.253985251460616 18.506587066708033 C12.868576789521917 18.62097427516114, 12.48316832758322 18.73536148361425, 12.055639386235413 18.86224982926107 M13.253985251460616 18.506587066708033 C13.003033603264093 18.58106819862068, 12.75208195506757 18.655549330533326, 12.055639386235413 18.86224982926107 M12.055639386235413 18.86224982926107 C11.602952308384191 18.965572700721356, 11.15026523053297 19.068895572181642, 10.836968259676766 19.140403561325773 M12.055639386235413 18.86224982926107 C11.625401045724162 18.960448922915212, 11.19516270521291 19.05864801656935, 10.836968259676766 19.140403561325773 M10.836968259676766 19.140403561325773 C10.564733951799672 19.184416293014753, 10.292499643922579 19.228429024703733, 9.602979652847878 19.3399052695533 M10.836968259676766 19.140403561325773 C10.576867890538093 19.182454571899626, 10.316767521399418 19.22450558247348, 9.602979652847878 19.3399052695533 M9.602979652847878 19.3399052695533 C9.260836025959815 19.372911453751275, 8.918692399071753 19.405917637949255, 8.3587442896239 19.45993515863156 M9.602979652847878 19.3399052695533 C9.138416541459945 19.384721114190008, 8.673853430072011 19.429536958826716, 8.3587442896239 19.45993515863156 M8.3587442896239 19.45993515863156 C7.931067708059288 19.47364991418037, 7.503391126494677 19.487364669729182, 7.1093750000000036 19.5 M8.3587442896239 19.45993515863156 C8.033686151720197 19.470359140426847, 7.7086280138164955 19.48078312222214, 7.1093750000000036 19.5 M7.1093750000000036 19.5 C7.109375000000003 19.5, 7.109375000000002 19.5, 7.109375 19.5 M7.1093750000000036 19.5 C7.109375000000003 19.5, 7.109375000000002 19.5, 7.109375 19.5 M7.109375 19.5 C4.024619251789063 19.5, 0.9398635035781258 19.5, -7.1093749999999964 19.5 M7.109375 19.5 C1.8714431902527453 19.5, -3.3664886194945094 19.5, -7.1093749999999964 19.5 M-7.1093749999999964 19.5 C-7.418881178629137 19.490074739268593, -7.728387357258278 19.48014947853719, -8.358744289623893 19.45993515863156 M-7.1093749999999964 19.5 C-7.500044547635726 19.487471987999466, -7.890714095271456 19.474943975998933, -8.358744289623893 19.45993515863156 M-8.358744289623893 19.45993515863156 C-8.745446658354894 19.422630446197722, -9.132149027085893 19.38532573376388, -9.602979652847871 19.3399052695533 M-8.358744289623893 19.45993515863156 C-8.654380535974225 19.431415485500747, -8.950016782324557 19.402895812369938, -9.602979652847871 19.3399052695533 M-9.602979652847871 19.3399052695533 C-10.0289152199801 19.271043310239016, -10.454850787112328 19.202181350924732, -10.836968259676759 19.140403561325773 M-9.602979652847871 19.3399052695533 C-9.906187425626655 19.29088498826182, -10.209395198405439 19.241864706970343, -10.836968259676759 19.140403561325773 M-10.836968259676759 19.140403561325773 C-11.22665205175171 19.051460778709057, -11.616335843826663 18.96251799609234, -12.055639386235388 18.862249829261074 M-10.836968259676759 19.140403561325773 C-11.227367745756519 19.0512974262228, -11.617767231836277 18.962191291119826, -12.055639386235388 18.862249829261074 M-12.055639386235388 18.862249829261074 C-12.441834200403017 18.74762923559407, -12.828029014570644 18.633008641927066, -13.253985251460593 18.506587066708043 M-12.055639386235388 18.862249829261074 C-12.477831480720434 18.73694543174944, -12.900023575205482 18.611641034237806, -13.253985251460593 18.506587066708043 M-13.253985251460593 18.506587066708043 C-13.601624592498846 18.378652575663125, -13.949263933537098 18.250718084618207, -14.427081595147797 18.074876768247425 M-13.253985251460593 18.506587066708043 C-13.614812223143296 18.373799405680845, -13.975639194826 18.241011744653647, -14.427081595147797 18.074876768247425 M-14.427081595147797 18.074876768247425 C-14.73988674835542 17.936407205957593, -15.052691901563044 17.797937643667765, -15.57010791279238 17.568892924097174 M-14.427081595147797 18.074876768247425 C-14.860915029415146 17.882831576108853, -15.294748463682497 17.69078638397028, -15.57010791279238 17.568892924097174 M-15.57010791279238 17.568892924097174 C-15.996765187149125 17.346306097352286, -16.42342246150587 17.123719270607403, -16.67836726407678 16.990714730406097 M-15.57010791279238 17.568892924097174 C-16.012211823461104 17.338247597082372, -16.45431573412983 17.107602270067567, -16.67836726407678 16.990714730406097 M-16.67836726407678 16.990714730406097 C-17.055594653115474 16.762037270336638, -17.432822042154168 16.53335981026718, -17.747305573605686 16.3427180453909 M-16.67836726407678 16.990714730406097 C-16.979910594459437 16.807917391462826, -17.28145392484209 16.625120052519552, -17.747305573605686 16.3427180453909 M-17.747305573605686 16.3427180453909 C-18.024847347931015 16.14911691821132, -18.302389122256344 15.955515791031743, -18.772530344578712 15.627565626425156 M-17.747305573605686 16.3427180453909 C-17.960725457375553 16.193845573270906, -18.17414534114542 16.044973101150916, -18.772530344578712 15.627565626425156 M-18.772530344578712 15.627565626425156 C-19.062467229180214 15.396348676499988, -19.352404113781716 15.16513172657482, -19.74982870850187 14.848196188198125 M-18.772530344578712 15.627565626425156 C-19.052199792700684 15.404536683864455, -19.331869240822655 15.181507741303754, -19.74982870850187 14.848196188198125 M-19.74982870850187 14.848196188198125 C-20.01362298624506 14.608625204765879, -20.277417263988248 14.36905422133363, -20.675184736767974 14.007812326905697 M-19.74982870850187 14.848196188198125 C-20.115787522675497 14.515842075905264, -20.48174633684912 14.183487963612402, -20.675184736767974 14.007812326905697 M-20.675184736767974 14.007812326905697 C-20.882706201859325 13.793529376369735, -21.090227666950675 13.579246425833771, -21.544795942968655 13.109867360095677 M-20.675184736767974 14.007812326905697 C-20.937317844266786 13.737138371884802, -21.1994509517656 13.466464416863909, -21.544795942968655 13.109867360095677 M-21.544795942968655 13.109867360095677 C-21.756496515796805 12.861191821147887, -21.968197088624954 12.6125162822001, -22.35508890812658 12.158051136245307 M-21.544795942968655 13.109867360095677 C-21.74278364989285 12.877299733722847, -21.940771356817045 12.644732107350016, -22.35508890812658 12.158051136245307 M-22.35508890812658 12.158051136245307 C-22.58918962836578 11.84437749813913, -22.82329034860498 11.530703860032954, -23.102733964640635 11.156274872382316 M-22.35508890812658 12.158051136245307 C-22.597714414026875 11.832955061977215, -22.84033991992717 11.50785898770912, -23.102733964640635 11.156274872382316 M-23.102733964640635 11.156274872382316 C-23.273091123169795 10.894560529579232, -23.443448281698956 10.63284618677615, -23.784658878604244 10.108655082055249 M-23.102733964640635 11.156274872382316 C-23.317671683129362 10.826072817924816, -23.532609401618085 10.495870763467318, -23.784658878604244 10.108655082055249 M-23.784658878604244 10.108655082055249 C-23.925558949068083 9.858472739267432, -24.066459019531923 9.608290396479617, -24.3980614742735 9.019496659696289 M-23.784658878604244 10.108655082055249 C-24.016907434934037 9.696274252575199, -24.24915599126383 9.28389342309515, -24.3980614742735 9.019496659696289 M-24.3980614742735 9.019496659696289 C-24.540948606803504 8.722788471702868, -24.68383573933351 8.426080283709448, -24.94042114880834 7.893275190886686 M-24.3980614742735 9.019496659696289 C-24.561161631566744 8.680815693292555, -24.724261788859987 8.34213472688882, -24.94042114880834 7.893275190886686 M-24.94042114880834 7.893275190886686 C-25.048853538229203 7.625445092619521, -25.15728592765007 7.357614994352357, -25.409509229970325 6.73461856121551 M-24.94042114880834 7.893275190886686 C-25.04186572354844 7.642705129981213, -25.14331029828854 7.3921350690757395, -25.409509229970325 6.73461856121551 M-25.409509229970325 6.73461856121551 C-25.554117014261667 6.299082955051502, -25.69872479855301 5.8635473488874945, -25.80339813421488 5.5482879393051325 M-25.409509229970325 6.73461856121551 C-25.550526266255552 6.309897715937919, -25.69154330254078 5.885176870660329, -25.80339813421488 5.5482879393051325 M-25.80339813421488 5.5482879393051325 C-25.927146634859774 5.076381273406714, -26.050895135504664 4.604474607508295, -26.120469287545557 4.339158212148136 M-25.80339813421488 5.5482879393051325 C-25.91442264430359 5.124903364009842, -26.025447154392293 4.70151878871455, -26.120469287545557 4.339158212148136 M-26.120469287545557 4.339158212148136 C-26.17704461469226 4.04865586444944, -26.233619941838967 3.7581535167507454, -26.359419776581777 3.112197953150904 M-26.120469287545557 4.339158212148136 C-26.184028151922945 4.012796876741003, -26.24758701630033 3.6864355413338714, -26.359419776581777 3.112197953150904 M-26.359419776581777 3.112197953150904 C-26.419697038221337 2.6446994149661274, -26.479974299860892 2.1772008767813507, -26.519267702509364 1.872449005199809 M-26.359419776581777 3.112197953150904 C-26.392565698514506 2.8551247280432737, -26.425711620447235 2.5980515029356432, -26.519267702509364 1.872449005199809 M-26.519267702509364 1.872449005199809 C-26.54951313732966 1.401351944198109, -26.57975857214996 0.9302548831964091, -26.599356215913414 0.6250057626472781 M-26.519267702509364 1.872449005199809 C-26.54781676366318 1.4277743333417257, -26.576365824816996 0.9830996614836424, -26.599356215913414 0.6250057626472781 M-26.599356215913414 0.6250057626472781 C-26.599356215913414 0.25210255990303027, -26.599356215913414 -0.12080064284121761, -26.599356215913414 -0.6250057626472687 M-26.599356215913414 0.6250057626472781 C-26.599356215913414 0.34884734611735313, -26.599356215913414 0.07268892958742812, -26.599356215913414 -0.6250057626472687 M-26.599356215913414 -0.6250057626472687 C-26.575994340176365 -0.9888858346185001, -26.552632464439316 -1.3527659065897315, -26.519267702509367 -1.8724490051997822 M-26.599356215913414 -0.6250057626472687 C-26.581799090616993 -0.8984721609954706, -26.564241965320576 -1.1719385593436724, -26.519267702509367 -1.8724490051997822 M-26.519267702509367 -1.8724490051997822 C-26.48605894220784 -2.1300095922869517, -26.452850181906317 -2.387570179374121, -26.359419776581777 -3.112197953150895 M-26.519267702509367 -1.8724490051997822 C-26.47869787380326 -2.1871005852255276, -26.43812804509715 -2.5017521652512733, -26.359419776581777 -3.112197953150895 M-26.359419776581777 -3.112197953150895 C-26.282077336793197 -3.509335035134825, -26.204734897004613 -3.9064721171187546, -26.12046928754556 -4.339158212148126 M-26.359419776581777 -3.112197953150895 C-26.28982695222038 -3.469542397798037, -26.22023412785898 -3.8268868424451785, -26.12046928754556 -4.339158212148126 M-26.12046928754556 -4.339158212148126 C-25.99852497009254 -4.804184745597994, -25.87658065263952 -5.269211279047863, -25.803398134214884 -5.548287939305123 M-26.12046928754556 -4.339158212148126 C-26.028908725382696 -4.6883183182737875, -25.937348163219834 -5.037478424399449, -25.803398134214884 -5.548287939305123 M-25.803398134214884 -5.548287939305123 C-25.65258220693918 -6.002521483004768, -25.501766279663478 -6.456755026704414, -25.409509229970332 -6.734618561215485 M-25.803398134214884 -5.548287939305123 C-25.697197712520566 -5.86814668870909, -25.59099729082625 -6.1880054381130565, -25.409509229970332 -6.734618561215485 M-25.409509229970332 -6.734618561215485 C-25.277394233988467 -7.0609451555603755, -25.1452792380066 -7.387271749905267, -24.940421148808344 -7.893275190886676 M-25.409509229970332 -6.734618561215485 C-25.255751892861483 -7.114402156570229, -25.101994555752633 -7.494185751924972, -24.940421148808344 -7.893275190886676 M-24.940421148808344 -7.893275190886676 C-24.741963355594084 -8.305377044812614, -24.543505562379824 -8.717478898738552, -24.398061474273504 -9.019496659696282 M-24.940421148808344 -7.893275190886676 C-24.807619263037505 -8.169041148194982, -24.674817377266663 -8.444807105503287, -24.398061474273504 -9.019496659696282 M-24.398061474273504 -9.019496659696282 C-24.270112270468182 -9.246683427314446, -24.14216306666286 -9.47387019493261, -23.784658878604247 -10.108655082055243 M-24.398061474273504 -9.019496659696282 C-24.210210941059508 -9.353044303346886, -24.022360407845515 -9.68659194699749, -23.784658878604247 -10.108655082055243 M-23.784658878604247 -10.108655082055243 C-23.57605209182657 -10.429131125311374, -23.367445305048893 -10.749607168567504, -23.10273396464064 -11.156274872382308 M-23.784658878604247 -10.108655082055243 C-23.610511864789373 -10.376191660295822, -23.4363648509745 -10.643728238536399, -23.10273396464064 -11.156274872382308 M-23.10273396464064 -11.156274872382308 C-22.889921114579522 -11.441424703814727, -22.677108264518402 -11.726574535247146, -22.355088908126586 -12.158051136245302 M-23.10273396464064 -11.156274872382308 C-22.93286963485042 -11.383877599342412, -22.763005305060197 -11.611480326302514, -22.355088908126586 -12.158051136245302 M-22.355088908126586 -12.158051136245302 C-22.161389439426134 -12.385581553992855, -21.967689970725683 -12.613111971740409, -21.544795942968662 -13.10986736009567 M-22.355088908126586 -12.158051136245302 C-22.099493712888005 -12.458287796351154, -21.843898517649425 -12.758524456457007, -21.544795942968662 -13.10986736009567 M-21.544795942968662 -13.10986736009567 C-21.218628992061515 -13.446661515711984, -20.89246204115437 -13.7834556713283, -20.675184736767996 -14.007812326905677 M-21.544795942968662 -13.10986736009567 C-21.32982813926597 -13.331839266603613, -21.11486033556328 -13.553811173111557, -20.675184736767996 -14.007812326905677 M-20.675184736767996 -14.007812326905677 C-20.318936453514905 -14.331347591943079, -19.962688170261814 -14.65488285698048, -19.749828708501887 -14.848196188198107 M-20.675184736767996 -14.007812326905677 C-20.366658757135205 -14.288007458458083, -20.058132777502415 -14.568202590010488, -19.749828708501887 -14.848196188198107 M-19.749828708501887 -14.848196188198107 C-19.488790335819758 -15.056367343889276, -19.227751963137624 -15.264538499580445, -18.77253034457872 -15.627565626425149 M-19.749828708501887 -14.848196188198107 C-19.46648646731588 -15.074154085490246, -19.18314422612988 -15.300111982782386, -18.77253034457872 -15.627565626425149 M-18.77253034457872 -15.627565626425149 C-18.439931672623278 -15.85957206201681, -18.107333000667836 -16.09157849760847, -17.74730557360571 -16.342718045390885 M-18.77253034457872 -15.627565626425149 C-18.537915939042012 -15.791222479433632, -18.303301533505305 -15.954879332442113, -17.74730557360571 -16.342718045390885 M-17.74730557360571 -16.342718045390885 C-17.50558711607965 -16.48924919483851, -17.26386865855359 -16.63578034428614, -16.67836726407679 -16.99071473040609 M-17.74730557360571 -16.342718045390885 C-17.407240987760723 -16.548867195771447, -17.067176401915734 -16.755016346152008, -16.67836726407679 -16.99071473040609 M-16.67836726407679 -16.99071473040609 C-16.286198845360637 -17.195308743254447, -15.89403042664448 -17.399902756102804, -15.57010791279239 -17.56889292409717 M-16.67836726407679 -16.99071473040609 C-16.276924566192232 -17.200147128756143, -15.875481868307675 -17.4095795271062, -15.57010791279239 -17.56889292409717 M-15.57010791279239 -17.56889292409717 C-15.178569339339095 -17.74221543598583, -14.7870307658858 -17.915537947874487, -14.427081595147806 -18.07487676824742 M-15.57010791279239 -17.56889292409717 C-15.281665960344274 -17.696577620119438, -14.99322400789616 -17.824262316141706, -14.427081595147806 -18.07487676824742 M-14.427081595147806 -18.07487676824742 C-14.029245336180669 -18.22128418910539, -13.631409077213531 -18.367691609963362, -13.253985251460618 -18.506587066708033 M-14.427081595147806 -18.07487676824742 C-13.977150321879531 -18.240455635929244, -13.527219048611256 -18.406034503611064, -13.253985251460618 -18.506587066708033 M-13.253985251460618 -18.506587066708033 C-12.979070466757763 -18.58818033175069, -12.704155682054907 -18.669773596793345, -12.055639386235413 -18.862249829261067 M-13.253985251460618 -18.506587066708033 C-12.94215044624 -18.59913800004322, -12.630315641019383 -18.6916889333784, -12.055639386235413 -18.862249829261067 M-12.055639386235413 -18.862249829261067 C-11.636750868040112 -18.957858400036105, -11.217862349844811 -19.053466970811144, -10.836968259676768 -19.140403561325773 M-12.055639386235413 -18.862249829261067 C-11.572978937111568 -18.972413927119806, -11.090318487987725 -19.08257802497854, -10.836968259676768 -19.140403561325773 M-10.836968259676768 -19.140403561325773 C-10.585807609144327 -19.181009267523923, -10.334646958611888 -19.221614973722073, -9.60297965284788 -19.3399052695533 M-10.836968259676768 -19.140403561325773 C-10.411134305450739 -19.2092490926534, -9.98530035122471 -19.27809462398103, -9.60297965284788 -19.3399052695533 M-9.60297965284788 -19.3399052695533 C-9.34734845652269 -19.364565703621295, -9.0917172601975 -19.389226137689292, -8.358744289623903 -19.45993515863156 M-9.60297965284788 -19.3399052695533 C-9.200217868710187 -19.378759214477146, -8.797456084572495 -19.417613159400997, -8.358744289623903 -19.45993515863156 M-8.358744289623903 -19.45993515863156 C-7.910886153145953 -19.474297097365426, -7.4630280166680025 -19.488659036099296, -7.109375000000006 -19.5 M-8.358744289623903 -19.45993515863156 C-7.88294962954219 -19.475192967302256, -7.407154969460477 -19.490450775972953, -7.109375000000006 -19.5 M-7.109375000000006 -19.5 C-7.1093750000000036 -19.5, -7.109375000000002 -19.5, -7.109375 -19.5 M-7.109375000000006 -19.5 C-7.109375000000004 -19.5, -7.1093750000000036 -19.5, -7.109375 -19.5"/></g><g transform="translate(-14.234375, -12)" style="" class="label"><rect/><foreignObject height="24" width="28.46875"><div style="display: table-cell; white-space: nowrap; line-height: 1.5; max-width: 200px; text-align: center;" xmlns="http://www.w3.org/1999/xhtml"><span class="nodeLabel"><p>End</p></span></div></foreignObject></g></g></g></g></g></svg>