<?xml version="1.0" encoding="UTF-8" standalone="no"?>
<!DOCTYPE svg PUBLIC "-//W3C//DTD SVG 1.1//EN"
 "http://www.w3.org/Graphics/SVG/1.1/DTD/svg11.dtd">
<!-- Generated by graphviz version 2.43.0 (0)
 -->
<!-- Title: G Pages: 1 -->
<svg width="1981pt" height="5228pt"
 viewBox="0.00 0.00 1981.50 5228.00" xmlns="http://www.w3.org/2000/svg" xmlns:xlink="http://www.w3.org/1999/xlink">
<g id="graph0" class="graph" transform="scale(1 1) rotate(0) translate(4 5224)">
<title>G</title>
<polygon fill="white" stroke="transparent" points="-4,4 -4,-5224 1977.5,-5224 1977.5,4 -4,4"/>
<!-- node_1 -->
<g id="node1" class="node">
<title>node_1</title>
<polygon fill="lightblue" stroke="black" points="104,-5220 8,-5220 8,-5184 104,-5184 104,-5220"/>
<text text-anchor="middle" x="56" y="-5198.3" font-family="Times,serif" font-size="14.00">Expression</text>
</g>
<!-- node_2 -->
<g id="node2" class="node">
<title>node_2</title>
<polygon fill="lightblue" stroke="black" points="112,-5148 0,-5148 0,-5112 112,-5112 112,-5148"/>
<text text-anchor="middle" x="56" y="-5126.3" font-family="Times,serif" font-size="14.00">Function Call</text>
</g>
<!-- node_1&#45;&gt;node_2 -->
<g id="edge1" class="edge">
<title>node_1&#45;&gt;node_2</title>
<path fill="none" stroke="black" d="M56,-5183.7C56,-5175.98 56,-5166.71 56,-5158.11"/>
<polygon fill="black" stroke="black" points="59.5,-5158.1 56,-5148.1 52.5,-5158.1 59.5,-5158.1"/>
</g>
<!-- node_3 -->
<g id="node3" class="node">
<title>node_3</title>
<polygon fill="lightblue" stroke="black" points="104,-5076 8,-5076 8,-5040 104,-5040 104,-5076"/>
<text text-anchor="middle" x="56" y="-5054.3" font-family="Times,serif" font-size="14.00">Expression</text>
</g>
<!-- node_2&#45;&gt;node_3 -->
<g id="edge2" class="edge">
<title>node_2&#45;&gt;node_3</title>
<path fill="none" stroke="black" d="M56,-5111.7C56,-5103.98 56,-5094.71 56,-5086.11"/>
<polygon fill="black" stroke="black" points="59.5,-5086.1 56,-5076.1 52.5,-5086.1 59.5,-5086.1"/>
</g>
<!-- node_4 -->
<g id="node4" class="node">
<title>node_4</title>
<polygon fill="lightblue" stroke="black" points="104,-5004 8,-5004 8,-4968 104,-4968 104,-5004"/>
<text text-anchor="middle" x="56" y="-4982.3" font-family="Times,serif" font-size="14.00">Expression</text>
</g>
<!-- node_3&#45;&gt;node_4 -->
<g id="edge3" class="edge">
<title>node_3&#45;&gt;node_4</title>
<path fill="none" stroke="black" d="M56,-5039.7C56,-5031.98 56,-5022.71 56,-5014.11"/>
<polygon fill="black" stroke="black" points="59.5,-5014.1 56,-5004.1 52.5,-5014.1 59.5,-5014.1"/>
</g>
<!-- node_5 -->
<g id="node5" class="node">
<title>node_5</title>
<polygon fill="lightblue" stroke="black" points="104,-4932 8,-4932 8,-4896 104,-4896 104,-4932"/>
<text text-anchor="middle" x="56" y="-4910.3" font-family="Times,serif" font-size="14.00">Expression</text>
</g>
<!-- node_4&#45;&gt;node_5 -->
<g id="edge4" class="edge">
<title>node_4&#45;&gt;node_5</title>
<path fill="none" stroke="black" d="M56,-4967.7C56,-4959.98 56,-4950.71 56,-4942.11"/>
<polygon fill="black" stroke="black" points="59.5,-4942.1 56,-4932.1 52.5,-4942.1 59.5,-4942.1"/>
</g>
<!-- node_6 -->
<g id="node74" class="node">
<title>node_6</title>
<polygon fill="lightblue" stroke="black" points="89.5,-4860 22.5,-4860 22.5,-4824 89.5,-4824 89.5,-4860"/>
<text text-anchor="middle" x="56" y="-4838.3" font-family="Times,serif" font-size="14.00">node_6</text>
</g>
<!-- node_5&#45;&gt;node_6 -->
<g id="edge5" class="edge">
<title>node_5&#45;&gt;node_6</title>
<path fill="none" stroke="black" d="M56,-4895.7C56,-4887.98 56,-4878.71 56,-4870.11"/>
<polygon fill="black" stroke="black" points="59.5,-4870.1 56,-4860.1 52.5,-4870.1 59.5,-4870.1"/>
</g>
<!-- start_6 -->
<g id="node6" class="node">
<title>start_6</title>
<ellipse fill="lightgreen" stroke="black" cx="156" cy="-5202" rx="34.39" ry="18"/>
<text text-anchor="middle" x="156" y="-5198.3" font-family="Times,serif" font-size="14.00">Start</text>
</g>
<!-- node_7 -->
<g id="node7" class="node">
<title>node_7</title>
<polygon fill="lightblue" stroke="black" points="112,-4788 0,-4788 0,-4752 112,-4752 112,-4788"/>
<text text-anchor="middle" x="56" y="-4766.3" font-family="Times,serif" font-size="14.00">Function Call</text>
</g>
<!-- node_8 -->
<g id="node75" class="node">
<title>node_8</title>
<polygon fill="lightblue" stroke="black" points="89.5,-4716 22.5,-4716 22.5,-4680 89.5,-4680 89.5,-4716"/>
<text text-anchor="middle" x="56" y="-4694.3" font-family="Times,serif" font-size="14.00">node_8</text>
</g>
<!-- node_7&#45;&gt;node_8 -->
<g id="edge7" class="edge">
<title>node_7&#45;&gt;node_8</title>
<path fill="none" stroke="black" d="M56,-4751.7C56,-4743.98 56,-4734.71 56,-4726.11"/>
<polygon fill="black" stroke="black" points="59.5,-4726.1 56,-4716.1 52.5,-4726.1 59.5,-4726.1"/>
</g>
<!-- stop_8 -->
<g id="node8" class="node">
<title>stop_8</title>
<ellipse fill="lightcoral" stroke="black" cx="241" cy="-5202" rx="32.49" ry="18"/>
<text text-anchor="middle" x="241" y="-5198.3" font-family="Times,serif" font-size="14.00">Stop</text>
</g>
<!-- start_9 -->
<g id="node9" class="node">
<title>start_9</title>
<ellipse fill="lightgreen" stroke="black" cx="326" cy="-5202" rx="34.39" ry="18"/>
<text text-anchor="middle" x="326" y="-5198.3" font-family="Times,serif" font-size="14.00">Start</text>
</g>
<!-- node_10 -->
<g id="node10" class="node">
<title>node_10</title>
<polygon fill="lightblue" stroke="black" points="104,-4572 8,-4572 8,-4536 104,-4536 104,-4572"/>
<text text-anchor="middle" x="56" y="-4550.3" font-family="Times,serif" font-size="14.00">Expression</text>
</g>
<!-- node_11 -->
<g id="node11" class="node">
<title>node_11</title>
<polygon fill="lightblue" stroke="black" points="112,-4500 0,-4500 0,-4464 112,-4464 112,-4500"/>
<text text-anchor="middle" x="56" y="-4478.3" font-family="Times,serif" font-size="14.00">Function Call</text>
</g>
<!-- node_10&#45;&gt;node_11 -->
<g id="edge10" class="edge">
<title>node_10&#45;&gt;node_11</title>
<path fill="none" stroke="black" d="M56,-4535.7C56,-4527.98 56,-4518.71 56,-4510.11"/>
<polygon fill="black" stroke="black" points="59.5,-4510.1 56,-4500.1 52.5,-4510.1 59.5,-4510.1"/>
</g>
<!-- node_12 -->
<g id="node12" class="node">
<title>node_12</title>
<polygon fill="lightblue" stroke="black" points="112,-4428 0,-4428 0,-4392 112,-4392 112,-4428"/>
<text text-anchor="middle" x="56" y="-4406.3" font-family="Times,serif" font-size="14.00">Function Call</text>
</g>
<!-- node_11&#45;&gt;node_12 -->
<g id="edge11" class="edge">
<title>node_11&#45;&gt;node_12</title>
<path fill="none" stroke="black" d="M56,-4463.7C56,-4455.98 56,-4446.71 56,-4438.11"/>
<polygon fill="black" stroke="black" points="59.5,-4438.1 56,-4428.1 52.5,-4438.1 59.5,-4438.1"/>
</g>
<!-- node_13 -->
<g id="node13" class="node">
<title>node_13</title>
<polygon fill="lightblue" stroke="black" points="112,-4356 0,-4356 0,-4320 112,-4320 112,-4356"/>
<text text-anchor="middle" x="56" y="-4334.3" font-family="Times,serif" font-size="14.00">Function Call</text>
</g>
<!-- node_12&#45;&gt;node_13 -->
<g id="edge12" class="edge">
<title>node_12&#45;&gt;node_13</title>
<path fill="none" stroke="black" d="M56,-4391.7C56,-4383.98 56,-4374.71 56,-4366.11"/>
<polygon fill="black" stroke="black" points="59.5,-4366.1 56,-4356.1 52.5,-4366.1 59.5,-4366.1"/>
</g>
<!-- node_14 -->
<g id="node77" class="node">
<title>node_14</title>
<polygon fill="lightblue" stroke="black" points="94,-4284 18,-4284 18,-4248 94,-4248 94,-4284"/>
<text text-anchor="middle" x="56" y="-4262.3" font-family="Times,serif" font-size="14.00">node_14</text>
</g>
<!-- node_13&#45;&gt;node_14 -->
<g id="edge13" class="edge">
<title>node_13&#45;&gt;node_14</title>
<path fill="none" stroke="black" d="M56,-4319.7C56,-4311.98 56,-4302.71 56,-4294.11"/>
<polygon fill="black" stroke="black" points="59.5,-4294.1 56,-4284.1 52.5,-4294.1 59.5,-4294.1"/>
</g>
<!-- stop_14 -->
<g id="node14" class="node">
<title>stop_14</title>
<ellipse fill="lightcoral" stroke="black" cx="411" cy="-5202" rx="32.49" ry="18"/>
<text text-anchor="middle" x="411" y="-5198.3" font-family="Times,serif" font-size="14.00">Stop</text>
</g>
<!-- start_15 -->
<g id="node15" class="node">
<title>start_15</title>
<ellipse fill="lightgreen" stroke="black" cx="496" cy="-5202" rx="34.39" ry="18"/>
<text text-anchor="middle" x="496" y="-5198.3" font-family="Times,serif" font-size="14.00">Start</text>
</g>
<!-- node_16 -->
<g id="node16" class="node">
<title>node_16</title>
<polygon fill="lightblue" stroke="black" points="104,-4140 8,-4140 8,-4104 104,-4104 104,-4140"/>
<text text-anchor="middle" x="56" y="-4118.3" font-family="Times,serif" font-size="14.00">Expression</text>
</g>
<!-- node_17 -->
<g id="node17" class="node">
<title>node_17</title>
<polygon fill="lightblue" stroke="black" points="112,-4068 0,-4068 0,-4032 112,-4032 112,-4068"/>
<text text-anchor="middle" x="56" y="-4046.3" font-family="Times,serif" font-size="14.00">Function Call</text>
</g>
<!-- node_16&#45;&gt;node_17 -->
<g id="edge16" class="edge">
<title>node_16&#45;&gt;node_17</title>
<path fill="none" stroke="black" d="M56,-4103.7C56,-4095.98 56,-4086.71 56,-4078.11"/>
<polygon fill="black" stroke="black" points="59.5,-4078.1 56,-4068.1 52.5,-4078.1 59.5,-4078.1"/>
</g>
<!-- node_18 -->
<g id="node18" class="node">
<title>node_18</title>
<polygon fill="lightblue" stroke="black" points="112,-3996 0,-3996 0,-3960 112,-3960 112,-3996"/>
<text text-anchor="middle" x="56" y="-3974.3" font-family="Times,serif" font-size="14.00">Function Call</text>
</g>
<!-- node_17&#45;&gt;node_18 -->
<g id="edge17" class="edge">
<title>node_17&#45;&gt;node_18</title>
<path fill="none" stroke="black" d="M56,-4031.7C56,-4023.98 56,-4014.71 56,-4006.11"/>
<polygon fill="black" stroke="black" points="59.5,-4006.1 56,-3996.1 52.5,-4006.1 59.5,-4006.1"/>
</g>
<!-- node_19 -->
<g id="node19" class="node">
<title>node_19</title>
<polygon fill="lightblue" stroke="black" points="112,-3924 0,-3924 0,-3888 112,-3888 112,-3924"/>
<text text-anchor="middle" x="56" y="-3902.3" font-family="Times,serif" font-size="14.00">Function Call</text>
</g>
<!-- node_18&#45;&gt;node_19 -->
<g id="edge18" class="edge">
<title>node_18&#45;&gt;node_19</title>
<path fill="none" stroke="black" d="M56,-3959.7C56,-3951.98 56,-3942.71 56,-3934.11"/>
<polygon fill="black" stroke="black" points="59.5,-3934.1 56,-3924.1 52.5,-3934.1 59.5,-3934.1"/>
</g>
<!-- node_20 -->
<g id="node20" class="node">
<title>node_20</title>
<polygon fill="lightblue" stroke="black" points="112,-3852 0,-3852 0,-3816 112,-3816 112,-3852"/>
<text text-anchor="middle" x="56" y="-3830.3" font-family="Times,serif" font-size="14.00">Function Call</text>
</g>
<!-- node_19&#45;&gt;node_20 -->
<g id="edge19" class="edge">
<title>node_19&#45;&gt;node_20</title>
<path fill="none" stroke="black" d="M56,-3887.7C56,-3879.98 56,-3870.71 56,-3862.11"/>
<polygon fill="black" stroke="black" points="59.5,-3862.1 56,-3852.1 52.5,-3862.1 59.5,-3862.1"/>
</g>
<!-- node_21 -->
<g id="node21" class="node">
<title>node_21</title>
<polygon fill="lightblue" stroke="black" points="112,-3780 0,-3780 0,-3744 112,-3744 112,-3780"/>
<text text-anchor="middle" x="56" y="-3758.3" font-family="Times,serif" font-size="14.00">Function Call</text>
</g>
<!-- node_20&#45;&gt;node_21 -->
<g id="edge20" class="edge">
<title>node_20&#45;&gt;node_21</title>
<path fill="none" stroke="black" d="M56,-3815.7C56,-3807.98 56,-3798.71 56,-3790.11"/>
<polygon fill="black" stroke="black" points="59.5,-3790.1 56,-3780.1 52.5,-3790.1 59.5,-3790.1"/>
</g>
<!-- node_22 -->
<g id="node22" class="node">
<title>node_22</title>
<polygon fill="lightblue" stroke="black" points="112,-3708 0,-3708 0,-3672 112,-3672 112,-3708"/>
<text text-anchor="middle" x="56" y="-3686.3" font-family="Times,serif" font-size="14.00">Function Call</text>
</g>
<!-- node_21&#45;&gt;node_22 -->
<g id="edge21" class="edge">
<title>node_21&#45;&gt;node_22</title>
<path fill="none" stroke="black" d="M56,-3743.7C56,-3735.98 56,-3726.71 56,-3718.11"/>
<polygon fill="black" stroke="black" points="59.5,-3718.1 56,-3708.1 52.5,-3718.1 59.5,-3718.1"/>
</g>
<!-- node_23 -->
<g id="node23" class="node">
<title>node_23</title>
<polygon fill="lightblue" stroke="black" points="112,-3636 0,-3636 0,-3600 112,-3600 112,-3636"/>
<text text-anchor="middle" x="56" y="-3614.3" font-family="Times,serif" font-size="14.00">Function Call</text>
</g>
<!-- node_22&#45;&gt;node_23 -->
<g id="edge22" class="edge">
<title>node_22&#45;&gt;node_23</title>
<path fill="none" stroke="black" d="M56,-3671.7C56,-3663.98 56,-3654.71 56,-3646.11"/>
<polygon fill="black" stroke="black" points="59.5,-3646.1 56,-3636.1 52.5,-3646.1 59.5,-3646.1"/>
</g>
<!-- node_24 -->
<g id="node24" class="node">
<title>node_24</title>
<polygon fill="lightblue" stroke="black" points="112,-3564 0,-3564 0,-3528 112,-3528 112,-3564"/>
<text text-anchor="middle" x="56" y="-3542.3" font-family="Times,serif" font-size="14.00">Function Call</text>
</g>
<!-- node_23&#45;&gt;node_24 -->
<g id="edge23" class="edge">
<title>node_23&#45;&gt;node_24</title>
<path fill="none" stroke="black" d="M56,-3599.7C56,-3591.98 56,-3582.71 56,-3574.11"/>
<polygon fill="black" stroke="black" points="59.5,-3574.1 56,-3564.1 52.5,-3574.1 59.5,-3574.1"/>
</g>
<!-- node_25 -->
<g id="node25" class="node">
<title>node_25</title>
<polygon fill="lightblue" stroke="black" points="112,-3492 0,-3492 0,-3456 112,-3456 112,-3492"/>
<text text-anchor="middle" x="56" y="-3470.3" font-family="Times,serif" font-size="14.00">Function Call</text>
</g>
<!-- node_24&#45;&gt;node_25 -->
<g id="edge24" class="edge">
<title>node_24&#45;&gt;node_25</title>
<path fill="none" stroke="black" d="M56,-3527.7C56,-3519.98 56,-3510.71 56,-3502.11"/>
<polygon fill="black" stroke="black" points="59.5,-3502.1 56,-3492.1 52.5,-3502.1 59.5,-3502.1"/>
</g>
<!-- node_26 -->
<g id="node79" class="node">
<title>node_26</title>
<polygon fill="lightblue" stroke="black" points="94,-3420 18,-3420 18,-3384 94,-3384 94,-3420"/>
<text text-anchor="middle" x="56" y="-3398.3" font-family="Times,serif" font-size="14.00">node_26</text>
</g>
<!-- node_25&#45;&gt;node_26 -->
<g id="edge25" class="edge">
<title>node_25&#45;&gt;node_26</title>
<path fill="none" stroke="black" d="M56,-3455.7C56,-3447.98 56,-3438.71 56,-3430.11"/>
<polygon fill="black" stroke="black" points="59.5,-3430.1 56,-3420.1 52.5,-3430.1 59.5,-3430.1"/>
</g>
<!-- stop_26 -->
<g id="node26" class="node">
<title>stop_26</title>
<ellipse fill="lightcoral" stroke="black" cx="581" cy="-5202" rx="32.49" ry="18"/>
<text text-anchor="middle" x="581" y="-5198.3" font-family="Times,serif" font-size="14.00">Stop</text>
</g>
<!-- start_27 -->
<g id="node27" class="node">
<title>start_27</title>
<ellipse fill="lightgreen" stroke="black" cx="666" cy="-5202" rx="34.39" ry="18"/>
<text text-anchor="middle" x="666" y="-5198.3" font-family="Times,serif" font-size="14.00">Start</text>
</g>
<!-- node_28 -->
<g id="node28" class="node">
<title>node_28</title>
<polygon fill="lightblue" stroke="black" points="104,-3276 8,-3276 8,-3240 104,-3240 104,-3276"/>
<text text-anchor="middle" x="56" y="-3254.3" font-family="Times,serif" font-size="14.00">Expression</text>
</g>
<!-- node_29 -->
<g id="node29" class="node">
<title>node_29</title>
<polygon fill="lightblue" stroke="black" points="112,-3204 0,-3204 0,-3168 112,-3168 112,-3204"/>
<text text-anchor="middle" x="56" y="-3182.3" font-family="Times,serif" font-size="14.00">Function Call</text>
</g>
<!-- node_28&#45;&gt;node_29 -->
<g id="edge28" class="edge">
<title>node_28&#45;&gt;node_29</title>
<path fill="none" stroke="black" d="M56,-3239.7C56,-3231.98 56,-3222.71 56,-3214.11"/>
<polygon fill="black" stroke="black" points="59.5,-3214.1 56,-3204.1 52.5,-3214.1 59.5,-3214.1"/>
</g>
<!-- node_30 -->
<g id="node81" class="node">
<title>node_30</title>
<polygon fill="lightblue" stroke="black" points="94,-3132 18,-3132 18,-3096 94,-3096 94,-3132"/>
<text text-anchor="middle" x="56" y="-3110.3" font-family="Times,serif" font-size="14.00">node_30</text>
</g>
<!-- node_29&#45;&gt;node_30 -->
<g id="edge29" class="edge">
<title>node_29&#45;&gt;node_30</title>
<path fill="none" stroke="black" d="M56,-3167.7C56,-3159.98 56,-3150.71 56,-3142.11"/>
<polygon fill="black" stroke="black" points="59.5,-3142.1 56,-3132.1 52.5,-3142.1 59.5,-3142.1"/>
</g>
<!-- stop_30 -->
<g id="node30" class="node">
<title>stop_30</title>
<ellipse fill="lightcoral" stroke="black" cx="751" cy="-5202" rx="32.49" ry="18"/>
<text text-anchor="middle" x="751" y="-5198.3" font-family="Times,serif" font-size="14.00">Stop</text>
</g>
<!-- start_31 -->
<g id="node31" class="node">
<title>start_31</title>
<ellipse fill="lightgreen" stroke="black" cx="836" cy="-5202" rx="34.39" ry="18"/>
<text text-anchor="middle" x="836" y="-5198.3" font-family="Times,serif" font-size="14.00">Start</text>
</g>
<!-- node_32 -->
<g id="node32" class="node">
<title>node_32</title>
<polygon fill="lightblue" stroke="black" points="104,-2988 8,-2988 8,-2952 104,-2952 104,-2988"/>
<text text-anchor="middle" x="56" y="-2966.3" font-family="Times,serif" font-size="14.00">Expression</text>
</g>
<!-- node_33 -->
<g id="node33" class="node">
<title>node_33</title>
<polygon fill="lightblue" stroke="black" points="112,-2916 0,-2916 0,-2880 112,-2880 112,-2916"/>
<text text-anchor="middle" x="56" y="-2894.3" font-family="Times,serif" font-size="14.00">Function Call</text>
</g>
<!-- node_32&#45;&gt;node_33 -->
<g id="edge32" class="edge">
<title>node_32&#45;&gt;node_33</title>
<path fill="none" stroke="black" d="M56,-2951.7C56,-2943.98 56,-2934.71 56,-2926.11"/>
<polygon fill="black" stroke="black" points="59.5,-2926.1 56,-2916.1 52.5,-2926.1 59.5,-2926.1"/>
</g>
<!-- node_34 -->
<g id="node34" class="node">
<title>node_34</title>
<polygon fill="lightblue" stroke="black" points="112,-2844 0,-2844 0,-2808 112,-2808 112,-2844"/>
<text text-anchor="middle" x="56" y="-2822.3" font-family="Times,serif" font-size="14.00">Function Call</text>
</g>
<!-- node_33&#45;&gt;node_34 -->
<g id="edge33" class="edge">
<title>node_33&#45;&gt;node_34</title>
<path fill="none" stroke="black" d="M56,-2879.7C56,-2871.98 56,-2862.71 56,-2854.11"/>
<polygon fill="black" stroke="black" points="59.5,-2854.1 56,-2844.1 52.5,-2854.1 59.5,-2854.1"/>
</g>
<!-- node_35 -->
<g id="node83" class="node">
<title>node_35</title>
<polygon fill="lightblue" stroke="black" points="94,-2772 18,-2772 18,-2736 94,-2736 94,-2772"/>
<text text-anchor="middle" x="56" y="-2750.3" font-family="Times,serif" font-size="14.00">node_35</text>
</g>
<!-- node_34&#45;&gt;node_35 -->
<g id="edge34" class="edge">
<title>node_34&#45;&gt;node_35</title>
<path fill="none" stroke="black" d="M56,-2807.7C56,-2799.98 56,-2790.71 56,-2782.11"/>
<polygon fill="black" stroke="black" points="59.5,-2782.1 56,-2772.1 52.5,-2782.1 59.5,-2782.1"/>
</g>
<!-- stop_35 -->
<g id="node35" class="node">
<title>stop_35</title>
<ellipse fill="lightcoral" stroke="black" cx="921" cy="-5202" rx="32.49" ry="18"/>
<text text-anchor="middle" x="921" y="-5198.3" font-family="Times,serif" font-size="14.00">Stop</text>
</g>
<!-- start_36 -->
<g id="node36" class="node">
<title>start_36</title>
<ellipse fill="lightgreen" stroke="black" cx="1006" cy="-5202" rx="34.39" ry="18"/>
<text text-anchor="middle" x="1006" y="-5198.3" font-family="Times,serif" font-size="14.00">Start</text>
</g>
<!-- node_37 -->
<g id="node37" class="node">
<title>node_37</title>
<polygon fill="lightblue" stroke="black" points="104,-2628 8,-2628 8,-2592 104,-2592 104,-2628"/>
<text text-anchor="middle" x="56" y="-2606.3" font-family="Times,serif" font-size="14.00">Expression</text>
</g>
<!-- node_38 -->
<g id="node38" class="node">
<title>node_38</title>
<polygon fill="lightblue" stroke="black" points="112,-2556 0,-2556 0,-2520 112,-2520 112,-2556"/>
<text text-anchor="middle" x="56" y="-2534.3" font-family="Times,serif" font-size="14.00">Function Call</text>
</g>
<!-- node_37&#45;&gt;node_38 -->
<g id="edge37" class="edge">
<title>node_37&#45;&gt;node_38</title>
<path fill="none" stroke="black" d="M56,-2591.7C56,-2583.98 56,-2574.71 56,-2566.11"/>
<polygon fill="black" stroke="black" points="59.5,-2566.1 56,-2556.1 52.5,-2566.1 59.5,-2566.1"/>
</g>
<!-- node_39 -->
<g id="node39" class="node">
<title>node_39</title>
<polygon fill="lightblue" stroke="black" points="112,-2484 0,-2484 0,-2448 112,-2448 112,-2484"/>
<text text-anchor="middle" x="56" y="-2462.3" font-family="Times,serif" font-size="14.00">Function Call</text>
</g>
<!-- node_38&#45;&gt;node_39 -->
<g id="edge38" class="edge">
<title>node_38&#45;&gt;node_39</title>
<path fill="none" stroke="black" d="M56,-2519.7C56,-2511.98 56,-2502.71 56,-2494.11"/>
<polygon fill="black" stroke="black" points="59.5,-2494.1 56,-2484.1 52.5,-2494.1 59.5,-2494.1"/>
</g>
<!-- node_40 -->
<g id="node40" class="node">
<title>node_40</title>
<polygon fill="lightblue" stroke="black" points="112,-2412 0,-2412 0,-2376 112,-2376 112,-2412"/>
<text text-anchor="middle" x="56" y="-2390.3" font-family="Times,serif" font-size="14.00">Function Call</text>
</g>
<!-- node_39&#45;&gt;node_40 -->
<g id="edge39" class="edge">
<title>node_39&#45;&gt;node_40</title>
<path fill="none" stroke="black" d="M56,-2447.7C56,-2439.98 56,-2430.71 56,-2422.11"/>
<polygon fill="black" stroke="black" points="59.5,-2422.1 56,-2412.1 52.5,-2422.1 59.5,-2422.1"/>
</g>
<!-- node_41 -->
<g id="node41" class="node">
<title>node_41</title>
<polygon fill="lightblue" stroke="black" points="112,-2340 0,-2340 0,-2304 112,-2304 112,-2340"/>
<text text-anchor="middle" x="56" y="-2318.3" font-family="Times,serif" font-size="14.00">Function Call</text>
</g>
<!-- node_40&#45;&gt;node_41 -->
<g id="edge40" class="edge">
<title>node_40&#45;&gt;node_41</title>
<path fill="none" stroke="black" d="M56,-2375.7C56,-2367.98 56,-2358.71 56,-2350.11"/>
<polygon fill="black" stroke="black" points="59.5,-2350.1 56,-2340.1 52.5,-2350.1 59.5,-2350.1"/>
</g>
<!-- node_42 -->
<g id="node42" class="node">
<title>node_42</title>
<polygon fill="lightblue" stroke="black" points="112,-2268 0,-2268 0,-2232 112,-2232 112,-2268"/>
<text text-anchor="middle" x="56" y="-2246.3" font-family="Times,serif" font-size="14.00">Function Call</text>
</g>
<!-- node_41&#45;&gt;node_42 -->
<g id="edge41" class="edge">
<title>node_41&#45;&gt;node_42</title>
<path fill="none" stroke="black" d="M56,-2303.7C56,-2295.98 56,-2286.71 56,-2278.11"/>
<polygon fill="black" stroke="black" points="59.5,-2278.1 56,-2268.1 52.5,-2278.1 59.5,-2278.1"/>
</g>
<!-- node_43 -->
<g id="node43" class="node">
<title>node_43</title>
<polygon fill="lightblue" stroke="black" points="112,-2196 0,-2196 0,-2160 112,-2160 112,-2196"/>
<text text-anchor="middle" x="56" y="-2174.3" font-family="Times,serif" font-size="14.00">Function Call</text>
</g>
<!-- node_42&#45;&gt;node_43 -->
<g id="edge42" class="edge">
<title>node_42&#45;&gt;node_43</title>
<path fill="none" stroke="black" d="M56,-2231.7C56,-2223.98 56,-2214.71 56,-2206.11"/>
<polygon fill="black" stroke="black" points="59.5,-2206.1 56,-2196.1 52.5,-2206.1 59.5,-2206.1"/>
</g>
<!-- node_44 -->
<g id="node44" class="node">
<title>node_44</title>
<polygon fill="lightblue" stroke="black" points="112,-2124 0,-2124 0,-2088 112,-2088 112,-2124"/>
<text text-anchor="middle" x="56" y="-2102.3" font-family="Times,serif" font-size="14.00">Function Call</text>
</g>
<!-- node_43&#45;&gt;node_44 -->
<g id="edge43" class="edge">
<title>node_43&#45;&gt;node_44</title>
<path fill="none" stroke="black" d="M56,-2159.7C56,-2151.98 56,-2142.71 56,-2134.11"/>
<polygon fill="black" stroke="black" points="59.5,-2134.1 56,-2124.1 52.5,-2134.1 59.5,-2134.1"/>
</g>
<!-- node_45 -->
<g id="node45" class="node">
<title>node_45</title>
<polygon fill="lightblue" stroke="black" points="112,-2052 0,-2052 0,-2016 112,-2016 112,-2052"/>
<text text-anchor="middle" x="56" y="-2030.3" font-family="Times,serif" font-size="14.00">Function Call</text>
</g>
<!-- node_44&#45;&gt;node_45 -->
<g id="edge44" class="edge">
<title>node_44&#45;&gt;node_45</title>
<path fill="none" stroke="black" d="M56,-2087.7C56,-2079.98 56,-2070.71 56,-2062.11"/>
<polygon fill="black" stroke="black" points="59.5,-2062.1 56,-2052.1 52.5,-2062.1 59.5,-2062.1"/>
</g>
<!-- node_46 -->
<g id="node46" class="node">
<title>node_46</title>
<polygon fill="lightblue" stroke="black" points="112,-1980 0,-1980 0,-1944 112,-1944 112,-1980"/>
<text text-anchor="middle" x="56" y="-1958.3" font-family="Times,serif" font-size="14.00">Function Call</text>
</g>
<!-- node_45&#45;&gt;node_46 -->
<g id="edge45" class="edge">
<title>node_45&#45;&gt;node_46</title>
<path fill="none" stroke="black" d="M56,-2015.7C56,-2007.98 56,-1998.71 56,-1990.11"/>
<polygon fill="black" stroke="black" points="59.5,-1990.1 56,-1980.1 52.5,-1990.1 59.5,-1990.1"/>
</g>
<!-- node_47 -->
<g id="node85" class="node">
<title>node_47</title>
<polygon fill="lightblue" stroke="black" points="94,-1908 18,-1908 18,-1872 94,-1872 94,-1908"/>
<text text-anchor="middle" x="56" y="-1886.3" font-family="Times,serif" font-size="14.00">node_47</text>
</g>
<!-- node_46&#45;&gt;node_47 -->
<g id="edge46" class="edge">
<title>node_46&#45;&gt;node_47</title>
<path fill="none" stroke="black" d="M56,-1943.7C56,-1935.98 56,-1926.71 56,-1918.11"/>
<polygon fill="black" stroke="black" points="59.5,-1918.1 56,-1908.1 52.5,-1918.1 59.5,-1918.1"/>
</g>
<!-- stop_47 -->
<g id="node47" class="node">
<title>stop_47</title>
<ellipse fill="lightcoral" stroke="black" cx="1091" cy="-5202" rx="32.49" ry="18"/>
<text text-anchor="middle" x="1091" y="-5198.3" font-family="Times,serif" font-size="14.00">Stop</text>
</g>
<!-- start_48 -->
<g id="node48" class="node">
<title>start_48</title>
<ellipse fill="lightgreen" stroke="black" cx="1176" cy="-5202" rx="34.39" ry="18"/>
<text text-anchor="middle" x="1176" y="-5198.3" font-family="Times,serif" font-size="14.00">Start</text>
</g>
<!-- node_49 -->
<g id="node49" class="node">
<title>node_49</title>
<polygon fill="lightblue" stroke="black" points="104,-1764 8,-1764 8,-1728 104,-1728 104,-1764"/>
<text text-anchor="middle" x="56" y="-1742.3" font-family="Times,serif" font-size="14.00">Expression</text>
</g>
<!-- node_50 -->
<g id="node87" class="node">
<title>node_50</title>
<polygon fill="lightblue" stroke="black" points="94,-1692 18,-1692 18,-1656 94,-1656 94,-1692"/>
<text text-anchor="middle" x="56" y="-1670.3" font-family="Times,serif" font-size="14.00">node_50</text>
</g>
<!-- node_49&#45;&gt;node_50 -->
<g id="edge49" class="edge">
<title>node_49&#45;&gt;node_50</title>
<path fill="none" stroke="black" d="M56,-1727.7C56,-1719.98 56,-1710.71 56,-1702.11"/>
<polygon fill="black" stroke="black" points="59.5,-1702.1 56,-1692.1 52.5,-1702.1 59.5,-1702.1"/>
</g>
<!-- stop_50 -->
<g id="node50" class="node">
<title>stop_50</title>
<ellipse fill="lightcoral" stroke="black" cx="1261" cy="-5202" rx="32.49" ry="18"/>
<text text-anchor="middle" x="1261" y="-5198.3" font-family="Times,serif" font-size="14.00">Stop</text>
</g>
<!-- start_51 -->
<g id="node51" class="node">
<title>start_51</title>
<ellipse fill="lightgreen" stroke="black" cx="1346" cy="-5202" rx="34.39" ry="18"/>
<text text-anchor="middle" x="1346" y="-5198.3" font-family="Times,serif" font-size="14.00">Start</text>
</g>
<!-- node_52 -->
<g id="node52" class="node">
<title>node_52</title>
<polygon fill="lightblue" stroke="black" points="104,-1548 8,-1548 8,-1512 104,-1512 104,-1548"/>
<text text-anchor="middle" x="56" y="-1526.3" font-family="Times,serif" font-size="14.00">Expression</text>
</g>
<!-- node_53 -->
<g id="node89" class="node">
<title>node_53</title>
<polygon fill="lightblue" stroke="black" points="94,-1476 18,-1476 18,-1440 94,-1440 94,-1476"/>
<text text-anchor="middle" x="56" y="-1454.3" font-family="Times,serif" font-size="14.00">node_53</text>
</g>
<!-- node_52&#45;&gt;node_53 -->
<g id="edge52" class="edge">
<title>node_52&#45;&gt;node_53</title>
<path fill="none" stroke="black" d="M56,-1511.7C56,-1503.98 56,-1494.71 56,-1486.11"/>
<polygon fill="black" stroke="black" points="59.5,-1486.1 56,-1476.1 52.5,-1486.1 59.5,-1486.1"/>
</g>
<!-- stop_53 -->
<g id="node53" class="node">
<title>stop_53</title>
<ellipse fill="lightcoral" stroke="black" cx="1431" cy="-5202" rx="32.49" ry="18"/>
<text text-anchor="middle" x="1431" y="-5198.3" font-family="Times,serif" font-size="14.00">Stop</text>
</g>
<!-- start_54 -->
<g id="node54" class="node">
<title>start_54</title>
<ellipse fill="lightgreen" stroke="black" cx="1516" cy="-5202" rx="34.39" ry="18"/>
<text text-anchor="middle" x="1516" y="-5198.3" font-family="Times,serif" font-size="14.00">Start</text>
</g>
<!-- node_55 -->
<g id="node55" class="node">
<title>node_55</title>
<polygon fill="lightblue" stroke="black" points="104,-1332 8,-1332 8,-1296 104,-1296 104,-1332"/>
<text text-anchor="middle" x="56" y="-1310.3" font-family="Times,serif" font-size="14.00">Expression</text>
</g>
<!-- node_56 -->
<g id="node56" class="node">
<title>node_56</title>
<polygon fill="lightblue" stroke="black" points="112,-1260 0,-1260 0,-1224 112,-1224 112,-1260"/>
<text text-anchor="middle" x="56" y="-1238.3" font-family="Times,serif" font-size="14.00">Function Call</text>
</g>
<!-- node_55&#45;&gt;node_56 -->
<g id="edge55" class="edge">
<title>node_55&#45;&gt;node_56</title>
<path fill="none" stroke="black" d="M56,-1295.7C56,-1287.98 56,-1278.71 56,-1270.11"/>
<polygon fill="black" stroke="black" points="59.5,-1270.1 56,-1260.1 52.5,-1270.1 59.5,-1270.1"/>
</g>
<!-- node_57 -->
<g id="node57" class="node">
<title>node_57</title>
<polygon fill="lightblue" stroke="black" points="112,-1188 0,-1188 0,-1152 112,-1152 112,-1188"/>
<text text-anchor="middle" x="56" y="-1166.3" font-family="Times,serif" font-size="14.00">Function Call</text>
</g>
<!-- node_56&#45;&gt;node_57 -->
<g id="edge56" class="edge">
<title>node_56&#45;&gt;node_57</title>
<path fill="none" stroke="black" d="M56,-1223.7C56,-1215.98 56,-1206.71 56,-1198.11"/>
<polygon fill="black" stroke="black" points="59.5,-1198.1 56,-1188.1 52.5,-1198.1 59.5,-1198.1"/>
</g>
<!-- node_58 -->
<g id="node58" class="node">
<title>node_58</title>
<polygon fill="lightblue" stroke="black" points="112,-1116 0,-1116 0,-1080 112,-1080 112,-1116"/>
<text text-anchor="middle" x="56" y="-1094.3" font-family="Times,serif" font-size="14.00">Function Call</text>
</g>
<!-- node_57&#45;&gt;node_58 -->
<g id="edge57" class="edge">
<title>node_57&#45;&gt;node_58</title>
<path fill="none" stroke="black" d="M56,-1151.7C56,-1143.98 56,-1134.71 56,-1126.11"/>
<polygon fill="black" stroke="black" points="59.5,-1126.1 56,-1116.1 52.5,-1126.1 59.5,-1126.1"/>
</g>
<!-- node_59 -->
<g id="node59" class="node">
<title>node_59</title>
<polygon fill="lightblue" stroke="black" points="112,-1044 0,-1044 0,-1008 112,-1008 112,-1044"/>
<text text-anchor="middle" x="56" y="-1022.3" font-family="Times,serif" font-size="14.00">Function Call</text>
</g>
<!-- node_58&#45;&gt;node_59 -->
<g id="edge58" class="edge">
<title>node_58&#45;&gt;node_59</title>
<path fill="none" stroke="black" d="M56,-1079.7C56,-1071.98 56,-1062.71 56,-1054.11"/>
<polygon fill="black" stroke="black" points="59.5,-1054.1 56,-1044.1 52.5,-1054.1 59.5,-1054.1"/>
</g>
<!-- node_60 -->
<g id="node60" class="node">
<title>node_60</title>
<polygon fill="lightblue" stroke="black" points="112,-972 0,-972 0,-936 112,-936 112,-972"/>
<text text-anchor="middle" x="56" y="-950.3" font-family="Times,serif" font-size="14.00">Function Call</text>
</g>
<!-- node_59&#45;&gt;node_60 -->
<g id="edge59" class="edge">
<title>node_59&#45;&gt;node_60</title>
<path fill="none" stroke="black" d="M56,-1007.7C56,-999.98 56,-990.71 56,-982.11"/>
<polygon fill="black" stroke="black" points="59.5,-982.1 56,-972.1 52.5,-982.1 59.5,-982.1"/>
</g>
<!-- node_61 -->
<g id="node61" class="node">
<title>node_61</title>
<polygon fill="lightblue" stroke="black" points="112,-900 0,-900 0,-864 112,-864 112,-900"/>
<text text-anchor="middle" x="56" y="-878.3" font-family="Times,serif" font-size="14.00">Function Call</text>
</g>
<!-- node_60&#45;&gt;node_61 -->
<g id="edge60" class="edge">
<title>node_60&#45;&gt;node_61</title>
<path fill="none" stroke="black" d="M56,-935.7C56,-927.98 56,-918.71 56,-910.11"/>
<polygon fill="black" stroke="black" points="59.5,-910.1 56,-900.1 52.5,-910.1 59.5,-910.1"/>
</g>
<!-- node_62 -->
<g id="node62" class="node">
<title>node_62</title>
<polygon fill="lightblue" stroke="black" points="112,-828 0,-828 0,-792 112,-792 112,-828"/>
<text text-anchor="middle" x="56" y="-806.3" font-family="Times,serif" font-size="14.00">Function Call</text>
</g>
<!-- node_61&#45;&gt;node_62 -->
<g id="edge61" class="edge">
<title>node_61&#45;&gt;node_62</title>
<path fill="none" stroke="black" d="M56,-863.7C56,-855.98 56,-846.71 56,-838.11"/>
<polygon fill="black" stroke="black" points="59.5,-838.1 56,-828.1 52.5,-838.1 59.5,-838.1"/>
</g>
<!-- node_63 -->
<g id="node63" class="node">
<title>node_63</title>
<polygon fill="lightblue" stroke="black" points="112,-756 0,-756 0,-720 112,-720 112,-756"/>
<text text-anchor="middle" x="56" y="-734.3" font-family="Times,serif" font-size="14.00">Function Call</text>
</g>
<!-- node_62&#45;&gt;node_63 -->
<g id="edge62" class="edge">
<title>node_62&#45;&gt;node_63</title>
<path fill="none" stroke="black" d="M56,-791.7C56,-783.98 56,-774.71 56,-766.11"/>
<polygon fill="black" stroke="black" points="59.5,-766.1 56,-756.1 52.5,-766.1 59.5,-766.1"/>
</g>
<!-- node_64 -->
<g id="node64" class="node">
<title>node_64</title>
<polygon fill="lightblue" stroke="black" points="112,-684 0,-684 0,-648 112,-648 112,-684"/>
<text text-anchor="middle" x="56" y="-662.3" font-family="Times,serif" font-size="14.00">Function Call</text>
</g>
<!-- node_63&#45;&gt;node_64 -->
<g id="edge63" class="edge">
<title>node_63&#45;&gt;node_64</title>
<path fill="none" stroke="black" d="M56,-719.7C56,-711.98 56,-702.71 56,-694.11"/>
<polygon fill="black" stroke="black" points="59.5,-694.1 56,-684.1 52.5,-694.1 59.5,-694.1"/>
</g>
<!-- node_65 -->
<g id="node91" class="node">
<title>node_65</title>
<polygon fill="lightblue" stroke="black" points="94,-612 18,-612 18,-576 94,-576 94,-612"/>
<text text-anchor="middle" x="56" y="-590.3" font-family="Times,serif" font-size="14.00">node_65</text>
</g>
<!-- node_64&#45;&gt;node_65 -->
<g id="edge64" class="edge">
<title>node_64&#45;&gt;node_65</title>
<path fill="none" stroke="black" d="M56,-647.7C56,-639.98 56,-630.71 56,-622.11"/>
<polygon fill="black" stroke="black" points="59.5,-622.1 56,-612.1 52.5,-622.1 59.5,-622.1"/>
</g>
<!-- stop_65 -->
<g id="node65" class="node">
<title>stop_65</title>
<ellipse fill="lightcoral" stroke="black" cx="1601" cy="-5202" rx="32.49" ry="18"/>
<text text-anchor="middle" x="1601" y="-5198.3" font-family="Times,serif" font-size="14.00">Stop</text>
</g>
<!-- start_66 -->
<g id="node66" class="node">
<title>start_66</title>
<ellipse fill="lightgreen" stroke="black" cx="1686" cy="-5202" rx="34.39" ry="18"/>
<text text-anchor="middle" x="1686" y="-5198.3" font-family="Times,serif" font-size="14.00">Start</text>
</g>
<!-- node_67 -->
<g id="node67" class="node">
<title>node_67</title>
<polygon fill="lightblue" stroke="black" points="104,-468 8,-468 8,-432 104,-432 104,-468"/>
<text text-anchor="middle" x="56" y="-446.3" font-family="Times,serif" font-size="14.00">Expression</text>
</g>
<!-- node_68 -->
<g id="node93" class="node">
<title>node_68</title>
<polygon fill="lightblue" stroke="black" points="94,-396 18,-396 18,-360 94,-360 94,-396"/>
<text text-anchor="middle" x="56" y="-374.3" font-family="Times,serif" font-size="14.00">node_68</text>
</g>
<!-- node_67&#45;&gt;node_68 -->
<g id="edge67" class="edge">
<title>node_67&#45;&gt;node_68</title>
<path fill="none" stroke="black" d="M56,-431.7C56,-423.98 56,-414.71 56,-406.11"/>
<polygon fill="black" stroke="black" points="59.5,-406.1 56,-396.1 52.5,-406.1 59.5,-406.1"/>
</g>
<!-- stop_68 -->
<g id="node68" class="node">
<title>stop_68</title>
<ellipse fill="lightcoral" stroke="black" cx="1771" cy="-5202" rx="32.49" ry="18"/>
<text text-anchor="middle" x="1771" y="-5198.3" font-family="Times,serif" font-size="14.00">Stop</text>
</g>
<!-- start_69 -->
<g id="node69" class="node">
<title>start_69</title>
<ellipse fill="lightgreen" stroke="black" cx="1856" cy="-5202" rx="34.39" ry="18"/>
<text text-anchor="middle" x="1856" y="-5198.3" font-family="Times,serif" font-size="14.00">Start</text>
</g>
<!-- node_70 -->
<g id="node70" class="node">
<title>node_70</title>
<polygon fill="lightblue" stroke="black" points="104,-252 8,-252 8,-216 104,-216 104,-252"/>
<text text-anchor="middle" x="56" y="-230.3" font-family="Times,serif" font-size="14.00">Expression</text>
</g>
<!-- node_71 -->
<g id="node71" class="node">
<title>node_71</title>
<polygon fill="lightblue" stroke="black" points="112,-180 0,-180 0,-144 112,-144 112,-180"/>
<text text-anchor="middle" x="56" y="-158.3" font-family="Times,serif" font-size="14.00">Function Call</text>
</g>
<!-- node_70&#45;&gt;node_71 -->
<g id="edge70" class="edge">
<title>node_70&#45;&gt;node_71</title>
<path fill="none" stroke="black" d="M56,-215.7C56,-207.98 56,-198.71 56,-190.11"/>
<polygon fill="black" stroke="black" points="59.5,-190.1 56,-180.1 52.5,-190.1 59.5,-190.1"/>
</g>
<!-- node_72 -->
<g id="node72" class="node">
<title>node_72</title>
<polygon fill="lightblue" stroke="black" points="112,-108 0,-108 0,-72 112,-72 112,-108"/>
<text text-anchor="middle" x="56" y="-86.3" font-family="Times,serif" font-size="14.00">Function Call</text>
</g>
<!-- node_71&#45;&gt;node_72 -->
<g id="edge71" class="edge">
<title>node_71&#45;&gt;node_72</title>
<path fill="none" stroke="black" d="M56,-143.7C56,-135.98 56,-126.71 56,-118.11"/>
<polygon fill="black" stroke="black" points="59.5,-118.1 56,-108.1 52.5,-118.1 59.5,-118.1"/>
</g>
<!-- node_73 -->
<g id="node95" class="node">
<title>node_73</title>
<polygon fill="lightblue" stroke="black" points="94,-36 18,-36 18,0 94,0 94,-36"/>
<text text-anchor="middle" x="56" y="-14.3" font-family="Times,serif" font-size="14.00">node_73</text>
</g>
<!-- node_72&#45;&gt;node_73 -->
<g id="edge72" class="edge">
<title>node_72&#45;&gt;node_73</title>
<path fill="none" stroke="black" d="M56,-71.7C56,-63.98 56,-54.71 56,-46.11"/>
<polygon fill="black" stroke="black" points="59.5,-46.1 56,-36.1 52.5,-46.1 59.5,-46.1"/>
</g>
<!-- stop_73 -->
<g id="node73" class="node">
<title>stop_73</title>
<ellipse fill="lightcoral" stroke="black" cx="1941" cy="-5202" rx="32.49" ry="18"/>
<text text-anchor="middle" x="1941" y="-5198.3" font-family="Times,serif" font-size="14.00">Stop</text>
</g>
<!-- node_6&#45;&gt;node_7 -->
<g id="edge6" class="edge">
<title>node_6&#45;&gt;node_7</title>
<path fill="none" stroke="black" d="M56,-4823.7C56,-4815.98 56,-4806.71 56,-4798.11"/>
<polygon fill="black" stroke="black" points="59.5,-4798.1 56,-4788.1 52.5,-4798.1 59.5,-4798.1"/>
</g>
<!-- node_9 -->
<g id="node76" class="node">
<title>node_9</title>
<polygon fill="lightblue" stroke="black" points="89.5,-4644 22.5,-4644 22.5,-4608 89.5,-4608 89.5,-4644"/>
<text text-anchor="middle" x="56" y="-4622.3" font-family="Times,serif" font-size="14.00">node_9</text>
</g>
<!-- node_8&#45;&gt;node_9 -->
<g id="edge8" class="edge">
<title>node_8&#45;&gt;node_9</title>
<path fill="none" stroke="black" d="M56,-4679.7C56,-4671.98 56,-4662.71 56,-4654.11"/>
<polygon fill="black" stroke="black" points="59.5,-4654.1 56,-4644.1 52.5,-4654.1 59.5,-4654.1"/>
</g>
<!-- node_9&#45;&gt;node_10 -->
<g id="edge9" class="edge">
<title>node_9&#45;&gt;node_10</title>
<path fill="none" stroke="black" d="M56,-4607.7C56,-4599.98 56,-4590.71 56,-4582.11"/>
<polygon fill="black" stroke="black" points="59.5,-4582.1 56,-4572.1 52.5,-4582.1 59.5,-4582.1"/>
</g>
<!-- node_15 -->
<g id="node78" class="node">
<title>node_15</title>
<polygon fill="lightblue" stroke="black" points="94,-4212 18,-4212 18,-4176 94,-4176 94,-4212"/>
<text text-anchor="middle" x="56" y="-4190.3" font-family="Times,serif" font-size="14.00">node_15</text>
</g>
<!-- node_14&#45;&gt;node_15 -->
<g id="edge14" class="edge">
<title>node_14&#45;&gt;node_15</title>
<path fill="none" stroke="black" d="M56,-4247.7C56,-4239.98 56,-4230.71 56,-4222.11"/>
<polygon fill="black" stroke="black" points="59.5,-4222.1 56,-4212.1 52.5,-4222.1 59.5,-4222.1"/>
</g>
<!-- node_15&#45;&gt;node_16 -->
<g id="edge15" class="edge">
<title>node_15&#45;&gt;node_16</title>
<path fill="none" stroke="black" d="M56,-4175.7C56,-4167.98 56,-4158.71 56,-4150.11"/>
<polygon fill="black" stroke="black" points="59.5,-4150.1 56,-4140.1 52.5,-4150.1 59.5,-4150.1"/>
</g>
<!-- node_27 -->
<g id="node80" class="node">
<title>node_27</title>
<polygon fill="lightblue" stroke="black" points="94,-3348 18,-3348 18,-3312 94,-3312 94,-3348"/>
<text text-anchor="middle" x="56" y="-3326.3" font-family="Times,serif" font-size="14.00">node_27</text>
</g>
<!-- node_26&#45;&gt;node_27 -->
<g id="edge26" class="edge">
<title>node_26&#45;&gt;node_27</title>
<path fill="none" stroke="black" d="M56,-3383.7C56,-3375.98 56,-3366.71 56,-3358.11"/>
<polygon fill="black" stroke="black" points="59.5,-3358.1 56,-3348.1 52.5,-3358.1 59.5,-3358.1"/>
</g>
<!-- node_27&#45;&gt;node_28 -->
<g id="edge27" class="edge">
<title>node_27&#45;&gt;node_28</title>
<path fill="none" stroke="black" d="M56,-3311.7C56,-3303.98 56,-3294.71 56,-3286.11"/>
<polygon fill="black" stroke="black" points="59.5,-3286.1 56,-3276.1 52.5,-3286.1 59.5,-3286.1"/>
</g>
<!-- node_31 -->
<g id="node82" class="node">
<title>node_31</title>
<polygon fill="lightblue" stroke="black" points="94,-3060 18,-3060 18,-3024 94,-3024 94,-3060"/>
<text text-anchor="middle" x="56" y="-3038.3" font-family="Times,serif" font-size="14.00">node_31</text>
</g>
<!-- node_30&#45;&gt;node_31 -->
<g id="edge30" class="edge">
<title>node_30&#45;&gt;node_31</title>
<path fill="none" stroke="black" d="M56,-3095.7C56,-3087.98 56,-3078.71 56,-3070.11"/>
<polygon fill="black" stroke="black" points="59.5,-3070.1 56,-3060.1 52.5,-3070.1 59.5,-3070.1"/>
</g>
<!-- node_31&#45;&gt;node_32 -->
<g id="edge31" class="edge">
<title>node_31&#45;&gt;node_32</title>
<path fill="none" stroke="black" d="M56,-3023.7C56,-3015.98 56,-3006.71 56,-2998.11"/>
<polygon fill="black" stroke="black" points="59.5,-2998.1 56,-2988.1 52.5,-2998.1 59.5,-2998.1"/>
</g>
<!-- node_36 -->
<g id="node84" class="node">
<title>node_36</title>
<polygon fill="lightblue" stroke="black" points="94,-2700 18,-2700 18,-2664 94,-2664 94,-2700"/>
<text text-anchor="middle" x="56" y="-2678.3" font-family="Times,serif" font-size="14.00">node_36</text>
</g>
<!-- node_35&#45;&gt;node_36 -->
<g id="edge35" class="edge">
<title>node_35&#45;&gt;node_36</title>
<path fill="none" stroke="black" d="M56,-2735.7C56,-2727.98 56,-2718.71 56,-2710.11"/>
<polygon fill="black" stroke="black" points="59.5,-2710.1 56,-2700.1 52.5,-2710.1 59.5,-2710.1"/>
</g>
<!-- node_36&#45;&gt;node_37 -->
<g id="edge36" class="edge">
<title>node_36&#45;&gt;node_37</title>
<path fill="none" stroke="black" d="M56,-2663.7C56,-2655.98 56,-2646.71 56,-2638.11"/>
<polygon fill="black" stroke="black" points="59.5,-2638.1 56,-2628.1 52.5,-2638.1 59.5,-2638.1"/>
</g>
<!-- node_48 -->
<g id="node86" class="node">
<title>node_48</title>
<polygon fill="lightblue" stroke="black" points="94,-1836 18,-1836 18,-1800 94,-1800 94,-1836"/>
<text text-anchor="middle" x="56" y="-1814.3" font-family="Times,serif" font-size="14.00">node_48</text>
</g>
<!-- node_47&#45;&gt;node_48 -->
<g id="edge47" class="edge">
<title>node_47&#45;&gt;node_48</title>
<path fill="none" stroke="black" d="M56,-1871.7C56,-1863.98 56,-1854.71 56,-1846.11"/>
<polygon fill="black" stroke="black" points="59.5,-1846.1 56,-1836.1 52.5,-1846.1 59.5,-1846.1"/>
</g>
<!-- node_48&#45;&gt;node_49 -->
<g id="edge48" class="edge">
<title>node_48&#45;&gt;node_49</title>
<path fill="none" stroke="black" d="M56,-1799.7C56,-1791.98 56,-1782.71 56,-1774.11"/>
<polygon fill="black" stroke="black" points="59.5,-1774.1 56,-1764.1 52.5,-1774.1 59.5,-1774.1"/>
</g>
<!-- node_51 -->
<g id="node88" class="node">
<title>node_51</title>
<polygon fill="lightblue" stroke="black" points="94,-1620 18,-1620 18,-1584 94,-1584 94,-1620"/>
<text text-anchor="middle" x="56" y="-1598.3" font-family="Times,serif" font-size="14.00">node_51</text>
</g>
<!-- node_50&#45;&gt;node_51 -->
<g id="edge50" class="edge">
<title>node_50&#45;&gt;node_51</title>
<path fill="none" stroke="black" d="M56,-1655.7C56,-1647.98 56,-1638.71 56,-1630.11"/>
<polygon fill="black" stroke="black" points="59.5,-1630.1 56,-1620.1 52.5,-1630.1 59.5,-1630.1"/>
</g>
<!-- node_51&#45;&gt;node_52 -->
<g id="edge51" class="edge">
<title>node_51&#45;&gt;node_52</title>
<path fill="none" stroke="black" d="M56,-1583.7C56,-1575.98 56,-1566.71 56,-1558.11"/>
<polygon fill="black" stroke="black" points="59.5,-1558.1 56,-1548.1 52.5,-1558.1 59.5,-1558.1"/>
</g>
<!-- node_54 -->
<g id="node90" class="node">
<title>node_54</title>
<polygon fill="lightblue" stroke="black" points="94,-1404 18,-1404 18,-1368 94,-1368 94,-1404"/>
<text text-anchor="middle" x="56" y="-1382.3" font-family="Times,serif" font-size="14.00">node_54</text>
</g>
<!-- node_53&#45;&gt;node_54 -->
<g id="edge53" class="edge">
<title>node_53&#45;&gt;node_54</title>
<path fill="none" stroke="black" d="M56,-1439.7C56,-1431.98 56,-1422.71 56,-1414.11"/>
<polygon fill="black" stroke="black" points="59.5,-1414.1 56,-1404.1 52.5,-1414.1 59.5,-1414.1"/>
</g>
<!-- node_54&#45;&gt;node_55 -->
<g id="edge54" class="edge">
<title>node_54&#45;&gt;node_55</title>
<path fill="none" stroke="black" d="M56,-1367.7C56,-1359.98 56,-1350.71 56,-1342.11"/>
<polygon fill="black" stroke="black" points="59.5,-1342.1 56,-1332.1 52.5,-1342.1 59.5,-1342.1"/>
</g>
<!-- node_66 -->
<g id="node92" class="node">
<title>node_66</title>
<polygon fill="lightblue" stroke="black" points="94,-540 18,-540 18,-504 94,-504 94,-540"/>
<text text-anchor="middle" x="56" y="-518.3" font-family="Times,serif" font-size="14.00">node_66</text>
</g>
<!-- node_65&#45;&gt;node_66 -->
<g id="edge65" class="edge">
<title>node_65&#45;&gt;node_66</title>
<path fill="none" stroke="black" d="M56,-575.7C56,-567.98 56,-558.71 56,-550.11"/>
<polygon fill="black" stroke="black" points="59.5,-550.1 56,-540.1 52.5,-550.1 59.5,-550.1"/>
</g>
<!-- node_66&#45;&gt;node_67 -->
<g id="edge66" class="edge">
<title>node_66&#45;&gt;node_67</title>
<path fill="none" stroke="black" d="M56,-503.7C56,-495.98 56,-486.71 56,-478.11"/>
<polygon fill="black" stroke="black" points="59.5,-478.1 56,-468.1 52.5,-478.1 59.5,-478.1"/>
</g>
<!-- node_69 -->
<g id="node94" class="node">
<title>node_69</title>
<polygon fill="lightblue" stroke="black" points="94,-324 18,-324 18,-288 94,-288 94,-324"/>
<text text-anchor="middle" x="56" y="-302.3" font-family="Times,serif" font-size="14.00">node_69</text>
</g>
<!-- node_68&#45;&gt;node_69 -->
<g id="edge68" class="edge">
<title>node_68&#45;&gt;node_69</title>
<path fill="none" stroke="black" d="M56,-359.7C56,-351.98 56,-342.71 56,-334.11"/>
<polygon fill="black" stroke="black" points="59.5,-334.1 56,-324.1 52.5,-334.1 59.5,-334.1"/>
</g>
<!-- node_69&#45;&gt;node_70 -->
<g id="edge69" class="edge">
<title>node_69&#45;&gt;node_70</title>
<path fill="none" stroke="black" d="M56,-287.7C56,-279.98 56,-270.71 56,-262.11"/>
<polygon fill="black" stroke="black" points="59.5,-262.1 56,-252.1 52.5,-262.1 59.5,-262.1"/>
</g>
</g>
</svg>
